<svg xmlns="http://www.w3.org/2000/svg" fill="none" viewBox="0 0 560 191"><path fill="#fff" d="M0 0h560v191H0z"/><path fill="#096b6a" d="M0 0h560v191H0z"/><path fill="#e2e5e9" d="M172 163a8 8 0 0 0 8 8h176a8 8 0 0 0 8-8V57a8 8 0 0 0-8-8H180a8 8 0 0 0-8 8z"/><rect width="214.689" height="12.4951" x="161" y="159" fill="#bcc0c7" rx="4"/><path fill="#3c3f48" fill-rule="evenodd" d="M288.228 159a12.05 12.05 0 0 1-9.738 4.941h-20.752A12.05 12.05 0 0 1 248 159z" clip-rule="evenodd"/><circle cx="473.5" cy="127.5" r="21.4155" fill="#0a8281" transform="rotate(-.226 473.5 127.5)"/><path fill="#089695" d="M473.414 111.094a16.65 16.65 0 0 0-16.283 13.472 16.65 16.65 0 0 0 10.035 18.598 16.658 16.658 0 0 0 18.045-27.238L473.48 127.75z"/><path fill="#0a8281" fill-rule="evenodd" d="M78.533 38.46a21.4 21.4 0 0 1-15.579-3.93 21.4 21.4 0 0 1-14.6 6.708 21.33 21.33 0 0 0 3.423 16.312 21.4 21.4 0 0 0 6.153 5.876 21.4 21.4 0 0 0 7.962 3.013 21.4 21.4 0 0 0 7.278-4.416 21.37 21.37 0 0 0 6.864-15.194 21.3 21.3 0 0 0-1.501-8.37m-8.198 7.162a1.502 1.502 0 0 0-2.77-1.163l-3.963 9.44-3.009-3.018A1.502 1.502 0 1 0 58.465 53l4.59 4.606a1.502 1.502 0 0 0 2.45-.48z" clip-rule="evenodd"/><rect width="64" height="64" x="116" y="93" fill="#705ff4" rx="10" transform="rotate(-12 116 93)"/><path fill="#fff" fill-rule="evenodd" d="m132.914 103.309 12.521-2.661a.8.8 0 0 1 .948.616l2.662 12.52a.8.8 0 0 1-.617.949l-12.52 2.661a.8.8 0 0 1-.949-.616l-2.661-12.52a.8.8 0 0 1 .616-.949m-2.964 1.448a3.2 3.2 0 0 1 2.465-3.796l12.521-2.661a3.2 3.2 0 0 1 3.795 2.465l2.661 12.52a3.2 3.2 0 0 1-2.465 3.795l-12.52 2.662a3.2 3.2 0 0 1-3.795-2.465zm20.142 17.801-12.521 2.661a.8.8 0 0 0-.616.949l2.662 12.52a.8.8 0 0 0 .948.617l12.521-2.662a.8.8 0 0 0 .616-.948l-2.661-12.521a.8.8 0 0 0-.949-.616m-13.02.314a3.2 3.2 0 0 0-2.464 3.795l2.661 12.52a3.2 3.2 0 0 0 3.795 2.465l12.521-2.661a3.2 3.2 0 0 0 2.464-3.795l-2.661-12.521a3.2 3.2 0 0 0-3.795-2.464zm6.193 6.044a.8.8 0 0 0-.617.949l.666 3.13a.8.8 0 0 0 .948.617l3.131-.666a.8.8 0 0 0 .616-.949l-.666-3.13a.8.8 0 0 0-.948-.616zm-4.658-21.91a.8.8 0 0 0-.616.949l.665 3.13a.8.8 0 0 0 .949.616l3.13-.665a.8.8 0 0 0 .617-.949l-.666-3.13a.8.8 0 0 0-.949-.616zm16.218-8.354 12.52-2.662a.8.8 0 0 1 .949.617l2.661 12.52a.8.8 0 0 1-.616.949l-12.52 2.661a.8.8 0 0 1-.949-.616l-2.661-12.52a.8.8 0 0 1 .616-.95m-2.964 1.447a3.2 3.2 0 0 1 2.465-3.795l12.52-2.661a3.2 3.2 0 0 1 3.795 2.465l2.662 12.52a3.2 3.2 0 0 1-2.465 3.795l-12.52 2.661a3.2 3.2 0 0 1-3.796-2.464zm8.657 2.25a.8.8 0 0 0-.616.949l.665 3.13a.8.8 0 0 0 .949.616l3.13-.665a.8.8 0 0 0 .616-.949l-.665-3.13a.8.8 0 0 0-.949-.617zm4.041 22.859a.8.8 0 0 1 .616-.949l3.13-.665a.8.8 0 0 1 .949.616l.665 3.13a.8.8 0 0 1-.616.949l-3.13.665a.8.8 0 0 1-.949-.616zm4.929-7.591a.8.8 0 0 0-.616.949l.665 3.13a.8.8 0 0 0 .949.616l3.13-.665a.8.8 0 0 0 .617-.949l-.666-3.13a.8.8 0 0 0-.949-.616zm1.713 11.904a.8.8 0 0 1 .616-.948l3.13-.666a.8.8 0 0 1 .949.616l.665 3.131a.8.8 0 0 1-.616.948l-3.13.666a.8.8 0 0 1-.949-.617zm-12.668-9.575a.8.8 0 0 0-.616.949l.665 3.13a.8.8 0 0 0 .949.616l3.13-.665a.8.8 0 0 0 .616-.949l-.665-3.13a.8.8 0 0 0-.949-.616zm1.713 11.904a.8.8 0 0 1 .616-.949l3.13-.665a.8.8 0 0 1 .949.616l.665 3.13a.8.8 0 0 1-.616.949l-3.13.665a.8.8 0 0 1-.949-.616z" clip-rule="evenodd"/><rect width="64" height="64" x="347" y="18" fill="#fff" rx="10" transform="rotate(12 347 18)"/><path fill="#705ff4" d="M365.056 64.027c-.889-.19-1.374-.936-1.177-1.86l2.726-12.828-.059-.012-3.168 1.332c-.341.15-.596.183-.927.112-.64-.136-1.004-.696-.86-1.371.101-.474.366-.789.95-1.036l4.016-1.71c.871-.371 1.368-.377 2.007-.24 1.078.228 1.591 1.018 1.367 2.072l-3.044 14.32c-.196.925-.943 1.41-1.831 1.22m5.766.979c-.947-.202-1.334-.828-1.17-1.598.125-.593.402-.905 1.185-1.383l6.324-4.065c2.637-1.693 3.366-2.442 3.643-3.745.325-1.528-.614-2.879-2.26-3.228-1.54-.328-2.784.225-3.716 1.636-.438.55-.862.795-1.561.647-.829-.177-1.218-.792-1.057-1.55.048-.225.129-.43.231-.62.855-1.749 3.319-3.268 6.647-2.56 3.424.727 5.35 3.254 4.741 6.12-.426 2.002-1.672 3.148-5.092 5.318l-4.741 3.028-.013.06 6.823 1.45c.805.17 1.197.774 1.036 1.532-.159.746-.762 1.138-1.568.967z"/><path fill="#705ff4" fill-rule="evenodd" d="M353.515 37.378a7.2 7.2 0 0 1 8.539-5.546l28.171 5.988a7.2 7.2 0 0 1 5.546 8.54l-5.988 28.17a7.2 7.2 0 0 1-8.54 5.546l-28.17-5.988a7.2 7.2 0 0 1-5.546-8.54zm8.007-3.042 28.171 5.988a4.64 4.64 0 0 1 3.574 5.503l-1.165 5.48c-2.675-.5-4.75.336-5.884 1.817-.302.37-.465.73-.556 1.157-.166.782.178 1.375 1.031 1.556.711.151 1.101-.05 1.588-.714.811-1.157 1.823-1.634 3.304-1.385l-1.076 5.064-.037-.007-.9-.192c-.758-.16-1.307.206-1.45.88-.144.676.208 1.234.966 1.395l.937.199-1.169 5.502c-1.678-.435-2.473-1.394-2.775-2.738-.186-.696-.507-1.049-1.135-1.182-.853-.181-1.47.22-1.641 1.025-.086.403-.074.814.063 1.276.508 1.854 2.113 3.448 4.956 4.121l-1.045 4.917a4.64 4.64 0 0 1-5.504 3.574l-28.17-5.988a4.64 4.64 0 0 1-3.574-5.503l5.988-28.171a4.64 4.64 0 0 1 5.503-3.574" clip-rule="evenodd"/><rect width="25" height="34" x="240" y="93" fill="#fff" rx="3"/><rect width="25" height="34" x="272" y="93" fill="#fff" rx="3"/><rect width="25" height="34" x="304" y="93" fill="#fff" rx="3"/><rect width="25" height="34" x="208" y="93" fill="#fff" rx="3"/><path fill="#31bdbb" d="M240 123h25v1a3 3 0 0 1-3 3h-19a3 3 0 0 1-3-3zm32 0h25v1a3 3 0 0 1-3 3h-19a3 3 0 0 1-3-3zm32 0h25v1a3 3 0 0 1-3 3h-19a3 3 0 0 1-3-3zm-96 0h25v1a3 3 0 0 1-3 3h-19a3 3 0 0 1-3-3z"/></svg>