<svg xmlns="http://www.w3.org/2000/svg" fill="none" viewBox="0 0 1024 640"><g clip-path="url(#a)"><mask id="b" width="1024" height="640" x="0" y="0" maskUnits="userSpaceOnUse" style="mask-type:luminance"><path fill="#fff" d="M1014.76 0H9.244A9.244 9.244 0 0 0 0 9.244v621.512A9.244 9.244 0 0 0 9.244 640H1014.76c5.1 0 9.24-4.139 9.24-9.244V9.244c0-5.105-4.14-9.244-9.24-9.244"/></mask><g mask="url(#b)"><path fill="#fff" d="M1014.76 0H9.244A9.244 9.244 0 0 0 0 9.244v621.512A9.244 9.244 0 0 0 9.244 640H1014.76c5.1 0 9.24-4.139 9.24-9.244V9.244c0-5.105-4.14-9.244-9.24-9.244"/><path fill="#f4f6f7" d="M1024 609.422H0V640h1024z"/><path fill="#636363" d="M395.748 627.342c1.329 0 2.273-.787 2.391-1.941l.004-.042h-1.123l-.007.031c-.123.588-.601.974-1.261.974-.871 0-1.41-.734-1.41-1.918v-.007c0-1.184.539-1.913 1.406-1.913.657 0 1.15.42 1.268 1.039v.026h1.123v-.046c-.107-1.164-1.085-1.997-2.391-1.997-1.601 0-2.585 1.103-2.585 2.891v.007c0 1.788.989 2.896 2.585 2.896m5.135-.053c1.295 0 2.074-.818 2.074-2.189v-.008c0-1.36-.79-2.188-2.074-2.188s-2.073.832-2.073 2.188v.008c0 1.367.779 2.189 2.073 2.189m0-.875c-.595 0-.931-.486-.931-1.314v-.008c0-.821.339-1.313.931-1.313.589 0 .932.492.932 1.313v.008c0 .828-.34 1.314-.932 1.314m2.905.786h1.116v-2.432c0-.57.313-.94.828-.94.527 0 .772.313.772.905v2.467h1.115v-2.719c0-1.005-.504-1.577-1.44-1.577-.6 0-1.016.286-1.207.741h-.068v-.65h-1.116zm6.579.015c.214 0 .42-.022.558-.049v-.829a3 3 0 0 1-.329.019c-.377 0-.538-.167-.538-.546v-1.975h.867v-.84h-.867v-1.004h-1.127v1.004h-.649v.84h.649v2.231c0 .817.413 1.149 1.436 1.149m2.554.05c.549 0 .993-.232 1.207-.622h.069v.557h1.1v-2.872c0-.897-.631-1.424-1.746-1.424-1.058 0-1.753.488-1.841 1.226l-.004.034h1.031l.008-.016c.088-.248.344-.389.745-.389.458 0 .707.207.707.569v.348l-1.017.061c-1.046.061-1.63.504-1.63 1.26v.008c0 .764.569 1.26 1.371 1.26m-.283-1.329v-.008c0-.305.233-.485.71-.515l.849-.054v.31c0 .443-.387.783-.902.783-.386 0-.657-.195-.657-.516m5.525 1.353c1.096 0 1.753-.589 1.868-1.506l.004-.023h-1.032l-.007.016c-.1.42-.371.638-.829.638-.596 0-.928-.47-.928-1.322v-.008c0-.84.328-1.305.928-1.305.477 0 .756.266.829.675l.003.008h1.039v-.011c-.099-.94-.76-1.547-1.875-1.547-1.318 0-2.059.798-2.059 2.18v.008c0 1.398.745 2.197 2.059 2.197m4.452-.074c.214 0 .42-.022.557-.049v-.829a3 3 0 0 1-.328.019c-.379 0-.539-.167-.539-.546v-1.975h.867v-.84h-.867v-1.004h-1.127v1.004h-.649v.84h.649v2.231c0 .817.413 1.149 1.437 1.149m5.763.127c1.421 0 2.307-.821 2.307-2.044v-3.609h-1.153v3.506c0 .715-.413 1.169-1.154 1.169s-1.157-.454-1.157-1.169v-3.506h-1.154v3.609c0 1.226.898 2.044 2.311 2.044m5.128-.053c1.077 0 1.845-.543 1.845-1.376v-.003c0-.623-.394-.974-1.234-1.154l-.699-.149c-.435-.095-.592-.225-.592-.451v-.003c0-.283.275-.463.661-.463.416 0 .665.21.725.436l.004.019h1.035v-.015c-.045-.676-.656-1.226-1.761-1.226-1.05 0-1.752.527-1.752 1.318v.003c0 .63.397 1.023 1.198 1.196l.704.149c.427.095.596.237.596.461v.008c0 .279-.291.462-.719.462-.439 0-.695-.187-.782-.446l-.008-.016h-1.096l.003.016c.081.722.73 1.234 1.872 1.234m14.647-.089h1.153v-1.738h1.12c1.16 0 1.936-.749 1.936-1.883v-.008c0-1.135-.776-1.883-1.936-1.883h-2.273zm1.99-4.599c.66 0 1.05.348 1.05.974v.008c0 .626-.39.978-1.05.978h-.837v-1.96zm3.091 4.599h1.115v-2.354c0-.595.402-.958 1.036-.958.172 0 .343.027.512.065v-.974a1.7 1.7 0 0 0-.417-.053c-.546 0-.928.267-1.062.722h-.069v-.654h-1.115zm3.898-4.851a.623.623 0 0 0 .627-.619.625.625 0 0 0-.627-.623.63.63 0 0 0-.63.623c0 .344.287.619.63.619m-.561 4.851h1.115v-4.206h-1.115zm3.26 0h1.253l1.455-4.206h-1.173l-.863 3.163h-.069l-.871-3.163h-1.195zm4.39.064c.55 0 .993-.232 1.208-.622h.068v.558h1.1v-2.873c0-.897-.63-1.424-1.745-1.424-1.058 0-1.754.489-1.841 1.226l-.004.034h1.031l.007-.016c.089-.248.345-.389.746-.389.458 0 .706.207.706.569v.348l-1.016.061c-1.046.061-1.631.504-1.631 1.26v.008c0 .764.569 1.26 1.371 1.26m-.282-1.329v-.008c0-.305.233-.485.71-.515l.848-.054v.31c0 .443-.386.783-.901.783-.386 0-.657-.195-.657-.516m5.524 1.353c1.097 0 1.754-.589 1.868-1.506l.004-.022h-1.031l-.008.015c-.099.42-.37.638-.828.638-.596 0-.928-.47-.928-1.322v-.008c0-.84.327-1.305.928-1.305.477 0 .756.266.828.675l.004.008h1.039v-.011c-.099-.94-.76-1.547-1.876-1.547-1.317 0-2.058.798-2.058 2.18v.008c0 1.398.745 2.197 2.058 2.197m3.169 1.393c1.039 0 1.592-.374 1.967-1.485l1.432-4.202h-1.176l-.882 3.186h-.077l-.882-3.186h-1.226l1.478 4.206-.038.16c-.08.329-.309.481-.707.481-.103 0-.214-.004-.29-.011v.84c.129.008.271.011.401.011m16.113-1.481h3.605v-.951h-2.451v-4.56h-1.154zm6.121.088c1.23 0 1.772-.71 1.902-1.238l.008-.038h-1.039l-.012.023c-.076.16-.347.421-.836.421-.592 0-.963-.402-.974-1.093h2.895v-.348c0-1.272-.764-2.111-1.99-2.111s-2.009.859-2.009 2.195v.004c0 1.348.775 2.185 2.055 2.185m-.027-3.548c.485 0 .833.313.901.924h-1.814c.069-.596.428-.924.913-.924m4.662 4.938c1.272 0 2.078-.622 2.078-1.608v-4.075h-1.115v.687h-.054c-.225-.473-.676-.756-1.253-.756-1.077 0-1.73.833-1.73 2.07v.008c0 1.196.653 2.013 1.711 2.013.585 0 1.028-.241 1.261-.684h.068v.783c0 .489-.348.767-.943.767-.497 0-.787-.167-.848-.412l-.004-.015h-1.103v.019c.091.714.767 1.203 1.932 1.203m.015-2.517c-.603 0-.947-.47-.947-1.161v-.007c0-.692.348-1.161.947-1.161.6 0 .962.469.962 1.161V625c0 .691-.359 1.161-.962 1.161m4.246 1.104c.549 0 .992-.233 1.206-.622h.069v.557h1.1v-2.872c0-.898-.63-1.424-1.745-1.424-1.058 0-1.753.488-1.841 1.225l-.004.035h1.031l.008-.016c.088-.248.344-.389.745-.389.458 0 .706.206.706.569v.348l-1.016.061c-1.047.061-1.63.504-1.63 1.26v.008c0 .763.569 1.26 1.371 1.26m-.283-1.329v-.008c0-.305.233-.485.71-.516l.848-.053v.309c0 .443-.386.783-.901.783-.386 0-.657-.195-.657-.515m3.711 1.264h1.115v-5.813h-1.115zm14.22 0h1.154v-1.738h1.119c1.161 0 1.936-.749 1.936-1.883v-.008c0-1.135-.775-1.883-1.936-1.883h-2.273zm1.99-4.599c.661 0 1.05.348 1.05.974v.008c0 .626-.389.978-1.05.978h-.836v-1.96zm4.845 4.687c1.295 0 2.074-.818 2.074-2.189v-.008c0-1.36-.791-2.188-2.074-2.188s-2.074.832-2.074 2.188v.008c0 1.367.779 2.189 2.074 2.189m0-.875c-.596 0-.932-.486-.932-1.314v-.008c0-.821.34-1.313.932-1.313.588 0 .932.492.932 1.313v.008c0 .828-.34 1.314-.932 1.314m2.943.787h1.116v-5.814h-1.116zm2.76-4.851a.623.623 0 0 0 .626-.619.624.624 0 0 0-.626-.623.627.627 0 0 0-.63.623c0 .344.286.619.63.619m-.562 4.851h1.116v-4.206h-1.116zm4.013.088c1.096 0 1.753-.589 1.867-1.506l.004-.022h-1.031l-.007.015c-.1.42-.371.638-.83.638-.596 0-.928-.47-.928-1.322v-.008c0-.84.329-1.305.928-1.305.478 0 .757.266.83.675l.003.008h1.039v-.011c-.1-.94-.76-1.547-1.875-1.547-1.318 0-2.059.798-2.059 2.18v.008c0 1.398.745 2.197 2.059 2.197m3.168 1.393c1.039 0 1.593-.374 1.967-1.485l1.433-4.202h-1.177l-.882 3.186h-.077l-.882-3.186h-1.226l1.478 4.206-.038.16c-.081.329-.31.481-.706.481-.104 0-.214-.004-.291-.011v.84c.13.008.271.011.401.011m8.453-1.34c1.421 0 2.307-.821 2.307-2.044v-3.609h-1.154v3.506c0 .715-.412 1.169-1.153 1.169s-1.158-.454-1.158-1.169v-3.506h-1.153v3.609c0 1.226.897 2.044 2.311 2.044m3.454 1.252h1.115v-2.065h.069c.214.457.684.736 1.261.736 1.065 0 1.707-.813 1.707-2.165v-.008c0-1.34-.657-2.165-1.707-2.165-.596 0-1.043.267-1.261.718h-.069v-.65h-1.115zm2.063-2.253c-.584 0-.959-.47-.959-1.241v-.008c0-.771.371-1.241.959-1.241.592 0 .955.47.955 1.241v.008c0 .771-.367 1.241-.955 1.241m4.425.924c.591 0 1.039-.263 1.256-.717h.069v.653h1.115v-5.814h-1.115v2.281h-.069c-.209-.459-.679-.741-1.256-.741-1.066 0-1.708.813-1.708 2.165v.008c0 1.345.657 2.165 1.708 2.165m.378-.924c-.588 0-.951-.466-.951-1.241v-.008c0-.767.363-1.241.951-1.241s.959.474.959 1.245v.007c0 .772-.367 1.238-.959 1.238m4.283.924c.551 0 .994-.232 1.208-.622h.068v.558h1.1v-2.873c0-.897-.63-1.424-1.745-1.424-1.058 0-1.754.489-1.841 1.226l-.004.034h1.031l.008-.016c.088-.248.344-.389.745-.389.458 0 .706.207.706.569v.348l-1.016.061c-1.046.061-1.631.504-1.631 1.26v.008c0 .764.57 1.26 1.371 1.26m-.282-1.329v-.008c0-.305.233-.485.71-.515l.848-.054v.31c0 .443-.386.783-.901.783-.386 0-.657-.195-.657-.516m5.418 1.279c.214 0 .42-.022.557-.049v-.829a3 3 0 0 1-.328.019c-.378 0-.539-.167-.539-.546v-1.974h.867v-.841h-.867v-1.004h-1.127v1.004h-.649v.841h.649v2.23c0 .817.414 1.149 1.437 1.149m3.225.074c1.231 0 1.772-.711 1.903-1.238l.007-.038h-1.038l-.012.023c-.077.16-.348.42-.837.42-.591 0-.962-.401-.973-1.092h2.895v-.348c0-1.272-.764-2.112-1.99-2.112-1.227 0-2.01.859-2.01 2.196v.003c0 1.349.776 2.186 2.055 2.186m-.027-3.549c.486 0 .833.313.902.925h-1.814c.068-.596.427-.925.912-.925m4.479 3.549c1.077 0 1.845-.543 1.845-1.376v-.003c0-.623-.394-.974-1.233-1.154l-.7-.149c-.435-.095-.592-.225-.592-.451v-.003c0-.283.275-.463.661-.463.416 0 .665.21.726.436l.003.019h1.036v-.015c-.046-.676-.657-1.226-1.761-1.226-1.05 0-1.754.527-1.754 1.318v.003c0 .63.398 1.024 1.2 1.196l.703.149c.428.095.596.237.596.461v.008c0 .279-.291.463-.719.463-.438 0-.694-.188-.783-.447l-.007-.016h-1.096l.003.016c.081.722.73 1.234 1.872 1.234m15.628-.088h1.089l1.031-3.713h.061l1.043 3.713h1.081l1.462-5.512h-1.192l-.851 3.938h-.061l-1.024-3.938h-.973l-1.005 3.938h-.061l-.859-3.938h-1.2zm7.992.088c1.295 0 2.075-.818 2.075-2.189v-.008c0-1.36-.791-2.188-2.075-2.188-1.283 0-2.073.832-2.073 2.188v.008c0 1.367.778 2.189 2.073 2.189m0-.875c-.596 0-.932-.486-.932-1.314v-.008c0-.821.341-1.313.932-1.313.588 0 .933.492.933 1.313v.008c0 .828-.34 1.314-.933 1.314m2.905.787h1.115v-2.354c0-.595.401-.958 1.036-.958.171 0 .343.027.512.065v-.974a1.7 1.7 0 0 0-.417-.053c-.546 0-.928.267-1.062.722h-.069v-.654h-1.115zm3.367 0h1.115v-5.814h-1.115zm3.692.064c.591 0 1.039-.263 1.256-.717h.069v.653h1.115v-5.814h-1.115v2.281h-.069c-.21-.459-.68-.741-1.256-.741-1.066 0-1.708.813-1.708 2.165v.008c0 1.345.657 2.165 1.708 2.165m.378-.924c-.589 0-.951-.466-.951-1.241v-.008c0-.767.362-1.241.951-1.241.588 0 .959.474.959 1.245v.007c0 .772-.367 1.238-.959 1.238m3.936.86h1.168l.746-2.934h.068l.752 2.934h1.184l1.12-4.206h-1.104l-.627 3.044h-.069l-.741-3.044h-1.061l-.737 3.044h-.069l-.626-3.044h-1.127zm6.323-4.851a.62.62 0 0 0 .626-.619.624.624 0 0 0-.626-.623.63.63 0 0 0-.631.623c0 .344.287.619.631.619m-.562 4.851h1.115v-4.206h-1.115zm3.661.064c.593 0 1.039-.263 1.257-.717h.069v.653h1.115v-5.814h-1.115v2.281h-.069c-.21-.459-.68-.741-1.257-.741-1.065 0-1.707.813-1.707 2.165v.008c0 1.345.657 2.165 1.707 2.165m.379-.924c-.589 0-.951-.466-.951-1.241v-.008c0-.767.362-1.241.951-1.241.588 0 .958.474.958 1.245v.007c0 .772-.366 1.238-.958 1.238m4.986.948c1.23 0 1.772-.711 1.902-1.238l.008-.038h-1.039l-.011.023c-.077.16-.348.42-.837.42-.592 0-.962-.401-.974-1.092h2.895v-.348c0-1.272-.764-2.112-1.99-2.112s-2.009.859-2.009 2.196v.003c0 1.349.776 2.186 2.055 2.186m-.026-3.549c.485 0 .832.313.901.925h-1.815c.069-.596.428-.925.914-.925"/><path fill="#fdfdfd" d="M0 11.378c0-3.983 0-5.974.775-7.495A7.1 7.1 0 0 1 3.883.775C5.403 0 7.395 0 11.378 0H1012.62c3.98 0 5.98 0 7.5.775a7.13 7.13 0 0 1 3.1 3.108c.78 1.52.78 3.512.78 7.495v25.6H0z"/><mask id="c" width="69" height="18" x="944" y="9" maskUnits="userSpaceOnUse" style="mask-type:luminance"><path fill="#fff" d="M1012.62 9.244h-68.265v17.067h68.265z"/></mask><g fill="#717171" mask="url(#c)"><path d="M952.896 19.465a.55.55 0 0 0 .548-.543V12.99l-.043-.873.363.43.825.88a.48.48 0 0 0 .362.158c.27 0 .498-.194.498-.472a.48.48 0 0 0-.164-.353l-1.969-1.905a.57.57 0 0 0-.42-.189c-.149 0-.277.047-.419.189L950.5 12.76a.46.46 0 0 0-.164.353c0 .278.221.472.491.472a.5.5 0 0 0 .37-.159l.824-.879.37-.436-.05.879v5.932c0 .295.249.543.555.543m-3.399 4.712h6.784c1.28 0 1.941-.66 1.941-1.922v-5.798c0-1.262-.661-1.922-1.941-1.922h-1.586v1.173h1.515c.533 0 .839.284.839.85v5.59c0 .567-.306.85-.839.85h-6.642c-.54 0-.839-.283-.839-.85v-5.59c0-.566.299-.85.839-.85h1.536v-1.173h-1.607c-1.273 0-1.941.654-1.941 1.922v5.798c0 1.262.668 1.922 1.941 1.922m28.281-1.422c.377 0 .676-.304.676-.649v-3.662h3.626c.37 0 .676-.298.676-.666a.677.677 0 0 0-.676-.667h-3.626v-3.662c0-.35-.299-.65-.676-.65-.37 0-.675.3-.675.65v3.662h-3.627a.687.687 0 0 0-.676.667c0 .368.32.666.676.666h3.627v3.662c0 .345.305.65.675.65m21.852-1.399h1v.89c0 1.262.66 1.922 1.94 1.922h5.98c1.27 0 1.94-.66 1.94-1.922v-6.02c0-1.261-.67-1.922-1.94-1.922h-1.01v-.884c0-1.262-.66-1.922-1.94-1.922h-5.97c-1.28 0-1.941.66-1.941 1.922v6.014c0 1.268.661 1.922 1.941 1.922m.078-1.173c-.547 0-.846-.283-.846-.855v-5.802c0-.572.299-.849.846-.849h5.822c.54 0 .84.277.84.85v.777h-3.8c-1.28 0-1.94.66-1.94 1.922v3.957zm2.942 2.806c-.55 0-.84-.283-.84-.849v-5.807c0-.566.29-.85.84-.85h5.82c.55 0 .85.284.85.85v5.807c0 .566-.3.85-.85.85z"/></g><mask id="d" width="70" height="18" x="68" y="9" maskUnits="userSpaceOnUse" style="mask-type:luminance"><path fill="#fff" d="M137.955 9.244H68.267v17.067h69.688z"/></mask><g mask="url(#d)"><path fill="#717171" d="M71.631 23.832h10.1c1.28 0 1.948-.661 1.948-1.924v-7.184c0-1.263-.667-1.924-1.948-1.924h-10.1c-1.275 0-1.942.655-1.942 1.924v7.184c0 1.263.667 1.924 1.942 1.924m.077-1.175c-.543 0-.844-.283-.844-.855V14.83c0-.572.3-.855.844-.855h2.691v8.682zm9.946-8.682c.543 0 .844.283.844.855v6.972c0 .572-.301.855-.844.855h-6.139v-8.682zm-8.412 2.16c.213 0 .39-.183.39-.384a.39.39 0 0 0-.39-.378h-1.21a.39.39 0 0 0-.389.378c0 .2.177.384.39.384zm0 1.588c.213 0 .39-.177.39-.384a.39.39 0 0 0-.39-.378h-1.21a.39.39 0 0 0-.389.378c0 .207.177.384.39.384zm0 1.582c.213 0 .39-.171.39-.378 0-.2-.177-.372-.39-.372h-1.21a.386.386 0 0 0-.389.372c0 .207.177.378.39.378zm32.997 3.517-4.322-4.228a.7.7 0 0 1-.228-.51.7.7 0 0 1 .233-.518l4.322-4.222a.63.63 0 0 1 .456-.189c.372 0 .662.29.662.656 0 .178-.073.35-.201.478l-3.888 3.789 3.888 3.8a.67.67 0 0 1 .201.477c0 .367-.29.656-.662.656a.65.65 0 0 1-.461-.189"/><path fill="#bdbcbc" d="M127.595 23.01a.64.64 0 0 0 .461-.188l4.322-4.222c.15-.156.228-.317.228-.517a.67.67 0 0 0-.228-.511l-4.322-4.228a.64.64 0 0 0-.461-.189.65.65 0 0 0-.661.656c0 .178.077.35.199.478l3.895 3.8-3.895 3.789a.68.68 0 0 0-.199.477.65.65 0 0 0 .661.656"/></g><mask id="e" width="38" height="9" x="14" y="14" maskUnits="userSpaceOnUse" style="mask-type:luminance"><path fill="#fff" d="M51.2 14.223H14.222v8.533H51.2z"/></mask><g mask="url(#e)"><path fill="#ed6a5e" d="M18.489 22.756a4.267 4.267 0 1 0 0-8.533 4.267 4.267 0 0 0 0 8.533"/><path stroke="#000" stroke-opacity=".1" d="M18.489 22.4a3.911 3.911 0 1 0 0-7.822 3.911 3.911 0 0 0 0 7.822Z"/><path fill="#f4bd50" d="M32.711 22.756a4.267 4.267 0 1 0 0-8.533 4.267 4.267 0 0 0 0 8.533"/><path stroke="#000" stroke-opacity=".1" d="M32.71 22.4a3.911 3.911 0 1 0 .001-7.822 3.911 3.911 0 0 0 0 7.822Z"/><path fill="#61c454" d="M46.933 22.756a4.267 4.267 0 1 0 0-8.533 4.267 4.267 0 0 0 0 8.533"/><path stroke="#000" stroke-opacity=".1" d="M46.933 22.4a3.911 3.911 0 1 0 0-7.822 3.911 3.911 0 0 0 0 7.822Z"/></g><path fill="#f0f0f0" d="M313.067 15.36c0-2.39 0-3.585.465-4.497a4.27 4.27 0 0 1 1.864-1.865c.914-.465 2.108-.465 4.498-.465h383.857c2.39 0 3.584 0 4.497.465a4.27 4.27 0 0 1 1.865 1.865c.465.912.465 2.107.465 4.497v6.258c0 2.39 0 3.584-.465 4.497a4.27 4.27 0 0 1-1.865 1.864c-.913.465-2.107.465-4.497.465H319.894c-2.39 0-3.584 0-4.498-.465a4.27 4.27 0 0 1-1.864-1.864c-.465-.913-.465-2.108-.465-4.497z"/><path fill="#9c9c9c" d="M485.614 22.693h4.041c.559 0 .834-.275.834-.884v-3.12c0-.55-.225-.83-.692-.875v-1.03c0-1.583-1.054-2.345-2.163-2.345-1.107 0-2.162.762-2.162 2.345v1.042c-.433.067-.691.342-.691.862v3.121c0 .609.274.884.833.884m.658-5.984c0-.97.617-1.504 1.362-1.504.742 0 1.363.534 1.363 1.504v1.096l-2.725.004z"/><path fill="#4c4c4c" d="M496.048 15.259h1.143l3.607 5.784V15.26h.919v7.14h-1.084l-3.661-5.78v5.78h-.924zm9.145 6.577q.87 0 1.191-.656.325-.661.325-1.468 0-.73-.234-1.187-.369-.72-1.273-.72-.802 0-1.166.613-.366.613-.365 1.478 0 .831.365 1.386.364.555 1.157.554m.034-4.793q1.005 0 1.701.67.695.672.695 1.974 0 1.26-.613 2.08-.612.822-1.9.822-1.075 0-1.707-.724-.632-.73-.632-1.954 0-1.313.666-2.09.666-.778 1.79-.778m3.466.15h.831v.9q.101-.262.501-.637a1.3 1.3 0 0 1 1.001-.374l.199.019v.924a1.3 1.3 0 0 0-.287-.025q-.661 0-1.016.428a1.47 1.47 0 0 0-.355.977V22.4h-.874zm3.845 2.664q0 .837.354 1.4.355.564 1.138.564.608 0 .996-.52.394-.524.394-1.502 0-.987-.403-1.458-.403-.477-.997-.477a1.32 1.32 0 0 0-1.074.506q-.409.506-.408 1.487m1.317-2.756q.597 0 1.002.253.233.145.529.51v-2.63h.841V22.4h-.787v-.725q-.306.482-.725.695a2.1 2.1 0 0 1-.957.214q-.87 0-1.507-.729-.637-.734-.637-1.95 0-1.136.579-1.968.583-.836 1.662-.836m3.879-1.842h3.213q.952 0 1.536.54.583.534.583 1.506 0 .837-.52 1.459-.52.617-1.599.617h-2.245V22.4h-.968zm4.355 2.051q0-.787-.583-1.07-.32-.15-.88-.15h-1.924v2.474h1.924q.652 0 1.055-.277.408-.277.408-.977m2.747 3.704q0 .38.277.598.278.219.656.219.462 0 .895-.214.729-.355.729-1.162v-.705a1.5 1.5 0 0 1-.413.17 3.5 3.5 0 0 1-.496.098l-.53.068q-.477.063-.715.2-.403.227-.403.728m2.119-1.77q.303-.038.404-.252a.8.8 0 0 0 .059-.335q0-.448-.322-.647-.315-.204-.909-.204-.684 0-.972.37-.16.204-.209.607h-.816q.024-.962.622-1.337.603-.38 1.395-.379.92 0 1.492.35.569.35.569 1.089v3q0 .135.053.218.059.083.239.083.058 0 .131-.005l.155-.024v.646a2.4 2.4 0 0 1-.311.073q-.106.015-.291.015-.453 0-.656-.321a1.2 1.2 0 0 1-.151-.482q-.268.35-.768.608a2.4 2.4 0 0 1-1.104.258q-.724 0-1.186-.438a1.48 1.48 0 0 1-.457-1.103q0-.724.452-1.123.453-.4 1.186-.491zm3.272 1.522q.039.438.219.671.33.423 1.147.423.486 0 .856-.209a.71.71 0 0 0 .369-.656.56.56 0 0 0-.297-.51q-.189-.108-.748-.248l-.695-.175q-.667-.165-.982-.37-.564-.355-.564-.982 0-.738.529-1.196.535-.456 1.435-.457 1.176 0 1.697.69a1.5 1.5 0 0 1 .315.944h-.826a1 1 0 0 0-.209-.54q-.301-.345-1.045-.345-.496 0-.754.19a.6.6 0 0 0-.253.5q0 .34.336.545.194.12.574.213l.578.141q.943.229 1.264.443.51.335.51 1.055 0 .695-.53 1.2-.524.506-1.604.506-1.161 0-1.647-.525-.482-.53-.516-1.308zm4.978 0q.04.438.218.671.331.423 1.148.423.486 0 .855-.209a.71.71 0 0 0 .37-.656.56.56 0 0 0-.297-.51q-.189-.108-.748-.248l-.696-.175q-.665-.165-.982-.37-.563-.355-.564-.982.001-.738.53-1.196.535-.456 1.435-.457 1.176 0 1.696.69.325.438.316.944h-.826a1 1 0 0 0-.209-.54q-.302-.345-1.046-.345-.495 0-.753.19a.6.6 0 0 0-.253.5q0 .34.336.545.193.12.574.213l.578.141q.943.229 1.263.443.511.335.511 1.055 0 .695-.53 1.2-.524.506-1.604.506-1.16 0-1.648-.525-.481-.53-.515-1.308z"/><path fill="#787878" d="M701.924 17.588a.38.38 0 0 0 .291-.117l1.709-1.72a.42.42 0 0 0 0-.613l-1.709-1.738a.37.37 0 0 0-.291-.125.41.41 0 0 0-.404.417.4.4 0 0 0 .112.283l.996.975a4 4 0 0 0-.596-.045 3.7 3.7 0 0 0-3.712 3.716 3.72 3.72 0 0 0 3.725 3.73 3.716 3.716 0 0 0 3.724-3.73.41.41 0 0 0-.424-.429c-.242 0-.405.18-.405.43 0 1.608-1.287 2.9-2.895 2.9a2.89 2.89 0 0 1-2.896-2.9 2.875 2.875 0 0 1 2.883-2.905c.271 0 .521.02.742.058l-1.138 1.125a.38.38 0 0 0-.116.28c0 .229.179.408.404.408"/><path fill="#717171" d="M296.711 24.178a.9.9 0 0 0 .412-.12c3.389-1.858 4.566-2.72 4.566-4.882V14.69c0-.713-.277-.969-.865-1.224-.653-.28-2.848-1.051-3.489-1.271a2 2 0 0 0-.624-.107c-.2 0-.429.053-.623.107-.642.184-2.836.998-3.49 1.271-.588.25-.865.51-.865 1.224v4.485c0 2.162 1.183 3.012 4.561 4.883a.9.9 0 0 0 .417.119m.318-10.89c.771.31 2.448.91 3.33 1.225.165.065.206.154.206.368v4.075c0 1.74-.865 2.21-3.518 3.826-.165.1-.248.136-.33.136v-9.694a1 1 0 0 1 .312.065"/><path fill="#558cff" d="M278.623 23.014a7.111 7.111 0 1 0-12.535 0l3.121-5.11 1.658 2.854-.458-2.128 1.945-3.308 3.156 5.443-.455-2.116.444-.753z"/><path fill="#000" fill-opacity=".05" d="M1024 36.267H0v1.422h1024z"/><g filter="url(#f)"><path fill="#fff" d="M992.711 54.045h-256c-7.855 0-14.222 6.367-14.222 14.222v254.578c0 7.855 6.367 14.222 14.222 14.222h256c7.859 0 14.219-6.367 14.219-14.222V68.267c0-7.855-6.36-14.222-14.219-14.222"/><path fill="#0caaab" fill-rule="evenodd" d="M742.869 89.956a10.08 10.08 0 0 1-1.891-5.892c0-5.543 4.458-10.037 9.955-10.037s9.956 4.494 9.956 10.037a10.07 10.07 0 0 1-1.892 5.892l-4.786-7.828-.462.785.469 2.186-3.285-5.667-2.034 3.46.477 2.207-1.721-2.967z" clip-rule="evenodd"/><path fill="#f0f2f5" d="M944.356 71.111h-17.067c-6.284 0-11.378 5.094-11.378 11.378s5.094 11.378 11.378 11.378h17.067c6.283 0 11.377-5.094 11.377-11.378s-5.094-11.378-11.377-11.378"/><path fill="#44474e" d="M948.715 80.935c0 .16-.064.292-.171.403l-3.691 3.782a.62.62 0 0 1-.455.2.6.6 0 0 1-.448-.2l-3.698-3.782a.56.56 0 0 1-.163-.403c0-.326.256-.579.576-.579a.6.6 0 0 1 .412.175l3.328 3.408 3.314-3.408a.6.6 0 0 1 .42-.175c.32 0 .576.253.576.579"/><path fill="#5062f6" d="M935.822 82.49a8.534 8.534 0 1 0-17.066.001 8.534 8.534 0 0 0 17.066-.002"/><path fill="#fff" d="M921.01 88.27c1.088-1.586 3.292-3.001 6.272-3.001 2.986 0 5.198 1.415 6.286 3.002a8.53 8.53 0 0 1-6.279 2.752 8.53 8.53 0 0 1-6.279-2.752m9.621-8.203c0 2.093-1.55 3.702-3.335 3.702-1.799 0-3.342-1.609-3.342-3.686 0-2.052 1.55-3.618 3.342-3.618 1.785 0 3.335 1.533 3.335 3.602" opacity=".3"/><path fill="#fff" d="M924.38 86.215c-1.294 0-2.055-.793-2.112-1.91l-.007-.059h1.074l.007.044c.043.534.377.953 1.031.953.718 0 1.109-.433 1.109-1.23V79.03h1.089v4.992c0 1.381-.811 2.193-2.191 2.193m5.647-.068c-1.273 0-2.084-.598-2.184-1.483v-.005h1.053l.007.005c.128.399.512.666 1.138.666.654 0 1.109-.296 1.109-.729v-.01c0-.33-.249-.554-.86-.695l-.847-.194c-.995-.229-1.457-.681-1.457-1.454v-.005c0-.919.86-1.58 2.055-1.58 1.202 0 1.977.603 2.069 1.463v.005h-1.01v-.01c-.099-.369-.476-.646-1.066-.646-.576 0-.996.287-.996.71v.01c0 .33.242.535.839.675l.832.19c1.017.238 1.501.67 1.501 1.434v.01c0 .977-.932 1.643-2.183 1.643m59.484-3.658c0-6.087-4.935-11.022-11.022-11.022s-11.023 4.935-11.023 11.022 4.935 11.022 11.023 11.022c6.087 0 11.022-4.935 11.022-11.022"/><path fill="#44474e" d="M974.634 85.54a.577.577 0 0 0 0 .801.584.584 0 0 0 .804.005l3.051-3.052 3.05 3.052a.58.58 0 0 0 .804-.005.583.583 0 0 0 0-.802l-3.051-3.051 3.051-3.047a.583.583 0 0 0 0-.803c-.228-.214-.59-.219-.804-.004l-3.05 3.052-3.051-3.052a.58.58 0 0 0-.804.004.583.583 0 0 0 0 .803l3.051 3.047z"/><path stroke="#b9babd" d="M989.511 82.489c0-6.087-4.935-11.022-11.022-11.022s-11.023 4.935-11.023 11.022 4.935 11.022 11.023 11.022c6.087 0 11.022-4.935 11.022-11.022Z"/><path fill="#000" d="M746.062 111.388a1.26 1.26 0 0 0-.519-.95c-.306-.226-.718-.338-1.244-.338-.356 0-.662.05-.903.151a1.3 1.3 0 0 0-.569.409 1 1 0 0 0-.192.596.84.84 0 0 0 .121.485 1.2 1.2 0 0 0 .355.359c.149.098.327.183.526.257.199.071.413.132.633.182l.932.223c.448.101.867.235 1.244.404q.565.252.982.62.405.37.64.869.234.5.234 1.147-.002.95-.483 1.647c-.32.46-.775.819-1.373 1.075q-.894.378-2.162.379-1.248 0-2.176-.384c-.618-.256-1.102-.635-1.443-1.137q-.52-.757-.54-1.873h2.111q.033.52.299.869c.178.229.42.402.711.519q.45.173 1.017.173.553 0 .967-.162.406-.162.64-.45.226-.287.228-.661a.87.87 0 0 0-.206-.586q-.203-.237-.598-.404a6 6 0 0 0-.953-.303l-1.13-.283q-1.304-.318-2.063-.995c-.504-.451-.76-1.059-.753-1.823a2.7 2.7 0 0 1 .497-1.642q.514-.701 1.401-1.095.888-.394 2.02-.394 1.15 0 2.012.394.864.394 1.344 1.095.48.702.491 1.627zm5.739 7.515q-.736 0-1.323-.258a2.15 2.15 0 0 1-.917-.773q-.333-.514-.334-1.282-.002-.647.241-1.086.235-.44.64-.707a3.2 3.2 0 0 1 .932-.404 7 7 0 0 1 1.102-.192c.448-.048.818-.091 1.088-.132.278-.043.477-.107.605-.192a.43.43 0 0 0 .185-.373v-.031q0-.48-.299-.742t-.853-.262c-.384 0-.697.085-.925.257a1.22 1.22 0 0 0-.455.637l-1.984-.162q.152-.707.59-1.222a2.9 2.9 0 0 1 1.152-.798q.706-.283 1.636-.283.64 0 1.237.151.596.152 1.053.47.466.318.732.818.269.494.27 1.187v5.232h-2.041v-1.076h-.064c-.12.243-.291.457-.497.642a2.3 2.3 0 0 1-.754.429 3.1 3.1 0 0 1-1.017.152m.619-1.485c.32 0 .597-.063.839-.187q.363-.192.569-.515c.142-.215.206-.46.206-.732v-.824a1 1 0 0 1-.278.122 6 6 0 0 1-.383.096c-.15.026-.292.052-.441.075l-.392.056a2.7 2.7 0 0 0-.661.177q-.279.12-.441.328a.83.83 0 0 0-.156.505q0 .439.32.671c.213.152.49.228.818.228m12.231-6.419-2.71 7.757h-2.425l-2.709-7.757h2.269l1.614 5.55h.078l1.607-5.55zm4.245 7.909q-1.196 0-2.062-.485a3.36 3.36 0 0 1-1.323-1.384q-.46-.899-.462-2.126.001-1.198.462-2.101a3.46 3.46 0 0 1 1.309-1.409q.85-.505 1.991-.505.768 0 1.429.247c.448.162.832.406 1.166.733.327.326.59.737.775 1.232q.278.737.278 1.727v.591h-6.55v-1.333h4.523q.002-.465-.199-.823a1.44 1.44 0 0 0-.562-.561 1.6 1.6 0 0 0-.825-.207c-.327 0-.611.076-.867.227a1.54 1.54 0 0 0-.583.601q-.212.375-.221.833v1.268q0 .576.213.995.216.42.612.647t.932.227q.362 0 .661-.102.29-.099.505-.303a1.4 1.4 0 0 0 .327-.494l1.991.131a2.8 2.8 0 0 1-.626 1.252c-.306.354-.711.63-1.202.829-.483.195-1.052.293-1.692.293m10.126-10.495v10.343h-2.154v-10.343zm5.085 10.495c-.783 0-1.465-.167-2.034-.5a3.4 3.4 0 0 1-1.316-1.404q-.47-.905-.469-2.096 0-1.203.469-2.101a3.35 3.35 0 0 1 1.316-1.404c.569-.337 1.251-.505 2.034-.505s1.465.168 2.033.505q.854.5 1.323 1.404.46.898.462 2.101-.002 1.191-.462 2.096a3.46 3.46 0 0 1-1.323 1.404c-.568.333-1.251.5-2.033.5m.014-1.667q.535 0 .889-.303c.242-.206.419-.485.54-.838q.192-.53.192-1.207 0-.678-.192-1.208c-.121-.353-.298-.633-.54-.838q-.354-.308-.889-.308c-.363 0-.669.103-.91.308a1.93 1.93 0 0 0-.555.838 3.7 3.7 0 0 0-.178 1.208q-.002.676.178 1.207.192.53.555.838c.241.202.547.303.91.303m8.555 4.586q-1.046 0-1.792-.288c-.491-.189-.889-.446-1.181-.772a2.4 2.4 0 0 1-.569-1.102l1.991-.267c.057.155.157.299.285.434s.306.243.519.323q.328.127.796.127.703 0 1.159-.344c.306-.225.463-.604.463-1.136v-1.42h-.093a2 2 0 0 1-.426.612 2.1 2.1 0 0 1-.726.469c-.298.122-.647.182-1.059.182a3.2 3.2 0 0 1-1.593-.404q-.714-.41-1.138-1.248c-.277-.561-.42-1.272-.42-2.131q-.001-1.319.434-2.201.426-.885 1.138-1.324a2.95 2.95 0 0 1 1.572-.439q.65 0 1.088.222.446.218.711.545c.177.216.32.428.419.637h.078v-1.303h2.141v7.833q0 .99-.491 1.657-.482.667-1.337.999c-.569.227-1.23.339-1.969.339m.049-4.798c.342 0 .64-.086.875-.257a1.64 1.64 0 0 0 .555-.748q.2-.49.199-1.172 0-.681-.192-1.182-.192-.504-.555-.782a1.42 1.42 0 0 0-.882-.278q-.533 0-.896.287c-.241.19-.426.452-.547.788a3.3 3.3 0 0 0-.192 1.167q0 .672.192 1.162c.128.323.306.574.547.753q.363.262.896.262m5.312 1.727v-7.757h2.155v7.757zm1.081-8.757q-.478 0-.818-.319a1.03 1.03 0 0 1-.341-.772q0-.444.341-.763.34-.323.818-.323c.32 0 .598.108.818.323a.99.99 0 0 1 .348.763c0 .3-.113.557-.348.772-.22.213-.498.319-.818.319m4.807 4.272v4.485h-2.154v-7.757h2.055v1.369h.085a2.2 2.2 0 0 1 .868-1.071q.608-.399 1.472-.399.8 0 1.408.353.599.354.931 1.01.333.652.335 1.556v4.939h-2.155v-4.555q.01-.713-.363-1.112c-.242-.269-.583-.403-1.01-.403q-.436 0-.768.187a1.3 1.3 0 0 0-.519.545q-.183.353-.185.853m12.559 4.612a2.9 2.9 0 0 1-1.6-.455q-.716-.46-1.131-1.348-.414-.894-.413-2.192 0-1.334.427-2.217.43-.89 1.145-1.329a2.93 2.93 0 0 1 1.572-.444c.433 0 .796.074 1.08.222q.447.218.712.545c.177.216.32.428.412.637h.064v-3.889h2.148v10.343h-2.12v-1.242h-.092q-.15.324-.427.641a2.2 2.2 0 0 1-.711.52q-.437.208-1.066.208m.682-1.712c.349 0 .64-.095.882-.283q.363-.288.555-.803a3.5 3.5 0 0 0 .199-1.208q0-.692-.192-1.202-.192-.509-.555-.787a1.44 1.44 0 0 0-.889-.278c-.348 0-.647.095-.889.287-.249.192-.426.458-.554.799q-.183.51-.185 1.181.002.678.185 1.198.192.514.554.808c.242.192.541.288.889.288m8.896 1.737q-1.196 0-2.062-.485a3.36 3.36 0 0 1-1.323-1.384c-.305-.599-.462-1.308-.462-2.126 0-.798.157-1.499.462-2.101a3.46 3.46 0 0 1 1.309-1.409q.852-.505 1.991-.505.768 0 1.429.247c.441.162.832.406 1.159.733q.504.49.783 1.232.276.737.277 1.727v.591h-6.549v-1.333h4.522c0-.31-.071-.585-.199-.823a1.5 1.5 0 0 0-.562-.561 1.6 1.6 0 0 0-.825-.207q-.492 0-.867.227a1.65 1.65 0 0 0-.804 1.434v1.268q0 .576.214.995.215.42.611.647c.263.151.569.227.932.227.242 0 .455-.034.654-.102q.299-.099.512-.303.213-.201.32-.494l1.991.131a2.7 2.7 0 0 1-.619 1.252q-.467.53-1.201.829-.735.293-1.693.293m8.946-7.909v1.616h-4.672v-1.616zm-3.605-1.859h2.147v7.233q-.002.297.093.464a.5.5 0 0 0 .249.228q.17.065.384.065.158 0 .305-.025.15-.03.235-.045l.334 1.6a5 5 0 0 1-.455.116 3.5 3.5 0 0 1-.711.086q-.779.03-1.365-.207a1.94 1.94 0 0 1-.903-.737q-.322-.501-.313-1.263zm7.082 9.763q-.746 0-1.322-.258a2.14 2.14 0 0 1-.925-.773q-.332-.514-.334-1.282c0-.431.078-.793.242-1.086q.233-.44.647-.707c.27-.179.583-.314.924-.404a7 7 0 0 1 1.103-.192 28 28 0 0 0 1.095-.132c.27-.043.476-.107.597-.192.128-.084.185-.208.185-.373v-.031q0-.48-.299-.742-.298-.262-.853-.262-.575 0-.924.257a1.17 1.17 0 0 0-.448.637l-1.992-.162q.15-.707.598-1.222a2.8 2.8 0 0 1 1.145-.798q.705-.283 1.635-.283.64 0 1.237.151c.399.101.747.258 1.053.47q.468.318.732.818c.178.33.271.725.271 1.187v5.232h-2.041v-1.076h-.064a2.1 2.1 0 0 1-.498.642 2.2 2.2 0 0 1-.754.429 3.1 3.1 0 0 1-1.01.152m.612-1.485q.478 0 .839-.187.365-.192.569-.515a1.3 1.3 0 0 0 .213-.732v-.824a1.2 1.2 0 0 1-.284.122 6 6 0 0 1-.384.096q-.223.04-.434.075l-.398.056a2.7 2.7 0 0 0-.662.177c-.184.08-.334.19-.44.328a.83.83 0 0 0-.157.505q0 .439.32.671c.213.152.491.228.818.228m5.283 1.338v-7.757h2.148v7.757zm1.081-8.757q-.482 0-.825-.319a1.03 1.03 0 0 1-.341-.772q0-.444.341-.763.343-.323.825-.323.479 0 .818.323.342.319.342.763 0 .45-.342.772a1.15 1.15 0 0 1-.818.319m4.8-1.586v10.343h-2.147v-10.343zm8.036 4.798-1.97.121a1.1 1.1 0 0 0-.213-.454 1.2 1.2 0 0 0-.441-.329 1.5 1.5 0 0 0-.64-.126c-.334 0-.619.071-.846.212q-.342.208-.342.555a.59.59 0 0 0 .221.47q.225.192.761.308l1.408.283q1.13.232 1.685.748.555.514.555 1.353 0 .763-.448 1.338-.447.576-1.223.9c-.512.212-1.11.318-1.785.318q-1.536 0-2.454-.642a2.5 2.5 0 0 1-1.066-1.758l2.119-.11q.098.47.462.717.372.242.946.243.567 0 .91-.218.343-.223.356-.57a.62.62 0 0 0-.249-.48q-.246-.192-.747-.293l-1.344-.268q-1.14-.227-1.692-.788-.555-.56-.555-1.429 0-.748.405-1.288.407-.54 1.145-.833c.498-.196 1.074-.293 1.742-.293.975 0 1.75.207 2.311.621q.851.621.989 1.692m3.235 2.444v-.171c.008-.59.057-1.059.164-1.41q.15-.525.448-.848c.199-.215.441-.411.718-.586.214-.134.398-.274.562-.419q.248-.218.398-.48a1.3 1.3 0 0 0 .142-.596 1.15 1.15 0 0 0-.163-.611 1.1 1.1 0 0 0-.455-.404 1.4 1.4 0 0 0-1.238.005 1.2 1.2 0 0 0-.476.424q-.19.278-.199.692h-2.062c.014-.673.178-1.229.483-1.667q.459-.66 1.216-.984a4.2 4.2 0 0 1 1.671-.328c.669 0 1.266.111 1.778.332.519.22.917.538 1.216.956q.436.626.434 1.509 0 .591-.192 1.051a2.6 2.6 0 0 1-.541.808 4 4 0 0 1-.824.632 3.3 3.3 0 0 0-.655.494q-.255.258-.384.596a2.6 2.6 0 0 0-.121.834v.171zm1.003 3.233c-.334 0-.626-.118-.86-.354a1.15 1.15 0 0 1-.349-.859c-.007-.33.114-.613.349-.848.234-.236.526-.353.86-.353.32 0 .605.117.846.353q.361.353.37.848a1.2 1.2 0 0 1-.178.611 1.4 1.4 0 0 1-.441.44 1.16 1.16 0 0 1-.597.162"/><path fill="#f0f2f5" d="M986.311 136.534h-243.2a3.556 3.556 0 0 0-3.555 3.556v28.444a3.556 3.556 0 0 0 3.555 3.556h243.2a3.556 3.556 0 0 0 3.556-3.556V140.09a3.556 3.556 0 0 0-3.556-3.556"/><path fill="#383c43" d="M754.731 157.026v7.241h-1.01l-3.677-5.31h-.071v5.31h-1.088v-7.241h1.01l3.684 5.317h.071v-5.317zm3.69 7.35c-.505 0-.953-.116-1.329-.349a2.35 2.35 0 0 1-.882-.98c-.214-.419-.313-.91-.313-1.47 0-.564.099-1.056.313-1.479a2.35 2.35 0 0 1 .882-.982c.376-.234.824-.35 1.329-.35q.77 0 1.337.35c.377.234.676.561.882.982.213.423.313.915.313 1.479 0 .56-.1 1.051-.313 1.47a2.35 2.35 0 0 1-.882.98q-.567.35-1.337.349m.007-.887c.328 0 .605-.087.818-.262.221-.174.377-.406.484-.696a2.8 2.8 0 0 0 .156-.958q.001-.52-.156-.955a1.56 1.56 0 0 0-.484-.703c-.213-.177-.49-.265-.818-.265q-.502 0-.825.265c-.22.177-.384.411-.483.703q-.159.435-.157.955-.002.523.157.958c.099.29.263.522.483.696q.322.262.825.262m3.606.778v-5.43h1.024v.862h.057c.099-.292.27-.522.526-.689q.373-.255.853-.255.096 0 .235.007t.213.018v1.011a2 2 0 0 0-.227-.039 2 2 0 0 0-.327-.025q-.374 0-.662.159a1.16 1.16 0 0 0-.462.436 1.17 1.17 0 0 0-.171.629v3.316zm5.561.106q-.65 0-1.174-.336a2.26 2.26 0 0 1-.803-.965c-.192-.419-.292-.923-.292-1.509 0-.588.1-1.09.292-1.507q.297-.626.818-.957a2.1 2.1 0 0 1 1.166-.333q.51 0 .817.17c.207.111.363.24.477.389q.173.221.27.392h.064v-2.691h1.06v7.241h-1.039v-.845h-.085a3 3 0 0 1-.277.396 1.5 1.5 0 0 1-.484.388c-.213.111-.476.167-.81.167m.234-.902q.459 0 .768-.24.322-.244.484-.675c.114-.288.163-.622.163-1.004 0-.377-.049-.708-.156-.99a1.5 1.5 0 0 0-.484-.661c-.206-.158-.469-.237-.775-.237q-.478 0-.796.247c-.214.165-.37.391-.477.676a2.8 2.8 0 0 0-.163.965c0 .363.057.689.163.979q.162.435.484.689.32.251.789.251m3.954.796v-7.241h2.581c.562 0 1.024.103 1.394.308q.555.307.832.842.277.53.277 1.194 0 .668-.277 1.203a2 2 0 0 1-.839.841c-.37.205-.832.307-1.394.307h-1.778v-.926h1.679c.355 0 .647-.061.867-.184q.331-.186.491-.509.149-.321.149-.732 0-.41-.149-.728a1.13 1.13 0 0 0-.498-.498q-.33-.18-.874-.18h-1.373v6.303zm7.716.12q-.524 0-.939-.19a1.6 1.6 0 0 1-.661-.563q-.235-.367-.235-.902 0-.459.171-.756c.12-.198.277-.354.483-.47q.297-.174.669-.262.37-.089.753-.134l.797-.092q.3-.039.441-.124.137-.085.135-.276v-.024q0-.463-.256-.718-.265-.254-.775-.255-.532 0-.839.237a1.24 1.24 0 0 0-.42.52l-.996-.226q.18-.495.52-.8.342-.307.782-.445.447-.141.938-.141c.221 0 .448.026.69.078q.372.074.69.275c.213.135.384.327.526.577q.2.37.199.965v3.606h-1.031v-.742h-.042c-.064.136-.171.27-.306.403a1.6 1.6 0 0 1-.526.328q-.321.131-.768.131m.227-.848a1.5 1.5 0 0 0 .747-.174 1.17 1.17 0 0 0 .476-.452q.171-.282.171-.604v-.701a.6.6 0 0 1-.221.107q-.16.045-.362.081l-.398.06-.328.042q-.308.04-.561.131a.94.94 0 0 0-.406.265.66.66 0 0 0-.149.453c0 .261.1.46.292.593q.29.2.739.199m7.829-3.377-.96.17a1.2 1.2 0 0 0-.192-.35.94.94 0 0 0-.348-.272 1.2 1.2 0 0 0-.548-.107q-.447 0-.746.202-.299.198-.299.513-.002.272.199.438.201.167.647.273l.868.197c.498.116.867.294 1.116.534.242.241.37.553.37.937 0 .325-.099.616-.284.87q-.279.378-.783.594a2.9 2.9 0 0 1-1.159.215q-.908 0-1.486-.389-.576-.392-.704-1.113l1.017-.156a.98.98 0 0 0 .398.605c.192.135.455.202.768.202q.523 0 .832-.216.312-.219.313-.534a.55.55 0 0 0-.192-.428q-.182-.173-.576-.261l-.917-.202q-.76-.173-1.124-.551-.362-.379-.362-.959.001-.48.27-.841.268-.36.739-.562c.32-.137.676-.205 1.088-.205q.875 0 1.387.382.5.378.668 1.014m5.234 0-.953.17a1.2 1.2 0 0 0-.192-.35.94.94 0 0 0-.348-.272 1.25 1.25 0 0 0-.548-.107q-.447 0-.746.202c-.207.132-.306.303-.306.513q.002.272.206.438c.128.111.349.202.647.273l.861.197c.505.116.874.294 1.116.534q.372.361.37.937.002.488-.285.87a1.8 1.8 0 0 1-.775.594 2.9 2.9 0 0 1-1.159.215c-.611 0-1.102-.129-1.486-.389a1.64 1.64 0 0 1-.711-1.113l1.024-.156q.094.4.391.605.297.202.775.202.523 0 .832-.216.311-.219.313-.534a.55.55 0 0 0-.192-.428q-.192-.173-.576-.261l-.924-.202q-.76-.173-1.124-.551-.354-.379-.355-.959c0-.32.085-.601.263-.841.184-.24.426-.428.746-.562a2.7 2.7 0 0 1 1.081-.205q.885 0 1.387.382.51.378.668 1.014"/><path fill="#8a8c91" d="M748.466 144.644v-.805h4.8v.805h-1.934v5.401h-.932v-5.401zm5.703 5.401v-4.655h.91v4.655zm.462-5.373a.55.55 0 0 1-.405-.158.5.5 0 0 1-.171-.382.5.5 0 0 1 .171-.381.55.55 0 0 1 .405-.161q.237 0 .398.161a.5.5 0 0 1 .171.381.5.5 0 0 1-.171.382.54.54 0 0 1-.398.158m3.755.718v.727h-2.546v-.727zm-1.863-1.115h.903v4.403q0 .263.085.397.073.13.199.179.129.045.278.045.106 0 .192-.015l.128-.024.163.748a1.8 1.8 0 0 1-.59.097 1.6 1.6 0 0 1-.669-.127 1.14 1.14 0 0 1-.497-.412q-.192-.28-.192-.7zm3.783-.436v6.206h-.903v-6.206zm3.143 6.299c-.462 0-.853-.098-1.188-.293a2 2 0 0 1-.761-.834c-.177-.359-.27-.78-.27-1.263 0-.477.093-.897.27-1.261q.267-.545.747-.851a2.1 2.1 0 0 1 1.138-.307c.263 0 .512.044.761.131q.373.13.661.409.299.279.469.724.162.442.164 1.076v.321h-3.698v-.679h2.816q0-.357-.149-.633a1.15 1.15 0 0 0-.405-.439 1.16 1.16 0 0 0-.612-.161c-.256 0-.484.063-.668.188a1.26 1.26 0 0 0-.441.485q-.15.296-.15.645v.53q.002.467.164.795c.114.218.263.384.462.499q.3.17.697.17.256 0 .469-.073a1 1 0 0 0 .363-.224 1 1 0 0 0 .242-.367l.853.155a1.5 1.5 0 0 1-.37.664q-.255.281-.661.439a2.5 2.5 0 0 1-.903.154"/><path fill="#0ba1a2" d="M975.644 142.934h-11.377a5.69 5.69 0 0 0-5.689 5.688V160a5.69 5.69 0 0 0 5.689 5.689h11.377a5.69 5.69 0 0 0 5.689-5.689v-11.378a5.69 5.69 0 0 0-5.689-5.688"/><path fill="#fff" fill-rule="evenodd" d="M963.961 158.939a7.37 7.37 0 0 1-1.401-4.345c0-4.084 3.307-7.394 7.381-7.394 4.075 0 7.382 3.31 7.382 7.4a7.4 7.4 0 0 1-1.401 4.345l-3.549-5.774-.348.581.348 1.609-2.439-4.173-1.5 2.547.348 1.628-1.273-2.183z" clip-rule="evenodd"/><path fill="#f0f2f5" d="M986.311 177.778h-243.2a3.556 3.556 0 0 0-3.555 3.556v28.444a3.556 3.556 0 0 0 3.555 3.556h243.2a3.556 3.556 0 0 0 3.556-3.556v-28.444a3.556 3.556 0 0 0-3.556-3.556"/><path fill="#383c43" d="M749.39 199.289a.658.658 0 1 1-.006-1.318.658.658 0 0 1 .006 1.318m-1.188 8.031c-.078 0-.17-.005-.234-.005v-.865h.142c.54 0 .754-.185.754-.715v-5.503h1.045v5.508c0 1.084-.562 1.58-1.707 1.58m5.384-1.706c-1.551 0-2.496-1.035-2.496-2.737v-.01c0-1.696.952-2.736 2.496-2.736 1.543 0 2.496 1.035 2.496 2.736v.01c0 1.702-.946 2.737-2.496 2.737m0-.88c.91 0 1.422-.69 1.422-1.857v-.01c0-1.171-.512-1.857-1.422-1.857-.904 0-1.416.686-1.416 1.857v.01c0 1.171.512 1.857 1.416 1.857m3.704.778v-7.35h1.053v2.872h.078c.263-.563.768-.903 1.536-.903 1.181 0 1.828.704 1.828 1.963v3.418h-1.046v-3.17c0-.875-.369-1.308-1.137-1.308-.776 0-1.259.53-1.259 1.381v3.097zm5.874 0v-5.28h1.053v.802h.078c.256-.563.761-.903 1.529-.903 1.18 0 1.834.704 1.834 1.963v3.418h-1.052v-3.17c0-.875-.363-1.308-1.138-1.308-.768 0-1.251.53-1.251 1.381v3.097zm6.678.073a.7.7 0 0 1-.712-.706c0-.398.306-.709.712-.709s.711.311.711.709a.7.7 0 0 1-.711.706m4.153.029c-1.28 0-2.084-.598-2.184-1.483v-.005h1.053l.007.005c.128.399.512.666 1.138.666.654 0 1.109-.297 1.109-.729v-.01c0-.331-.249-.554-.86-.695l-.847-.195c-.995-.228-1.457-.68-1.457-1.453v-.005c0-.919.853-1.579 2.055-1.579 1.201 0 1.977.602 2.069 1.462v.005h-1.01v-.01c-.099-.369-.476-.646-1.066-.646-.576 0-.996.287-.996.71v.01c0 .33.242.534.832.675l.839.19c1.017.238 1.501.671 1.501 1.434v.01c0 .977-.932 1.643-2.183 1.643m3.342-.102v-5.28h1.059v.812h.078c.228-.578.747-.913 1.437-.913.718 0 1.23.374 1.465.943h.078c.27-.569.875-.943 1.614-.943 1.06 0 1.686.641 1.686 1.74v3.641h-1.053v-3.389c0-.729-.327-1.089-1.017-1.089-.675 0-1.116.501-1.116 1.138v3.34h-1.053v-3.496c0-.603-.391-.982-1.016-.982-.633 0-1.103.545-1.103 1.235v3.243zm9.337-6.223a.66.66 0 0 1-.662-.656c0-.365.299-.661.662-.661.362 0 .661.296.661.661 0 .36-.299.656-.661.656m-.527 6.223v-5.28h1.046v5.28zm4.48.034c-1.166 0-1.642-.408-1.642-1.425v-3.057h-.825v-.832h.825V198.9h1.073v1.332h1.138v.832h-1.138v2.804c0 .569.214.802.733.802.164 0 .256-.004.405-.019v.841c-.17.03-.37.054-.569.054m1.743-.034v-7.35h1.059v2.872h.078c.256-.563.761-.903 1.529-.903 1.181 0 1.835.704 1.835 1.963v3.418h-1.053v-3.17c0-.875-.362-1.308-1.137-1.308s-1.252.53-1.252 1.381v3.097zm9.912 1.108c-2.517 0-4.131-1.585-4.131-4.05v-.009c0-2.401 1.65-4.05 4.046-4.05 2.311 0 3.911 1.469 3.911 3.583v.01c0 1.57-.718 2.562-1.856 2.562-.576 0-1.009-.301-1.102-.769v-.029h-.085c-.206.497-.626.764-1.195.764-1.01 0-1.685-.826-1.685-2.057v-.01c0-1.176.675-1.992 1.671-1.992.505 0 .938.257 1.13.685h.086v-.588h.825v2.761c0 .341.185.54.512.54.576 0 .938-.725.938-1.843v-.009c0-1.755-1.294-2.936-3.2-2.936-1.891 0-3.242 1.414-3.242 3.407v.01c0 2.037 1.337 3.344 3.413 3.344.612 0 1.223-.083 1.515-.213v.675c-.42.136-.975.214-1.551.214m-.256-2.747c.612 0 1.003-.495 1.003-1.273v-.01c0-.778-.391-1.273-.995-1.273-.605 0-.96.476-.96 1.273v.01c0 .787.362 1.273.952 1.273m7.524 3.5c-1.344 0-2.169-.588-2.29-1.467l.007-.01h1.067v.01c.092.364.519.622 1.23.622.875 0 1.387-.409 1.387-1.128v-1.04h-.078c-.32.573-.903.894-1.629.894-1.358 0-2.19-1.045-2.19-2.533v-.01c0-1.507.839-2.571 2.212-2.571.739 0 1.308.365 1.614.958h.064v-.866h1.052v5.173c0 1.2-.945 1.968-2.446 1.968m-.014-2.989c.896 0 1.436-.681 1.436-1.668v-.009c0-.982-.547-1.673-1.436-1.673-.896 0-1.401.691-1.401 1.673v.009c0 .982.505 1.668 1.401 1.668m3.875 1.128v-5.28h1.06v.812h.078c.228-.578.747-.913 1.437-.913.718 0 1.23.374 1.465.943h.078c.27-.569.874-.943 1.614-.943 1.06 0 1.685.641 1.685 1.74v3.641h-1.052v-3.389c0-.729-.327-1.089-1.017-1.089-.676 0-1.116.501-1.116 1.138v3.34h-1.053v-3.496c0-.603-.391-.982-1.017-.982-.633 0-1.102.545-1.102 1.235v3.243zm10.24.087c-1.009 0-1.749-.612-1.749-1.57v-.01c0-.943.704-1.492 1.963-1.57l1.429-.083v-.466c0-.579-.363-.9-1.074-.9-.583 0-.967.214-1.095.588l-.007.02h-1.017l.007-.034c.128-.865.96-1.443 2.155-1.443 1.33 0 2.076.66 2.076 1.769v3.612h-1.045v-.749h-.078c-.313.535-.868.836-1.565.836m-.704-1.613c0 .485.413.772.982.772.789 0 1.365-.515 1.365-1.196v-.452l-1.287.083c-.725.044-1.06.306-1.06.783zm5.334-4.697a.658.658 0 1 1 0-1.317c.355 0 .661.296.661.661 0 .36-.306.656-.661.656m-.534 6.223v-5.28h1.053v5.28zm2.539 0v-7.35h1.052v7.35zm3.335.073a.7.7 0 0 1-.711-.706c0-.398.306-.709.711-.709s.711.311.711.709a.7.7 0 0 1-.711.706m4.26.029c-1.543 0-2.489-1.05-2.489-2.756v-.01c0-1.673.938-2.717 2.482-2.717 1.322 0 2.119.748 2.261 1.774v.024l-1.01.005v-.015c-.121-.52-.547-.909-1.244-.909-.882 0-1.415.7-1.415 1.838v.01c0 1.166.54 1.876 1.415 1.876.661 0 1.066-.302 1.237-.87l.007-.025h1.01l-.007.044c-.192 1.026-.946 1.731-2.247 1.731m5.589 0c-1.55 0-2.496-1.035-2.496-2.737v-.01c0-1.696.953-2.736 2.496-2.736s2.496 1.035 2.496 2.736v.01c0 1.702-.953 2.737-2.496 2.737m0-.88c.903 0 1.422-.69 1.422-1.857v-.01c0-1.171-.519-1.857-1.422-1.857-.91 0-1.422.686-1.422 1.857v.01c0 1.171.512 1.857 1.422 1.857m3.655.778v-5.28h1.053v.812h.078c.234-.578.746-.913 1.436-.913.726 0 1.23.374 1.465.943h.086c.263-.569.874-.943 1.607-.943 1.066 0 1.685.641 1.685 1.74v3.641h-1.045v-3.389c0-.729-.335-1.089-1.024-1.089-.669 0-1.117.501-1.117 1.138v3.34h-1.045v-3.496c0-.603-.398-.982-1.017-.982-.64 0-1.109.545-1.109 1.235v3.243z"/><path fill="#8a8c91" d="M748.843 191.29v-6.013h3.818v.805h-2.887v1.757h2.731v.776h-2.731v1.87h2.887v.805zm4.978 0v-4.525h.903v.695h.064c.206-.495.647-.783 1.237-.783.619 0 1.052.321 1.252.808h.071c.227-.487.753-.808 1.379-.808.917 0 1.451.55 1.451 1.492v3.121h-.903v-2.904c0-.626-.285-.933-.875-.933-.576 0-.953.428-.953.975v2.862h-.903v-2.996c0-.516-.334-.841-.867-.841-.548 0-.953.466-.953 1.058v2.779zm8.775.074c-.868 0-1.501-.524-1.501-1.345v-.009c0-.808.605-1.279 1.686-1.345l1.223-.071v-.4c0-.496-.313-.771-.925-.771-.498 0-.825.183-.938.504v.017h-.875l.007-.029c.107-.742.818-1.238 1.849-1.238 1.138 0 1.778.567 1.778 1.517v3.096h-.896v-.642h-.071c-.264.458-.74.716-1.337.716m-.605-1.383c0 .417.356.663.846.663.676 0 1.167-.442 1.167-1.025v-.388l-1.103.071c-.625.038-.91.263-.91.671zm4.573-4.025a.567.567 0 0 1-.569-.562.57.57 0 0 1 .569-.567.566.566 0 0 1 0 1.129m-.456 5.334v-4.525h.896v4.525zm2.177 0v-6.3h.903v6.3zm6.328.087c-1.329 0-2.147-.887-2.147-2.346v-.008c0-1.454.818-2.346 2.147-2.346 1.316 0 2.134.888 2.134 2.346v.008c0 1.459-.811 2.346-2.134 2.346m0-.754c.776 0 1.216-.592 1.216-1.592v-.008c0-1.004-.44-1.592-1.216-1.592-.782 0-1.223.588-1.223 1.592v.008c0 1.004.441 1.592 1.223 1.592m3.129.667v-4.525h.903v.683h.064c.164-.479.583-.763 1.188-.763.149 0 .306.022.398.042v.834a2.3 2.3 0 0 0-.483-.054c-.697 0-1.167.424-1.167 1.078v2.705zm8.114.146c-1.507 0-2.439-.896-2.439-2.217v-3.942h.932v3.871c0 .871.547 1.463 1.507 1.463s1.5-.592 1.5-1.463v-3.871h.932v3.942c0 1.321-.924 2.217-2.432 2.217m5.39-.059c-1.088 0-1.785-.513-1.87-1.271v-.004h.903l.007.004c.114.342.441.571.982.571.554 0 .945-.254.945-.625v-.008c0-.283-.213-.475-.739-.596l-.718-.166c-.861-.197-1.252-.584-1.252-1.246v-.005c0-.787.732-1.354 1.756-1.354 1.032 0 1.693.517 1.778 1.254v.004h-.867v-.008c-.086-.317-.406-.554-.918-.554-.49 0-.853.246-.853.609v.007c0 .284.213.459.718.58l.719.162c.867.204 1.287.575 1.287 1.23v.008c0 .837-.804 1.408-1.878 1.408m4.772 0c-1.323 0-2.126-.904-2.126-2.337v-.004c0-1.413.817-2.359 2.076-2.359 1.266 0 2.041.913 2.041 2.271v.316h-3.207c.014.867.491 1.372 1.237 1.372.576 0 .925-.288 1.031-.521l.015-.033.874-.005-.007.038c-.149.596-.775 1.262-1.934 1.262m-.043-3.958c-.619 0-1.081.42-1.159 1.2h2.297c-.071-.809-.526-1.2-1.138-1.2m3.022 3.871v-4.525h.904v.683h.071c.156-.479.583-.763 1.187-.763.142 0 .299.022.391.042v.834a2.3 2.3 0 0 0-.483-.054c-.697 0-1.166.424-1.166 1.078v2.705zm3.4 0v-4.525h.903v.688h.064c.227-.484.654-.776 1.315-.776 1.01 0 1.572.604 1.572 1.684v2.929h-.903v-2.717c0-.75-.313-1.12-.975-1.12s-1.073.453-1.073 1.183v2.654zm6.271.074c-.86 0-1.5-.524-1.5-1.345v-.009c0-.808.612-1.279 1.685-1.345l1.231-.071v-.4c0-.496-.313-.771-.925-.771-.505 0-.832.183-.938.504l-.008.017h-.867v-.029c.114-.742.825-1.238 1.856-1.238 1.13 0 1.778.567 1.778 1.517v3.096h-.896v-.642h-.072c-.27.458-.746.716-1.344.716m-.597-1.383c0 .417.356.663.839.663.676 0 1.174-.442 1.174-1.025v-.388l-1.11.071c-.618.038-.903.263-.903.671zm4.096 1.309v-4.525h.903v.695h.071c.199-.495.64-.783 1.231-.783.618 0 1.052.321 1.251.808h.071c.235-.487.754-.808 1.38-.808.917 0 1.451.55 1.451 1.492v3.121h-.904v-2.904c0-.626-.284-.933-.874-.933-.576 0-.953.428-.953.975v2.862h-.903v-2.996c0-.516-.335-.841-.868-.841-.547 0-.953.466-.953 1.058v2.779zm9.43.087c-1.323 0-2.127-.904-2.127-2.337v-.004c0-1.413.818-2.359 2.084-2.359 1.259 0 2.034.913 2.034 2.271v.316h-3.207c.021.867.49 1.372 1.237 1.372.583 0 .924-.288 1.038-.521l.014-.033.868-.005-.007.038c-.15.596-.775 1.262-1.934 1.262m-.043-3.958c-.612 0-1.081.42-1.159 1.2h2.297c-.071-.809-.519-1.2-1.138-1.2"/><path fill="#f0f2f5" d="M986.311 219.022h-243.2a3.556 3.556 0 0 0-3.555 3.556v28.444a3.556 3.556 0 0 0 3.555 3.556h243.2a3.556 3.556 0 0 0 3.556-3.556v-28.444a3.556 3.556 0 0 0-3.556-3.556"/><path fill="#383c43" d="M751.559 243.922v.009a1.09 1.09 0 0 1-1.095 1.099h-.007a1.095 1.095 0 0 1-1.103-1.099v-.009c0-.608.491-1.094 1.103-1.094h.007c.611 0 1.095.486 1.095 1.094m4.643 0v.009c0 .613-.476 1.099-1.095 1.099h-.007a1.09 1.09 0 0 1-1.095-1.099v-.009c0-.608.484-1.094 1.095-1.094h.007c.619 0 1.095.486 1.095 1.094m4.644 0v.009c0 .613-.476 1.099-1.088 1.099h-.014a1.09 1.09 0 0 1-1.095-1.099v-.009c0-.608.483-1.094 1.095-1.094h.014c.612 0 1.088.486 1.088 1.094m4.651 0v.009a1.09 1.09 0 0 1-1.095 1.099h-.015a1.09 1.09 0 0 1-1.095-1.099v-.009c0-.608.484-1.094 1.095-1.094h.015c.611 0 1.095.486 1.095 1.094m4.643 0v.009c0 .613-.483 1.099-1.095 1.099h-.007a1.095 1.095 0 0 1-1.102-1.099v-.009c0-.608.49-1.094 1.102-1.094h.007c.612 0 1.095.486 1.095 1.094m4.644 0v.009a1.09 1.09 0 0 1-1.095 1.099h-.007a1.095 1.095 0 0 1-1.103-1.099v-.009c0-.608.491-1.094 1.103-1.094h.007c.611 0 1.095.486 1.095 1.094m4.643 0v.009c0 .613-.476 1.099-1.095 1.099h-.007a1.09 1.09 0 0 1-1.095-1.099v-.009c0-.608.484-1.094 1.095-1.094h.007c.619 0 1.095.486 1.095 1.094m4.644 0v.009c0 .613-.477 1.099-1.088 1.099h-.014a1.09 1.09 0 0 1-1.095-1.099v-.009c0-.608.483-1.094 1.095-1.094h.014c.611 0 1.088.486 1.088 1.094m4.651 0v.009a1.09 1.09 0 0 1-1.096 1.099h-.014a1.09 1.09 0 0 1-1.095-1.099v-.009c0-.608.484-1.094 1.095-1.094h.014c.612 0 1.096.486 1.096 1.094m4.643 0v.009c0 .613-.483 1.099-1.095 1.099h-.007a1.09 1.09 0 0 1-1.102-1.099v-.009a1.09 1.09 0 0 1 1.102-1.094h.007c.612 0 1.095.486 1.095 1.094m4.644 0v.009a1.09 1.09 0 0 1-1.095 1.099h-.008a1.095 1.095 0 0 1-1.102-1.099v-.009c0-.608.491-1.094 1.102-1.094h.008c.611 0 1.095.486 1.095 1.094m4.643 0v.009c0 .613-.483 1.099-1.095 1.099h-.007a1.095 1.095 0 0 1-1.102-1.099v-.009c0-.608.491-1.094 1.102-1.094h.007c.612 0 1.095.486 1.095 1.094m4.644 0v.009c0 .613-.477 1.099-1.088 1.099h-.014a1.09 1.09 0 0 1-1.095-1.099v-.009c0-.608.483-1.094 1.095-1.094h.014c.611 0 1.088.486 1.088 1.094m4.651 0v.009a1.09 1.09 0 0 1-1.096 1.099h-.014a1.09 1.09 0 0 1-1.095-1.099v-.009c0-.608.484-1.094 1.095-1.094h.014c.612 0 1.096.486 1.096 1.094m4.643 0v.009c0 .613-.483 1.099-1.095 1.099h-.007a1.09 1.09 0 0 1-1.102-1.099v-.009a1.09 1.09 0 0 1 1.102-1.094h.007c.612 0 1.095.486 1.095 1.094"/><path fill="#8a8c91" d="M748.843 232.534v-6.012h2.339c1.181 0 1.999.791 1.999 1.97v.009c0 1.174-.818 1.979-1.999 1.979h-1.408v2.054zm2.112-5.225h-1.181v2.388h1.181c.803 0 1.273-.438 1.273-1.192v-.009c0-.749-.47-1.187-1.273-1.187m4.316 5.3c-.86 0-1.5-.525-1.5-1.346v-.008c0-.809.604-1.279 1.685-1.346l1.23-.071v-.4c0-.496-.313-.771-.931-.771-.498 0-.825.184-.932.504l-.007.017h-.867v-.029c.106-.742.824-1.237 1.848-1.237 1.138 0 1.778.567 1.778 1.516v3.096h-.889v-.641h-.071c-.27.458-.747.716-1.344.716m-.597-1.383c0 .416.348.662.839.662.675 0 1.173-.441 1.173-1.025v-.388l-1.109.072c-.626.037-.903.262-.903.67zm5.738 1.396c-1.088 0-1.784-.513-1.87-1.271v-.004h.903l.007.004c.114.341.441.571.982.571.554 0 .946-.255.946-.625v-.009c0-.283-.214-.475-.74-.596l-.718-.166c-.861-.196-1.252-.584-1.252-1.246v-.004c0-.787.733-1.354 1.757-1.354 1.031 0 1.692.516 1.777 1.254v.004h-.867v-.009c-.085-.316-.405-.554-.917-.554-.491 0-.854.246-.854.609v.008c0 .284.214.459.719.579l.718.163c.867.204 1.287.575 1.287 1.229v.009c0 .837-.804 1.408-1.878 1.408m4.431 0c-1.088 0-1.778-.513-1.87-1.271v-.004h.903l.007.004c.113.341.441.571.981.571.555 0 .946-.255.946-.625v-.009c0-.283-.213-.475-.74-.596l-.718-.166c-.853-.196-1.252-.584-1.252-1.246v-.004c0-.787.733-1.354 1.757-1.354 1.031 0 1.699.516 1.778 1.254v.004h-.868v-.009c-.085-.316-.405-.554-.91-.554-.498 0-.86.246-.86.609v.008c0 .284.213.459.718.579l.718.163c.868.204 1.287.575 1.287 1.229v.009c0 .837-.796 1.408-1.877 1.408m3.619-.088-1.251-4.525h.91l.811 3.492h.064l.938-3.492h.854l.931 3.492h.071l.811-3.492h.896l-1.245 4.525h-.931l-.939-3.375h-.071l-.931 3.375zm7.616.088c-1.33 0-2.14-.888-2.14-2.346v-.009c0-1.453.818-2.345 2.14-2.345s2.141.887 2.141 2.345v.009c0 1.458-.818 2.346-2.141 2.346m0-.755c.775 0 1.216-.592 1.216-1.591v-.009c0-1.004-.441-1.591-1.216-1.591s-1.216.587-1.216 1.591v.009c0 1.004.441 1.591 1.216 1.591m3.129.667v-4.525h.91v.684h.064c.164-.48.584-.763 1.188-.763.142 0 .306.021.398.042v.833a2.4 2.4 0 0 0-.49-.054c-.69 0-1.16.425-1.16 1.079v2.704zm4.871.075c-1.138 0-1.877-.913-1.877-2.333v-.009c0-1.433.725-2.337 1.877-2.337.619 0 1.145.308 1.387.796h.071v-2.492h.903v6.3h-.903v-.712h-.071c-.263.495-.754.787-1.387.787m.256-.771c.754 0 1.216-.595 1.216-1.562v-.009c0-.966-.469-1.562-1.216-1.562-.761 0-1.216.591-1.216 1.562v.009c0 .97.455 1.562 1.216 1.562"/><path fill="#44474e" d="M972.715 241.148c4.103 0 6.755-3.296 6.755-4.292 0-.997-2.652-4.288-6.755-4.288-4.032 0-6.749 3.291-6.749 4.288 0 .996 2.71 4.292 6.749 4.292m0-1.274c-2.916 0-5.127-2.357-5.127-3.018 0-.549 2.211-3.019 5.127-3.019s5.127 2.47 5.127 3.019c0 .661-2.212 3.018-5.127 3.018m.007-.617a2.41 2.41 0 0 0 2.403-2.401 2.39 2.39 0 0 0-2.403-2.402c-1.344 0-2.418 1.06-2.411 2.402a2.415 2.415 0 0 0 2.411 2.401m-.007-1.672a.735.735 0 0 1-.726-.729c0-.399.328-.729.726-.729.405 0 .732.33.732.729a.736.736 0 0 1-.732.729m-228.416 35.121a1.03 1.03 0 0 0-.463-.778c-.277-.186-.618-.279-1.038-.279q-.437 0-.768.141a1.2 1.2 0 0 0-.505.382.9.9 0 0 0-.178.548c0 .172.043.321.121.446q.129.187.32.315.201.123.434.208c.149.054.299.099.441.134l.704.184c.235.057.469.133.711.23.249.096.469.223.676.382q.311.237.505.587.192.35.192.837-.002.616-.313 1.093a2.17 2.17 0 0 1-.918.753q-.597.276-1.45.276-.813 0-1.401-.258-.599-.259-.932-.732-.339-.478-.37-1.132h1.096q.031.393.256.655.223.258.576.385.351.124.768.124c.312 0 .583-.049.824-.145q.363-.149.576-.411a1 1 0 0 0 .207-.618c0-.214-.057-.39-.185-.527a1.4 1.4 0 0 0-.491-.339 4.6 4.6 0 0 0-.697-.237l-.853-.233c-.583-.158-1.038-.391-1.38-.697q-.503-.459-.505-1.216 0-.625.342-1.093c.22-.31.533-.552.917-.724a3.15 3.15 0 0 1 1.308-.262q.738 0 1.295.258.565.258.896.711c.213.299.327.643.334 1.032zm3.335 2.114v3.224h-1.06v-7.24h1.045v2.694h.064a1.56 1.56 0 0 1 .584-.697q.395-.258 1.023-.258c.377 0 .697.077.975.23.284.154.498.382.654.686q.235.453.235 1.132v3.453h-1.06v-3.326c0-.398-.099-.708-.306-.927q-.309-.332-.853-.332c-.256 0-.476.053-.676.16q-.29.157-.462.466c-.114.203-.163.448-.163.735m7.118 3.334c-.512 0-.953-.117-1.337-.35a2.4 2.4 0 0 1-.882-.979c-.206-.42-.313-.91-.313-1.471 0-.564.107-1.056.313-1.478a2.4 2.4 0 0 1 .882-.983c.384-.233.825-.35 1.337-.35.505 0 .953.117 1.33.35.384.234.675.561.881.983q.32.632.32 1.478 0 .841-.32 1.471a2.3 2.3 0 0 1-.881.979c-.377.233-.825.35-1.33.35m0-.887c.334 0 .604-.087.825-.262.213-.174.377-.406.476-.696q.162-.435.164-.958-.002-.52-.164-.955a1.54 1.54 0 0 0-.476-.704c-.221-.177-.491-.265-.825-.265-.327 0-.605.088-.825.265a1.56 1.56 0 0 0-.484.704q-.158.435-.156.955-.002.523.156.958c.107.29.263.522.484.696.22.175.498.262.825.262m4.622.777-1.6-5.43h1.095l1.067 3.988h.05l1.066-3.988h1.095l1.06 3.971h.05l1.059-3.971h1.095l-1.6 5.43h-1.073l-1.103-3.92h-.085l-1.102 3.92zm9.472 0v-5.43h1.017v.884h.064q.171-.449.555-.7c.256-.169.569-.255.924-.255q.546 0 .91.255.375.255.548.7h.057q.202-.435.618-.693.429-.262 1.017-.262c.491 0 .889.155 1.202.463q.47.464.469 1.397v3.641h-1.052v-3.542q.001-.552-.306-.799a1.08 1.08 0 0 0-.718-.247c-.341 0-.612.106-.796.318-.192.209-.292.48-.292.809v3.461h-1.052v-3.609q0-.442-.278-.711-.268-.268-.718-.268-.298 0-.555.159a1.2 1.2 0 0 0-.405.434 1.35 1.35 0 0 0-.149.648v3.347zm10.987.11c-.505 0-.953-.117-1.33-.35a2.36 2.36 0 0 1-.889-.979q-.311-.63-.313-1.471.002-.846.313-1.478c.213-.422.505-.749.889-.983.377-.233.825-.35 1.33-.35.512 0 .953.117 1.337.35q.563.35.881.983.312.632.313 1.478-.001.841-.313 1.471a2.4 2.4 0 0 1-.881.979c-.384.233-.825.35-1.337.35m.007-.887q.489 0 .818-.262.321-.261.483-.696.159-.435.157-.958.002-.52-.157-.955a1.6 1.6 0 0 0-.483-.704q-.33-.265-.818-.265-.501 0-.832.265a1.6 1.6 0 0 0-.484.704c-.099.29-.156.608-.156.955 0 .348.057.668.156.958q.162.435.484.696.33.262.832.262m3.605.777v-5.43h1.024v.863h.057c.1-.292.27-.522.519-.69q.382-.254.861-.254a4 4 0 0 1 .448.025v1.011a2 2 0 0 0-.228-.039 2 2 0 0 0-.327-.025c-.249 0-.469.053-.669.159a1.14 1.14 0 0 0-.455.435q-.17.275-.17.63v3.315zm5.867.11q-.802 0-1.38-.343a2.37 2.37 0 0 1-.896-.972q-.308-.629-.306-1.474-.001-.835.306-1.471a2.45 2.45 0 0 1 .882-.994q.565-.356 1.323-.357.46 0 .889.152c.284.102.547.261.775.478a2.3 2.3 0 0 1 .54.844c.128.345.199.763.199 1.256v.374h-4.316v-.791h3.278a1.55 1.55 0 0 0-.171-.739 1.27 1.27 0 0 0-.476-.513 1.3 1.3 0 0 0-.711-.187q-.45 0-.782.219a1.45 1.45 0 0 0-.505.566 1.6 1.6 0 0 0-.178.753v.618q0 .545.192.926.19.383.54.584.342.198.811.198c.199 0 .377-.029.548-.085q.244-.088.426-.262a1.1 1.1 0 0 0 .278-.428l.995.181a1.8 1.8 0 0 1-.426.774q-.308.328-.776.513c-.313.12-.661.18-1.059.18m15.758-5.219c0 .16-.064.292-.171.403l-3.69 3.782a.62.62 0 0 1-.455.199.6.6 0 0 1-.448-.199l-3.698-3.782a.56.56 0 0 1-.164-.403c0-.326.256-.579.576-.579.157 0 .306.069.413.175l3.328 3.408 3.314-3.408a.6.6 0 0 1 .419-.175c.32 0 .576.253.576.579"/><path fill="#0caaab" d="M977.067 294.756H752.356c-6.873 0-12.445 5.571-12.445 12.444s5.572 12.445 12.445 12.445h224.711c6.873 0 12.444-5.572 12.444-12.445s-5.571-12.444-12.444-12.444"/><path fill="#fff" d="M858.012 305.418a1.03 1.03 0 0 0-.462-.778q-.414-.279-1.031-.279-.447 0-.775.141a1.2 1.2 0 0 0-.505.382.93.93 0 0 0-.178.548c0 .172.043.321.121.445q.126.188.327.315c.128.083.278.152.427.209.156.054.299.099.441.134l.711.184c.227.057.469.133.711.23.242.096.462.223.676.382.206.158.369.353.497.587s.199.512.199.837q0 .616-.32 1.093t-.917.753c-.398.184-.882.276-1.443.276-.548 0-1.01-.086-1.408-.259a2.2 2.2 0 0 1-.932-.731 2.14 2.14 0 0 1-.37-1.132h1.095q.033.393.256.655.225.258.576.385.35.123.776.124c.305 0 .583-.049.824-.145q.365-.149.569-.411a.95.95 0 0 0 .207-.618.77.77 0 0 0-.178-.527 1.3 1.3 0 0 0-.498-.339 4.5 4.5 0 0 0-.69-.237l-.86-.234c-.576-.157-1.039-.39-1.38-.696q-.503-.46-.505-1.216 0-.625.342-1.093a2.25 2.25 0 0 1 .917-.724 3.2 3.2 0 0 1 1.308-.262q.736 0 1.302.258c.377.172.668.409.889.711q.32.449.341 1.032zm3.855 5.459q-.515 0-.932-.191a1.6 1.6 0 0 1-.661-.563 1.64 1.64 0 0 1-.242-.901c0-.307.064-.558.178-.757q.18-.296.476-.47c.206-.115.427-.203.676-.262s.497-.103.753-.134l.797-.092q.3-.038.441-.123.137-.086.135-.276v-.025c0-.309-.085-.548-.263-.718q-.256-.254-.768-.254c-.356 0-.64.079-.839.236q-.31.235-.427.52l-.988-.226a1.9 1.9 0 0 1 .512-.799c.234-.205.49-.354.789-.445q.449-.142.939-.142c.213 0 .448.027.689.078.242.05.477.141.683.276.22.134.391.326.526.576.142.248.206.569.206.965v3.606h-1.031v-.742h-.042a1.4 1.4 0 0 1-.306.403 1.6 1.6 0 0 1-.526.329q-.32.13-.775.131m.234-.849a1.5 1.5 0 0 0 .747-.173q.318-.173.476-.453.171-.282.171-.604v-.7a.6.6 0 0 1-.22.106 3 3 0 0 1-.363.081c-.142.022-.27.042-.405.06l-.32.043a2.5 2.5 0 0 0-.562.131.94.94 0 0 0-.406.265.66.66 0 0 0-.149.452q.002.393.292.594c.192.132.441.198.739.198m8.206-4.702-1.969 5.43h-1.131l-1.97-5.43h1.131l1.379 4.179h.057l1.373-4.179zm3.051 5.54q-.801 0-1.379-.343a2.36 2.36 0 0 1-.896-.972c-.207-.42-.306-.911-.306-1.474 0-.557.099-1.047.306-1.471q.317-.636.881-.994.566-.356 1.323-.357c.306 0 .597.051.889.152.284.102.547.261.775.478s.405.498.54.844c.128.345.2.763.2 1.255v.375h-4.317v-.791h3.278q0-.418-.17-.739a1.3 1.3 0 0 0-.477-.513 1.3 1.3 0 0 0-.711-.188 1.4 1.4 0 0 0-1.287.786 1.6 1.6 0 0 0-.178.753v.618q0 .545.192.926.19.383.541.584.341.198.81.198c.2 0 .377-.029.548-.085q.245-.088.427-.262.181-.173.277-.428l.995.181a1.8 1.8 0 0 1-.426.774c-.206.219-.47.39-.775.513-.313.12-.662.18-1.06.18"/><path stroke="#0caaab" d="M977.067 294.756H752.356c-6.873 0-12.445 5.571-12.445 12.444s5.572 12.445 12.445 12.445h224.711c6.873 0 12.444-5.572 12.444-12.445s-5.571-12.444-12.444-12.444Z"/></g><path fill="#0caaab" d="M620.089 432.355H403.911c-9.426 0-17.067 7.641-17.067 17.067s7.641 17.067 17.067 17.067h216.178c9.425 0 17.066-7.641 17.066-17.067s-7.641-17.067-17.066-17.067"/><path fill="#fff" d="M494.564 453.883c-1.812 0-2.973-.917-3.084-2.266l-.005-.073h1.222l.006.061c.067.728.838 1.195 1.91 1.195 1.023 0 1.75-.511 1.75-1.256v-.005c0-.617-.433-1.017-1.494-1.244l-.878-.189c-1.628-.345-2.327-1.101-2.327-2.284v-.006c.005-1.383 1.205-2.338 2.905-2.338s2.811.961 2.9 2.205l.006.078h-1.206l-.011-.073c-.106-.654-.733-1.132-1.706-1.127-.938 0-1.633.439-1.633 1.194v.006c0 .594.422.983 1.461 1.205l.873.195c1.683.361 2.372 1.039 2.372 2.228v.005c0 1.534-1.195 2.489-3.061 2.489m5.075-7.305a.756.756 0 0 1-.756-.751c0-.416.339-.755.756-.755a.76.76 0 0 1 .755.755.76.76 0 0 1-.755.751m-.606 7.111v-6.033h1.2v6.033zm5.392 2.127c-1.534 0-2.478-.672-2.622-1.677l.011-.011h1.217l.005.011c.1.417.589.711 1.406.711.994 0 1.583-.466 1.583-1.289v-1.189h-.089c-.366.655-1.033 1.022-1.861 1.022-1.55 0-2.505-1.194-2.505-2.894v-.011c0-1.723.96-2.939 2.528-2.939.844 0 1.499.416 1.849 1.094h.073v-.988h1.199v5.91c0 1.373-1.083 2.25-2.794 2.25m-.017-3.416c1.023 0 1.639-.778 1.639-1.906v-.011c0-1.122-.622-1.911-1.639-1.911-1.027 0-1.605.789-1.605 1.911v.011c0 1.123.578 1.906 1.605 1.906m4.431 1.289v-6.033h1.206v.916h.088c.295-.645.873-1.033 1.751-1.033 1.349 0 2.094.805 2.094 2.244v3.906h-1.2v-3.623c0-.999-.417-1.494-1.3-1.494-.884 0-1.433.606-1.433 1.578v3.539zm13.083.194c-2.011 0-3.25-1.194-3.25-2.955v-5.256h1.245v5.161c0 1.161.728 1.951 2.005 1.951 1.278 0 2.001-.79 2.001-1.951v-5.161h1.244v5.256c0 1.761-1.228 2.955-3.245 2.955m4.998 1.817v-8.044h1.205v.95h.089c.35-.662 1.011-1.056 1.856-1.056 1.522 0 2.5 1.216 2.5 3.117v.011c0 1.911-.967 3.111-2.5 3.111-.828 0-1.534-.406-1.856-1.056h-.089v2.967zm2.811-2.939c1.006 0 1.611-.789 1.611-2.083v-.011c0-1.3-.605-2.084-1.611-2.084s-1.628.795-1.628 2.084v.011c0 1.288.622 2.083 1.628 2.083"/><path fill="#0e7177" d="m443.375 493.511 2.895-8.016h1.344l2.894 8.016h-1.31l-.723-2.167h-3.066l-.728 2.167zm3.517-6.611-1.15 3.444h2.4l-1.156-3.444zm4.814 6.611v-8.4h1.206v8.4zm2.886 0v-6.033h1.205v.911h.089c.217-.639.778-1.017 1.584-1.017.194 0 .405.028.528.055v1.112a3 3 0 0 0-.65-.073c-.923 0-1.551.567-1.551 1.44v3.605zm6.82.117c-1.767 0-2.833-1.206-2.833-3.117v-.006c0-1.883 1.088-3.144 2.771-3.144 1.684 0 2.717 1.216 2.717 3.027v.423h-4.277c.022 1.155.655 1.827 1.649 1.827.773 0 1.233-.383 1.378-.694l.023-.044 1.161-.005-.012.049c-.199.795-1.033 1.684-2.577 1.684m-.056-5.278c-.822 0-1.444.561-1.55 1.6h3.067c-.095-1.078-.7-1.6-1.517-1.6m5.686 5.261c-1.15 0-1.999-.7-1.999-1.795v-.01c0-1.078.81-1.706 2.25-1.795l1.633-.095v-.533c0-.661-.417-1.028-1.234-1.028-.666 0-1.106.245-1.25.672l-.005.023h-1.161l.006-.039c.144-.989 1.094-1.65 2.466-1.65 1.516 0 2.372.755 2.372 2.022v4.128h-1.194v-.855h-.095c-.355.61-.989.955-1.789.955m-.8-1.844c0 .555.472.883 1.122.883.901 0 1.562-.589 1.562-1.367v-.516l-1.473.094c-.833.05-1.211.35-1.211.894zm7.665 1.844c-1.517 0-2.501-1.216-2.501-3.111v-.011c0-1.912.967-3.117 2.501-3.117.827 0 1.533.411 1.855 1.061h.094v-3.322h1.2v8.4h-1.2v-.95h-.094c-.35.661-1.011 1.05-1.855 1.05m.344-1.028c1.005 0 1.622-.794 1.622-2.083v-.011c0-1.289-.622-2.084-1.622-2.084-1.011 0-1.617.79-1.617 2.084v.011c0 1.294.606 2.083 1.617 2.083m5.075 3.05c-.15 0-.328-.011-.484-.028v-.95c.117.017.267.023.406.023.562 0 .9-.239 1.078-.851l.089-.31-2.189-6.039h1.3l1.511 4.822h.106l1.505-4.822h1.267l-2.245 6.266c-.511 1.44-1.122 1.889-2.344 1.889m8.75-2.122v-8.4h1.206v3.284h.088c.295-.645.873-1.034 1.75-1.034 1.351 0 2.095.805 2.095 2.245v3.905h-1.2v-3.622c0-1-.417-1.494-1.3-1.494s-1.433.605-1.433 1.577v3.539zm8.364.1c-1.15 0-2-.7-2-1.795v-.01c0-1.078.811-1.706 2.25-1.795l1.633-.095v-.533c0-.661-.416-1.028-1.233-1.028-.667 0-1.106.245-1.25.672l-.006.023h-1.161l.006-.039c.144-.989 1.094-1.65 2.467-1.65 1.517 0 2.372.755 2.372 2.022v4.128h-1.195v-.855h-.094c-.356.61-.989.955-1.789.955m-.8-1.844c0 .555.472.883 1.122.883.9 0 1.561-.589 1.561-1.367v-.516l-1.472.094c-.833.05-1.211.35-1.211.894zm6.925 1.744-2.183-6.033h1.278l1.505 4.811h.095l1.5-4.811h1.266l-2.177 6.033zm6.859.117c-1.767 0-2.834-1.206-2.834-3.117v-.006c0-1.883 1.089-3.144 2.773-3.144 1.683 0 2.716 1.216 2.716 3.027v.423h-4.277c.022 1.155.655 1.827 1.649 1.827.773 0 1.234-.383 1.378-.694l.023-.044 1.16-.005-.01.049c-.2.795-1.034 1.684-2.578 1.684m-.056-5.278c-.822 0-1.445.561-1.55 1.6h3.067c-.095-1.078-.7-1.6-1.517-1.6m8.684 5.261c-1.15 0-2.001-.7-2.001-1.795v-.01c0-1.078.812-1.706 2.251-1.795l1.633-.095v-.533c0-.661-.417-1.028-1.233-1.028-.667 0-1.106.245-1.251.672l-.005.023h-1.161l.005-.039c.145-.989 1.095-1.65 2.467-1.65 1.517 0 2.372.755 2.372 2.022v4.128h-1.194v-.855h-.094c-.356.61-.989.955-1.789.955m-.8-1.844c0 .555.472.883 1.122.883.9 0 1.561-.589 1.561-1.367v-.516l-1.472.094c-.834.05-1.211.35-1.211.894zm5.464 1.744v-6.033h1.205v.917h.089c.294-.645.873-1.034 1.75-1.034 1.35 0 2.094.805 2.094 2.245v3.905h-1.199v-3.622c0-1-.417-1.494-1.3-1.494-.884 0-1.434.605-1.434 1.577v3.539zm11.361.1c-1.15 0-2-.7-2-1.795v-.01c0-1.078.811-1.706 2.25-1.795l1.633-.095v-.533c0-.661-.416-1.028-1.233-1.028-.667 0-1.106.245-1.25.672l-.006.023h-1.161l.006-.039c.144-.989 1.094-1.65 2.467-1.65 1.516 0 2.372.755 2.372 2.022v4.128h-1.195v-.855h-.094c-.356.61-.989.955-1.789.955m-.8-1.844c0 .555.472.883 1.122.883.9 0 1.561-.589 1.561-1.367v-.516l-1.472.094c-.833.05-1.211.35-1.211.894zm8.003 1.861c-1.761 0-2.839-1.2-2.839-3.151v-.01c0-1.912 1.072-3.106 2.833-3.106 1.517 0 2.422.856 2.589 2.028v.027l-1.156.006-.005-.016c-.133-.595-.622-1.039-1.422-1.039-1.005 0-1.611.8-1.611 2.1v.01c0 1.334.616 2.145 1.611 2.145.755 0 1.222-.344 1.417-.994l.01-.028h1.156l-.011.05c-.217 1.172-1.078 1.978-2.572 1.978m6.375 0c-1.761 0-2.839-1.2-2.839-3.151v-.01c0-1.912 1.072-3.106 2.834-3.106 1.516 0 2.422.856 2.588 2.028v.027l-1.156.006-.005-.016c-.133-.595-.622-1.039-1.422-1.039-1.005 0-1.611.8-1.611 2.1v.01c0 1.334.616 2.145 1.611 2.145.755 0 1.222-.344 1.417-.994l.01-.028h1.156l-.011.05c-.217 1.172-1.078 1.978-2.572 1.978m6.392 0c-1.772 0-2.855-1.184-2.855-3.128v-.011c0-1.939 1.088-3.128 2.855-3.128 1.761 0 2.85 1.184 2.85 3.128v.011c0 1.944-1.083 3.128-2.85 3.128m0-1.006c1.033 0 1.622-.789 1.622-2.122v-.011c0-1.339-.589-2.122-1.622-2.122-1.039 0-1.622.783-1.622 2.122v.011c0 1.338.583 2.122 1.622 2.122m6.186 1.006c-1.361 0-2.067-.817-2.067-2.245v-3.905h1.206v3.622c0 1 .366 1.494 1.25 1.494.967 0 1.483-.606 1.483-1.578v-3.538h1.2v6.033h-1.2v-.911h-.095c-.288.65-.899 1.028-1.777 1.028m4.697-.117v-6.033h1.206v.917h.088c.295-.645.873-1.034 1.75-1.034 1.351 0 2.095.805 2.095 2.245v3.905h-1.2v-3.622c0-1-.417-1.494-1.3-1.494s-1.433.605-1.433 1.577v3.539zm8.987.039c-1.328 0-1.873-.467-1.873-1.628v-3.494h-.944v-.95h.944v-1.523h1.228v1.523h1.294v.95h-1.294v3.205c0 .65.244.917.839.917.183 0 .289-.005.455-.022v.961a4 4 0 0 1-.649.061m3.252-2.528-.005-.444c-.028-.784.311-1.284 1.072-1.739.673-.406.911-.728.911-1.295v-.011c0-.622-.494-1.083-1.255-1.083-.767 0-1.261.461-1.306 1.194h-.011l-1.145.006v-.011c.05-1.255.911-2.211 2.523-2.211 1.466 0 2.455.872 2.455 2.055v.011c0 .856-.433 1.462-1.167 1.9-.716.423-.921.717-.921 1.289v.339zm.645 2.611c-.511 0-.861-.333-.861-.827 0-.5.35-.834.861-.834s.856.334.856.834c0 .494-.345.827-.856.827"/><mask id="g" width="18" height="13" x="429" y="546" maskUnits="userSpaceOnUse" style="mask-type:luminance"><path fill="#fff" d="M446.578 546.134h-17.067v12.8h17.067z"/></mask><g mask="url(#g)"><path fill="#fdb913" d="M446.578 546.134h-17.067v4.266h17.067z"/><path fill="#006a44" d="M446.578 550.4h-17.067v4.267h17.067z"/><path fill="#c1272d" d="M446.578 554.667h-17.067v4.267h17.067z"/></g><path fill="#333" d="M458.667 554.666a.6.6 0 0 0 .447-.205l3.656-3.788a.56.56 0 0 0 .163-.405.57.57 0 0 0-.981-.404l-3.28 3.414-3.291-3.414a.6.6 0 0 0-.414-.176.57.57 0 0 0-.567.58.56.56 0 0 0 .163.405l3.661 3.788a.6.6 0 0 0 .443.205"/><path fill="#636363" d="M477.298 554.666h3.606v-.95h-2.452v-4.561h-1.154zm5.033-4.85a.623.623 0 0 0 .626-.619.624.624 0 0 0-.626-.623.627.627 0 0 0-.63.623c0 .344.286.619.63.619m-.562 4.85h1.116v-4.205h-1.116zm4.009.089c1.23 0 1.772-.711 1.902-1.239l.008-.037h-1.039l-.012.023c-.076.16-.347.42-.836.42-.592 0-.963-.401-.974-1.092h2.895v-.348c0-1.272-.764-2.112-1.99-2.112s-2.009.859-2.009 2.196v.003c0 1.349.775 2.186 2.055 2.186m-.027-3.549c.485 0 .833.313.901.925h-1.814c.069-.596.428-.925.913-.925m4.551 3.475c.214 0 .42-.022.558-.049v-.829c-.107.011-.184.019-.329.019-.378 0-.538-.168-.538-.546v-1.975h.867v-.84h-.867v-1.004h-1.127v1.004h-.649v.84h.649v2.231c0 .817.412 1.149 1.436 1.149m2.798.074c.599 0 1.028-.28 1.218-.738h.069v.649h1.115v-4.205h-1.115v2.429c0 .57-.298.94-.848.94-.527 0-.752-.309-.752-.905v-2.464h-1.116v2.72c0 1 .485 1.574 1.429 1.574m4.543-.089h1.253l1.455-4.205h-1.172l-.864 3.163h-.068l-.871-3.163h-1.195zm3.952-4.85a.623.623 0 0 0 .626-.619.624.624 0 0 0-.626-.623.627.627 0 0 0-.631.623c0 .344.287.619.631.619m-.562 4.85h1.115v-4.205h-1.115zm3.551.089c.599 0 1.027-.28 1.218-.738h.069v.649h.259c-.458.298-.676.653-.676 1.012v.008c0 .596.478.867 1.043.867.225 0 .42-.031.581-.084v-.546a.8.8 0 0 1-.237.034c-.248 0-.413-.16-.413-.443v-.007c0-.351.229-.631.558-.841v-4.205h-1.115v2.429c0 .57-.298.94-.849.94-.527 0-.752-.309-.752-.905v-2.464h-1.115v2.72c0 1 .485 1.574 1.429 1.574"/><path stroke="#ccc" d="M513.778 547.556v9.244"/><path fill="#636363" d="M519.856 554.666h3.652v-.95h-2.498v-1.395h2.357v-.886h-2.357v-1.329h2.498v-.951h-3.652zm4.677 0h1.115v-2.432c0-.57.314-.94.83-.94.527 0 .771.313.771.905v2.467h1.115v-2.719c0-1.005-.504-1.577-1.44-1.577-.599 0-1.016.286-1.207.741h-.069v-.65h-1.115zm6.69 1.479c1.272 0 2.078-.623 2.078-1.609v-4.075h-1.115v.687h-.054c-.225-.473-.676-.755-1.253-.755-1.077 0-1.73.832-1.73 2.07v.007c0 1.196.653 2.013 1.711 2.013.585 0 1.028-.24 1.261-.684h.068v.783c0 .489-.347.768-.943.768-.497 0-.787-.168-.848-.413l-.004-.015h-1.103v.02c.091.713.767 1.203 1.932 1.203m.016-2.518c-.604 0-.948-.47-.948-1.161v-.007c0-.692.348-1.161.948-1.161.599 0 .962.469.962 1.161v.007c0 .691-.359 1.161-.962 1.161m3.137 1.039h1.116v-5.813h-1.116zm2.76-4.85a.623.623 0 0 0 .626-.619.624.624 0 0 0-.626-.623.627.627 0 0 0-.63.623c0 .344.286.619.63.619m-.562 4.85h1.116v-4.205h-1.116zm3.833.089c1.077 0 1.845-.543 1.845-1.376v-.003c0-.623-.394-.975-1.234-1.154l-.699-.149c-.435-.095-.592-.226-.592-.451v-.004c0-.283.275-.462.661-.462.416 0 .665.21.726.435l.004.02h1.035v-.015c-.046-.677-.657-1.226-1.761-1.226-1.05 0-1.753.527-1.753 1.317v.004c0 .63.397 1.023 1.199 1.195l.703.15c.428.095.595.237.595.461v.008c0 .279-.29.462-.717.462-.44 0-.696-.187-.783-.446l-.008-.016h-1.096l.004.016c.08.721.73 1.234 1.871 1.234m2.718-.089h1.115v-2.432c0-.57.313-.94.829-.94.527 0 .771.313.771.905v2.467h1.115v-2.719c0-1.005-.504-1.577-1.44-1.577-.599 0-1.015.286-1.206.741h-.069v-2.258h-1.115z"/><path fill="#636363" d="M519.188 556.099h28.287v.726h-28.287z"/><path stroke="#ccc" d="M553.6 547.556v9.244"/><path fill="#636363" d="M559.88 554.667h1.153v-1.738h1.12c1.161 0 1.936-.749 1.936-1.883v-.008c0-1.134-.775-1.882-1.936-1.882h-2.273zm1.99-4.599c.661 0 1.05.348 1.05.974v.008c0 .626-.389.978-1.05.978h-.837v-1.96zm3.668 6.081c1.039 0 1.593-.374 1.967-1.486l1.433-4.202h-1.177l-.882 3.186h-.076l-.883-3.186h-1.226l1.479 4.206-.039.161c-.08.328-.309.48-.706.48-.103 0-.214-.003-.291-.011v.841c.13.007.272.011.401.011m5.85-1.394c1.096 0 1.753-.589 1.868-1.505l.003-.023h-1.031l-.007.016c-.099.419-.371.637-.829.637-.596 0-.929-.47-.929-1.322v-.007c0-.84.329-1.306.929-1.306.477 0 .756.267.829.676l.004.007h1.039v-.011c-.1-.939-.76-1.547-1.876-1.547-1.318 0-2.059.798-2.059 2.181v.007c0 1.399.745 2.197 2.059 2.197m4.574 0c1.096 0 1.753-.589 1.868-1.505l.003-.023h-1.031l-.008.016c-.098.419-.37.637-.828.637-.596 0-.929-.47-.929-1.322v-.007c0-.84.329-1.306.929-1.306.477 0 .756.267.828.676l.005.007h1.038v-.011c-.099-.939-.76-1.547-1.875-1.547-1.318 0-2.059.798-2.059 2.181v.007c0 1.399.745 2.197 2.059 2.197m4.074-1.849 1.26 1.761h1.325l-1.68-2.281 1.596-1.925h-1.264l-1.253 1.651h-.198v-1.651h-1.115v4.206h1.115v-1.761zm3.32 1.761h1.096l1.601-2.662h.084v2.662h1.096v-4.206h-1.096l-1.604 2.632h-.081v-2.632h-1.096zm6.935-4.774c.874 0 1.451-.55 1.451-1.33h-.833c-.007.405-.244.714-.618.714s-.611-.309-.623-.714h-.832c0 .78.58 1.33 1.455 1.33m-1.94 4.774h1.095l1.601-2.662h.084v2.662h1.096v-4.206h-1.096l-1.604 2.632h-.081v-2.632h-1.095z"/><path fill="#000" d="M487.181 152.47c-2.716 0-4.459-1.375-4.625-3.4l-.009-.108h1.834l.008.091c.1 1.092 1.259 1.792 2.867 1.792 1.534 0 2.625-.767 2.625-1.883v-.009c0-.925-.65-1.525-2.242-1.866l-1.316-.284c-2.442-.516-3.492-1.65-3.492-3.425v-.008c.008-2.075 1.808-3.508 4.359-3.508 2.549 0 4.216 1.441 4.349 3.308l.008.116h-1.808l-.017-.108c-.158-.983-1.1-1.7-2.558-1.691-1.408 0-2.45.658-2.45 1.791v.008c0 .892.634 1.475 2.192 1.809l1.308.291c2.525.542 3.559 1.559 3.559 3.342v.008c0 2.301-1.792 3.734-4.592 3.734m7.612-10.959a1.13 1.13 0 0 1-1.133-1.125c0-.625.508-1.133 1.133-1.133a1.14 1.14 0 0 1 1.134 1.133c0 .617-.517 1.125-1.134 1.125m-.908 10.667v-9.05h1.8v9.05zm8.088 3.192c-2.3 0-3.716-1.009-3.933-2.517l.016-.016h1.825l.008.016c.15.625.884 1.067 2.109 1.067 1.492 0 2.375-.7 2.375-1.934v-1.783h-.133c-.551.983-1.55 1.533-2.792 1.533-2.325 0-3.758-1.792-3.758-4.342v-.016c0-2.583 1.441-4.408 3.791-4.408 1.267 0 2.25.625 2.775 1.641h.108v-1.483h1.801v8.867c0 2.058-1.626 3.375-4.192 3.375m-.025-5.125c1.533 0 2.458-1.167 2.458-2.858v-.017c0-1.684-.933-2.867-2.458-2.867-1.542 0-2.409 1.183-2.409 2.867v.017c0 1.683.867 2.858 2.409 2.858m6.646 1.933v-9.05h1.808v1.375h.133c.442-.966 1.309-1.55 2.626-1.55 2.024 0 3.141 1.209 3.141 3.367v5.858h-1.8v-5.434c0-1.499-.624-2.241-1.95-2.241-1.325 0-2.15.908-2.15 2.367v5.308zm17.575.175c-2.042 0-3.1-1.225-3.1-3.366v-5.859h1.809v5.433c0 1.5.549 2.242 1.874 2.242 1.451 0 2.225-.908 2.225-2.367v-5.308h1.801v9.05h-1.801v-1.367h-.141c-.433.975-1.35 1.542-2.667 1.542m7.046 2.842v-12.067h1.809v1.425h.133c.525-.991 1.517-1.583 2.783-1.583 2.283 0 3.751 1.825 3.751 4.675v.016c0 2.867-1.451 4.667-3.751 4.667-1.241 0-2.3-.609-2.783-1.584h-.133v4.451zm4.217-4.409c1.508 0 2.417-1.183 2.417-3.125v-.016c0-1.95-.909-3.126-2.417-3.126-1.509 0-2.442 1.192-2.442 3.126v.016c0 1.934.933 3.125 2.442 3.125"/><path fill="#fff" d="M632.178 173.866H390.4a3.91 3.91 0 0 0-3.911 3.911v36.978a3.91 3.91 0 0 0 3.911 3.911h241.778a3.91 3.91 0 0 0 3.911-3.911v-36.978a3.91 3.91 0 0 0-3.911-3.911"/><path fill="#0caaab" d="M615.69 201.504a7.11 7.11 0 1 0-13.379-3.363c0 1.216.305 2.361.843 3.363l3.121-5.111 1.659 2.854-.459-2.127 1.945-3.309 3.156 5.443-.454-2.116.443-.753z"/><path fill="#6d7377" d="M395.421 189.156v-6.012h.841l3.092 4.374h.063v-4.374h.908v6.012h-.842l-3.087-4.367h-.067v4.367zm7.469.075c-.863 0-1.501-.525-1.501-1.346v-.008c0-.809.609-1.28 1.688-1.346l1.225-.071v-.4c0-.496-.313-.771-.925-.771-.5 0-.829.183-.937.504l-.005.017h-.871l.004-.029c.109-.742.821-1.237 1.851-1.237 1.137 0 1.779.566 1.779 1.516v3.096h-.896v-.641h-.071c-.267.458-.742.716-1.341.716m-.6-1.383c0 .416.354.662.841.662.675 0 1.171-.441 1.171-1.025v-.388l-1.104.071c-.625.038-.908.263-.908.671zm4.098 1.308v-4.525h.904v.696h.066c.2-.496.642-.783 1.233-.783.617 0 1.055.32 1.255.808h.071c.229-.488.749-.808 1.379-.808.912 0 1.445.549 1.445 1.491v3.121h-.899v-2.904c0-.625-.284-.933-.875-.933-.575 0-.955.429-.955.975v2.862h-.899v-2.996c0-.516-.338-.841-.871-.841-.546 0-.95.466-.95 1.058v2.779zm9.43.087c-1.324 0-2.124-.903-2.124-2.337v-.004c0-1.413.817-2.358 2.079-2.358s2.037.912 2.037 2.27v.317h-3.208c.017.867.492 1.371 1.238 1.371.579 0 .925-.288 1.033-.521l.016-.033.871-.004-.008.037c-.15.596-.775 1.262-1.934 1.262m-.041-3.958c-.616 0-1.084.421-1.162 1.2h2.299c-.07-.808-.525-1.2-1.137-1.2"/><path fill="#000" d="M397.545 207.839c-1.484 0-2.351-.905-2.417-2.183l-.005-.067h1.227l.006.05c.049.611.433 1.089 1.177 1.089.823 0 1.267-.494 1.267-1.406v-5.694h1.244v5.706c0 1.578-.927 2.505-2.499 2.505m6.752-.078c-1.772 0-2.855-1.183-2.855-3.127v-.011c0-1.94 1.089-3.128 2.855-3.128 1.762 0 2.85 1.183 2.85 3.128v.011c0 1.944-1.083 3.127-2.85 3.127m0-1.005c1.034 0 1.622-.789 1.622-2.122v-.011c0-1.339-.588-2.122-1.622-2.122-1.039 0-1.622.783-1.622 2.122v.011c0 1.338.583 2.122 1.622 2.122m4.231.889v-8.4h1.206v3.283h.089c.294-.645.871-1.033 1.75-1.033 1.349 0 2.094.805 2.094 2.244v3.906h-1.2v-3.623c0-.999-.416-1.494-1.3-1.494s-1.433.605-1.433 1.578v3.539zm6.708 0v-6.033h1.206v.916h.089c.295-.645.872-1.033 1.75-1.033 1.35 0 2.095.805 2.095 2.244v3.906h-1.201v-3.623c0-.999-.417-1.494-1.3-1.494s-1.433.605-1.433 1.578v3.539z"/><path stroke="#9ea3a6" d="M632.178 173.866H390.4a3.91 3.91 0 0 0-3.911 3.911v36.978a3.91 3.91 0 0 0 3.911 3.911h241.778a3.91 3.91 0 0 0 3.911-3.911v-36.978a3.91 3.91 0 0 0-3.911-3.911Z"/><path fill="#fff" d="M632.889 230.756H391.111a3.91 3.91 0 0 0-3.911 3.911v36.978a3.91 3.91 0 0 0 3.911 3.911h241.778a3.91 3.91 0 0 0 3.911-3.911v-36.978a3.91 3.91 0 0 0-3.911-3.911"/><path fill="#0caaab" d="M616.401 258.392a7.111 7.111 0 1 0-12.535 0l3.121-5.111 1.658 2.855-.458-2.128 1.944-3.309 3.156 5.444-.454-2.116.444-.753z"/><path fill="#6d7377" d="M398.165 246.191c-1.358 0-2.229-.688-2.312-1.701l-.004-.054h.916l.005.047c.049.545.629.895 1.433.895.767 0 1.312-.383 1.312-.942v-.004c0-.462-.325-.762-1.121-.933l-.658-.141c-1.22-.259-1.746-.825-1.746-1.713v-.004c.004-1.037.905-1.754 2.18-1.754s2.108.721 2.174 1.654l.005.058h-.904l-.009-.054c-.079-.492-.549-.85-1.279-.846-.704 0-1.225.329-1.225.896v.004c0 .446.317.737 1.096.905l.654.145c1.263.271 1.779.779 1.779 1.671v.004c0 1.15-.895 1.867-2.296 1.867m4.845-.059c-1.022 0-1.551-.612-1.551-1.683v-2.929h.904v2.717c0 .75.275 1.12.938 1.12.725 0 1.112-.453 1.112-1.183v-2.654h.901v4.525h-.901v-.683h-.07c-.217.487-.676.77-1.333.77m3.522-.087v-4.525h.904v.684h.067c.163-.48.583-.764 1.188-.764.145 0 .304.022.396.042v.834a2.3 2.3 0 0 0-.488-.054c-.692 0-1.163.424-1.163 1.079v2.704zm3.398 0v-4.525h.905v.688h.066c.221-.484.654-.775 1.312-.775 1.013 0 1.571.603 1.571 1.683v2.929h-.899v-2.717c0-.75-.313-1.12-.976-1.12-.662 0-1.074.453-1.074 1.183v2.654zm6.273.075c-.862 0-1.5-.525-1.5-1.346v-.008c0-.809.609-1.28 1.688-1.346l1.225-.071v-.4c0-.496-.312-.771-.925-.771-.5 0-.83.183-.938.504l-.004.017h-.871l.004-.029c.109-.742.822-1.237 1.851-1.237 1.137 0 1.779.566 1.779 1.516v3.096h-.896v-.641h-.071c-.267.457-.742.716-1.342.716m-.6-1.383c0 .416.354.662.842.662.675 0 1.171-.441 1.171-1.025v-.388l-1.105.071c-.625.038-.908.263-.908.671zm4.098 1.308v-4.525h.904v.696h.067c.2-.496.642-.783 1.233-.783.617 0 1.055.32 1.255.807h.071c.229-.487.749-.807 1.379-.807.912 0 1.445.549 1.445 1.491v3.121h-.899v-2.904c0-.625-.284-.933-.876-.933-.574 0-.954.429-.954.975v2.862h-.9v-2.996c0-.516-.337-.841-.871-.841-.545 0-.95.466-.95 1.058v2.779zm9.431.087c-1.325 0-2.125-.903-2.125-2.337v-.004c0-1.413.817-2.358 2.08-2.358 1.262 0 2.037.912 2.037 2.27v.317h-3.208c.017.867.492 1.371 1.238 1.371.578 0 .925-.288 1.033-.521l.016-.033.871-.004-.008.037c-.15.596-.775 1.262-1.934 1.262m-.041-3.958c-.617 0-1.084.421-1.163 1.2h2.301c-.071-.809-.526-1.2-1.138-1.2"/><path fill="#000" d="M399.095 264.728c-1.811 0-2.973-.917-3.083-2.267l-.006-.072h1.222l.005.061c.067.728.839 1.195 1.912 1.195 1.022 0 1.75-.512 1.75-1.256v-.005c0-.617-.434-1.017-1.495-1.245l-.878-.189c-1.627-.344-2.328-1.1-2.328-2.283v-.006c.006-1.383 1.206-2.339 2.906-2.339s2.812.962 2.9 2.206l.006.078H400.8l-.011-.073c-.105-.655-.733-1.133-1.705-1.127-.939 0-1.634.439-1.634 1.194v.006c0 .594.423.983 1.461 1.205l.872.195c1.683.361 2.373 1.039 2.373 2.228v.005c0 1.534-1.194 2.489-3.061 2.489m4.447-.194V258.5h1.206v.928h.088c.267-.661.856-1.044 1.645-1.044.822 0 1.405.427 1.672 1.077h.095c.305-.65.999-1.077 1.839-1.077 1.216 0 1.927.733 1.927 1.988v4.162h-1.2v-3.872c0-.834-.378-1.245-1.166-1.245-.767 0-1.272.572-1.272 1.3v3.817h-1.201v-3.995c0-.689-.45-1.122-1.161-1.122-.727 0-1.266.622-1.266 1.411v3.706zm10.67-7.112a.755.755 0 0 1-.756-.75.756.756 0 0 1 1.511 0c0 .411-.344.75-.755.75m-.606 7.112V258.5h1.2v6.034zm5.12.039c-1.328 0-1.872-.468-1.872-1.628v-3.495h-.945v-.95h.945v-1.522h1.227v1.522h1.295v.95h-1.295v3.205c0 .65.245.917.839.917.183 0 .289-.005.456-.022v.961a4 4 0 0 1-.65.062m1.997-.039v-8.4h1.206v3.283h.089c.294-.645.871-1.033 1.75-1.033 1.349 0 2.094.805 2.094 2.244v3.906h-1.2v-3.623c0-1-.417-1.494-1.3-1.494-.884 0-1.433.605-1.433 1.577v3.54z"/><path stroke="#9ea3a6" d="M632.889 230.756H391.111a3.91 3.91 0 0 0-3.911 3.911v36.978a3.91 3.91 0 0 0 3.911 3.911h241.778a3.91 3.91 0 0 0 3.911-3.911v-36.978a3.91 3.91 0 0 0-3.911-3.911Z"/><path fill="#fff" d="M632.889 287.645H391.111a3.91 3.91 0 0 0-3.911 3.911v36.977a3.91 3.91 0 0 0 3.911 3.912h241.778a3.91 3.91 0 0 0 3.911-3.912v-36.977a3.91 3.91 0 0 0-3.911-3.911"/><path fill="#0caaab" d="M616.401 315.281a7.11 7.11 0 0 0-6.267-10.473 7.11 7.11 0 0 0-6.268 10.473l3.121-5.111 1.658 2.855-.458-2.128 1.944-3.309 3.156 5.444-.454-2.117.444-.753z"/><path fill="#6d7377" d="M396.132 302.933v-6.012h3.817v.804h-2.884v1.758h2.73v.775h-2.73v1.871h2.884v.804zm4.977 0v-4.525h.904v.696h.067c.2-.496.641-.783 1.233-.783.617 0 1.055.321 1.255.808h.071c.229-.487.749-.808 1.378-.808.913 0 1.446.55 1.446 1.491v3.121h-.899v-2.904c0-.625-.284-.933-.876-.933-.574 0-.954.429-.954.975v2.862h-.9v-2.996c0-.516-.337-.841-.871-.841-.545 0-.95.467-.95 1.058v2.779zm8.773.075c-.862 0-1.5-.525-1.5-1.345v-.009c0-.809.609-1.279 1.687-1.345l1.226-.072v-.4c0-.496-.313-.771-.926-.771-.499 0-.829.184-.937.504l-.004.018h-.871l.004-.03c.109-.741.821-1.237 1.85-1.237 1.138 0 1.78.567 1.78 1.516v3.096h-.896v-.641h-.071c-.267.458-.742.716-1.342.716m-.6-1.383c0 .417.354.663.842.663.675 0 1.171-.442 1.171-1.026v-.387l-1.105.071c-.625.037-.908.262-.908.67zm4.569-4.025a.566.566 0 0 1-.567-.563.567.567 0 0 1 1.134 0 .57.57 0 0 1-.567.563m-.454 5.333v-4.525h.9v4.525zm2.173 0v-6.299h.904v6.299z"/><path fill="#000" d="M396.861 314.311a.756.756 0 0 1-.756-.75.756.756 0 0 1 1.512 0c0 .411-.339.75-.756.75m-1.355 9.178c-.089 0-.195-.006-.267-.006v-.988h.167c.616 0 .855-.212.855-.818v-6.288h1.2v6.294c0 1.239-.644 1.806-1.955 1.806m6.158-1.95c-1.772 0-2.856-1.183-2.856-3.128v-.011c0-1.939 1.09-3.127 2.856-3.127 1.762 0 2.85 1.183 2.85 3.127v.011c0 1.945-1.083 3.128-2.85 3.128m0-1.006c1.033 0 1.622-.788 1.622-2.122v-.011c0-1.339-.589-2.122-1.622-2.122-1.039 0-1.622.783-1.622 2.122v.011c0 1.339.583 2.122 1.622 2.122m4.231.889v-8.399h1.206v3.283h.088c.295-.645.872-1.033 1.751-1.033 1.349 0 2.094.804 2.094 2.244v3.905h-1.201V317.8c0-1-.416-1.494-1.3-1.494-.883 0-1.432.605-1.432 1.577v3.539zm6.708 0v-6.033h1.206v.917h.088c.296-.645.873-1.033 1.75-1.033 1.351 0 2.095.804 2.095 2.244v3.905h-1.2V317.8c0-1-.417-1.494-1.3-1.494s-1.433.605-1.433 1.577v3.539zm7.637.083a.8.8 0 0 1-.817-.805c0-.455.355-.811.817-.811s.81.356.81.811c0 .45-.349.805-.81.805m4.741.034c-1.455 0-2.377-.684-2.494-1.695v-.005h1.205l.006.005c.15.456.589.762 1.306.762.744 0 1.26-.339 1.26-.834v-.011c0-.378-.283-.634-.982-.794l-.962-.223c-1.139-.261-1.667-.777-1.667-1.661v-.005c0-1.05.978-1.805 2.345-1.805 1.378 0 2.261.688 2.366 1.671v.006h-1.149v-.011c-.117-.422-.545-.739-1.223-.739-.66 0-1.138.328-1.138.811v.011c0 .378.277.611.955.772l.955.217c1.162.272 1.717.767 1.717 1.639v.011c0 1.117-1.067 1.878-2.5 1.878m3.826-.117v-6.033h1.205v.927h.089c.266-.66.855-1.043 1.645-1.043.822 0 1.405.427 1.671 1.077h.095c.306-.65 1-1.077 1.839-1.077 1.217 0 1.928.733 1.928 1.988v4.161h-1.201v-3.872c0-.833-.377-1.244-1.166-1.244-.766 0-1.272.571-1.272 1.3v3.816h-1.2v-3.994c0-.689-.451-1.122-1.162-1.122-.727 0-1.266.622-1.266 1.411v3.705zm10.669-7.111a.755.755 0 0 1-.756-.75.756.756 0 0 1 1.511 0c0 .411-.344.75-.755.75m-.606 7.111v-6.033h1.201v6.033zm5.12.039c-1.328 0-1.872-.467-1.872-1.627v-3.495h-.944v-.95h.944v-1.522h1.227v1.522h1.295v.95h-1.295v3.205c0 .65.245.917.839.917.184 0 .289-.005.456-.022v.961a4 4 0 0 1-.65.061m1.997-.039v-8.399h1.206v3.283h.089c.294-.645.872-1.033 1.75-1.033 1.35 0 2.094.804 2.094 2.244v3.905h-1.2V317.8c0-1-.417-1.494-1.3-1.494s-1.433.605-1.433 1.577v3.539zm11.325 1.267c-2.878 0-4.722-1.812-4.722-4.628v-.011c0-2.745 1.883-4.628 4.628-4.628 2.639 0 4.467 1.678 4.467 4.095v.01c0 1.795-.822 2.929-2.123 2.929-.655 0-1.15-.345-1.255-.878l-.006-.034h-.094c-.233.567-.717.873-1.367.873-1.156 0-1.928-.945-1.928-2.351v-.01c0-1.345.778-2.279 1.912-2.279.583 0 1.077.296 1.294.784h.094v-.672h.945v3.155c0 .389.211.617.589.617.655 0 1.072-.828 1.072-2.106v-.01c0-2.006-1.478-3.356-3.661-3.356-2.161 0-3.701 1.617-3.701 3.895v.01c0 2.328 1.523 3.822 3.895 3.822.7 0 1.4-.094 1.734-.243v.772c-.478.155-1.112.244-1.773.244m-.294-3.139c.705 0 1.15-.567 1.15-1.456v-.01c0-.889-.445-1.456-1.139-1.456-.689 0-1.094.544-1.094 1.456v.01c0 .9.411 1.456 1.083 1.456m8.603 4c-1.533 0-2.478-.672-2.622-1.678l.011-.011h1.216l.006.011c.1.417.589.711 1.405.711.995 0 1.584-.466 1.584-1.289v-1.189h-.089c-.367.656-1.033 1.023-1.861 1.023-1.55 0-2.506-1.195-2.506-2.894v-.012c0-1.722.961-2.939 2.528-2.939.845 0 1.5.417 1.85 1.095h.072v-.989h1.2v5.911c0 1.372-1.083 2.25-2.794 2.25m-.017-3.416c1.022 0 1.639-.778 1.639-1.906v-.011c0-1.123-.622-1.911-1.639-1.911-1.028 0-1.605.788-1.605 1.911v.011c0 1.122.577 1.906 1.605 1.906m4.431 1.288v-6.033h1.206v.927h.089c.266-.66.855-1.043 1.644-1.043.822 0 1.406.427 1.672 1.077h.094c.306-.65 1.001-1.077 1.839-1.077 1.217 0 1.928.733 1.928 1.988v4.161h-1.2v-3.872c0-.833-.377-1.244-1.167-1.244-.766 0-1.272.571-1.272 1.3v3.816h-1.2v-3.994c0-.689-.45-1.122-1.161-1.122-.728 0-1.266.622-1.266 1.411v3.705zm11.697.1c-1.15 0-2-.7-2-1.794v-.011c0-1.078.811-1.706 2.25-1.795l1.633-.094v-.534c0-.66-.416-1.027-1.233-1.027-.667 0-1.105.244-1.25.672l-.005.022h-1.162l.006-.039c.144-.989 1.094-1.649 2.467-1.649 1.517 0 2.372.755 2.372 2.021v4.128h-1.195v-.855h-.094c-.356.611-.989.955-1.789.955m-.8-1.844c0 .555.473.883 1.123.883.899 0 1.56-.589 1.56-1.367v-.516l-1.472.094c-.833.05-1.211.35-1.211.894zm6.092-5.367a.755.755 0 0 1-.755-.75.755.755 0 1 1 1.511 0 .76.76 0 0 1-.756.75m-.605 7.111v-6.033h1.199v6.033zm2.897 0v-8.399h1.205v8.399zm3.813.083a.8.8 0 0 1-.816-.805c0-.455.356-.811.816-.811.462 0 .812.356.812.811 0 .45-.35.805-.812.805m4.864.034c-1.76 0-2.838-1.2-2.838-3.15v-.011c0-1.912 1.072-3.105 2.833-3.105 1.517 0 2.422.855 2.589 2.027v.028l-1.156.005-.005-.016c-.133-.595-.623-1.039-1.423-1.039-1.005 0-1.61.8-1.61 2.1v.011c0 1.333.616 2.144 1.61 2.144.756 0 1.223-.344 1.418-.994l.01-.028h1.156l-.011.05c-.217 1.172-1.078 1.978-2.573 1.978m6.393 0c-1.773 0-2.856-1.183-2.856-3.128v-.011c0-1.939 1.088-3.127 2.856-3.127 1.76 0 2.85 1.183 2.85 3.127v.011c0 1.945-1.084 3.128-2.85 3.128m0-1.006c1.033 0 1.622-.788 1.622-2.122v-.011c0-1.339-.589-2.122-1.622-2.122-1.039 0-1.622.783-1.622 2.122v.011c0 1.339.583 2.122 1.622 2.122m4.175.889v-6.033h1.205v.927h.089c.266-.66.856-1.043 1.645-1.043.822 0 1.405.427 1.672 1.077h.094c.306-.65 1-1.077 1.839-1.077 1.217 0 1.928.733 1.928 1.988v4.161h-1.2v-3.872c0-.833-.378-1.244-1.167-1.244-.766 0-1.272.571-1.272 1.3v3.816h-1.2v-3.994c0-.689-.45-1.122-1.161-1.122-.728 0-1.267.622-1.267 1.411v3.705z"/><path stroke="#9ea3a6" d="M632.889 287.645H391.111a3.91 3.91 0 0 0-3.911 3.911v36.977a3.91 3.91 0 0 0 3.911 3.912h241.778a3.91 3.91 0 0 0 3.911-3.912v-36.977a3.91 3.91 0 0 0-3.911-3.911Z"/><path fill="#fff" d="M632.889 344.533H391.111a3.91 3.91 0 0 0-3.911 3.911v36.978a3.91 3.91 0 0 0 3.911 3.911h241.778a3.91 3.91 0 0 0 3.911-3.911v-36.978a3.91 3.91 0 0 0-3.911-3.911"/><path fill="#0caaab" d="M616.401 372.17a7.111 7.111 0 1 0-12.535 0l3.121-5.111 1.658 2.854-.458-2.127 1.944-3.309 3.156 5.443-.454-2.116.444-.753z"/><path fill="#6d7377" d="M396.132 359.822v-6.012h2.342c1.179 0 1.995.791 1.995 1.97v.009c0 1.175-.816 1.979-1.995 1.979h-1.409v2.054zm2.108-5.225h-1.175v2.388h1.175c.809 0 1.279-.437 1.279-1.192v-.008c0-.75-.47-1.188-1.279-1.188m4.319 5.3c-.862 0-1.5-.525-1.5-1.346v-.008c0-.809.609-1.279 1.687-1.346l1.226-.071v-.4c0-.496-.313-.771-.926-.771-.499 0-.829.184-.937.504l-.004.017h-.871l.004-.029c.109-.741.821-1.237 1.85-1.237 1.138 0 1.78.567 1.78 1.516v3.096h-.896v-.641h-.071c-.267.458-.741.716-1.342.716m-.6-1.383c0 .416.354.663.842.663.675 0 1.171-.442 1.171-1.026v-.387l-1.105.071c-.625.037-.908.262-.908.67zm5.744 1.396c-1.092 0-1.784-.513-1.871-1.271v-.004h.904l.005.004c.112.341.441.571.979.571.558 0 .946-.255.946-.625v-.009c0-.283-.213-.475-.738-.596l-.721-.166c-.854-.196-1.25-.584-1.25-1.246v-.004c0-.787.733-1.354 1.759-1.354 1.033 0 1.696.516 1.775 1.254v.004h-.863v-.009c-.087-.316-.408-.554-.917-.554-.495 0-.854.246-.854.609v.008c0 .284.209.459.717.579l.716.163c.871.204 1.288.575 1.288 1.229v.009c0 .837-.8 1.408-1.875 1.408m4.431 0c-1.091 0-1.783-.513-1.87-1.271v-.004h.903l.005.004c.113.341.441.571.979.571.558 0 .946-.255.946-.625v-.009c0-.283-.212-.475-.738-.596l-.72-.166c-.855-.196-1.25-.584-1.25-1.246v-.004c0-.787.733-1.354 1.758-1.354 1.034 0 1.696.516 1.775 1.254v.004h-.862v-.009c-.088-.316-.409-.554-.917-.554-.496 0-.855.246-.855.609v.008c0 .284.209.459.717.579l.717.163c.871.204 1.288.575 1.288 1.229v.009c0 .837-.8 1.408-1.876 1.408m3.615-.088-1.25-4.525h.908l.813 3.492h.067l.933-3.492h.858l.934 3.492h.07l.809-3.492h.896l-1.246 4.525h-.93l-.937-3.375h-.071l-.933 3.375zm7.619.088c-1.329 0-2.142-.888-2.142-2.346v-.009c0-1.453.817-2.345 2.142-2.345 1.32 0 2.138.887 2.138 2.345v.009c0 1.458-.813 2.346-2.138 2.346m0-.755c.775 0 1.217-.591 1.217-1.591v-.009c0-1.004-.442-1.591-1.217-1.591-.779 0-1.217.587-1.217 1.591v.009c0 1.004.438 1.591 1.217 1.591m3.131.667v-4.525h.904v.684h.067c.162-.48.583-.763 1.188-.763.146 0 .304.021.395.042v.833a2.4 2.4 0 0 0-.487-.054c-.692 0-1.163.425-1.163 1.079v2.704zm4.865.075c-1.137 0-1.875-.912-1.875-2.333v-.009c0-1.433.725-2.337 1.875-2.337.62 0 1.15.308 1.391.796h.071v-2.492h.901v6.3h-.901v-.712h-.071c-.262.495-.758.787-1.391.787m.258-.771c.754 0 1.217-.595 1.217-1.562v-.009c0-.966-.467-1.562-1.217-1.562-.758 0-1.212.592-1.212 1.562v.009c0 .97.454 1.562 1.212 1.562"/><path fill="#000" d="m397.639 374.461.061-1.4-1.133.733-.45-.705 1.266-.672-1.266-.667.45-.706 1.138.733-.066-1.405h.905l-.066 1.4 1.133-.728.45.701-1.266.672 1.266.672-.45.705-1.133-.728.066 1.395zm5.309 0 .061-1.4-1.134.733-.45-.705 1.267-.672-1.267-.667.45-.706 1.139.733-.066-1.405h.905l-.067 1.4 1.134-.728.45.701-1.267.672 1.267.672-.45.705-1.134-.728.067 1.395zm5.308 0 .061-1.4-1.133.733-.45-.705 1.266-.672-1.266-.667.45-.706 1.138.733-.066-1.405h.905l-.067 1.4 1.134-.728.45.701-1.266.672 1.266.672-.45.705-1.134-.728.067 1.395zm5.309 0 .061-1.4-1.134.733-.45-.705 1.267-.672-1.267-.667.45-.706 1.139.733-.066-1.405h.905l-.067 1.4 1.133-.728.451.701-1.267.672 1.267.672-.451.705-1.133-.728.067 1.395zm5.308 0 .061-1.4-1.133.733-.451-.705 1.267-.672-1.267-.667.451-.706 1.138.733-.066-1.405h.905l-.067 1.4 1.134-.728.45.701-1.266.672 1.266.672-.45.705-1.134-.728.067 1.395zm5.308 0 .062-1.4-1.134.733-.45-.705 1.266-.672-1.266-.667.45-.706 1.139.733-.067-1.405h.906l-.067 1.4 1.133-.728.45.701-1.266.672 1.266.672-.45.705-1.133-.728.067 1.395zm5.309 0 .061-1.4-1.134.733-.45-.705 1.267-.672-1.267-.667.45-.706 1.139.733-.066-1.405h.905l-.067 1.4 1.134-.728.45.701-1.267.672 1.267.672-.45.705-1.134-.728.067 1.395zm5.308 0 .061-1.4-1.133.733-.45-.705 1.266-.672-1.266-.667.45-.706 1.138.733-.066-1.405h.906l-.067 1.4 1.133-.728.45.701-1.266.672 1.266.672-.45.705-1.133-.728.067 1.395zm5.309 0 .061-1.4-1.134.733-.45-.705 1.267-.672-1.267-.667.45-.706 1.139.733-.066-1.405h.905l-.067 1.4 1.134-.728.45.701-1.267.672 1.267.672-.45.705-1.134-.728.067 1.395zm5.308 0 .061-1.4-1.133.733-.45-.705 1.266-.672-1.266-.667.45-.706 1.138.733-.066-1.405h.905l-.066 1.4 1.133-.728.45.701-1.266.672 1.266.672-.45.705-1.133-.728.066 1.395zm5.309 0 .061-1.4-1.134.733-.45-.705 1.267-.672-1.267-.667.45-.706 1.139.733-.066-1.405h.905l-.067 1.4 1.134-.728.45.701-1.267.672 1.267.672-.45.705-1.134-.728.067 1.395zm5.308 0 .061-1.4-1.133.733-.45-.705 1.266-.672-1.266-.667.45-.706 1.138.733-.066-1.405h.905l-.067 1.4 1.134-.728.45.701-1.266.672 1.266.672-.45.705-1.134-.728.067 1.395zm5.309 0 .061-1.4-1.134.733-.45-.705 1.267-.672-1.267-.667.45-.706 1.139.733-.066-1.405h.905l-.067 1.4 1.133-.728.451.701-1.267.672 1.267.672-.451.705-1.133-.728.067 1.395z"/><path stroke="#9ea3a6" d="M632.889 344.533H391.111a3.91 3.91 0 0 0-3.911 3.911v36.978a3.91 3.91 0 0 0 3.911 3.911h241.778a3.91 3.91 0 0 0 3.911-3.911v-36.978a3.91 3.91 0 0 0-3.911-3.911Z"/><path fill="#0ba1a2" d="M524.089 110.934c0-7.069-5.731-12.8-12.8-12.8s-12.8 5.731-12.8 12.8 5.731 12.8 12.8 12.8 12.8-5.731 12.8-12.8"/><path fill="#fff" fill-rule="evenodd" d="M504.547 116.14a8.3 8.3 0 0 1-1.578-4.889c0-4.594 3.716-8.317 8.303-8.317s8.303 3.723 8.303 8.325a8.33 8.33 0 0 1-1.578 4.888l-3.989-6.496-.388.653.388 1.811-2.743-4.695-1.689 2.865.395 1.832-1.437-2.456z" clip-rule="evenodd"/><path stroke="#eaeced" d="M659.2 62.934H364.089a8.18 8.18 0 0 0-8.178 8.177V568.89a8.177 8.177 0 0 0 8.178 8.178H659.2a8.18 8.18 0 0 0 8.178-8.178V71.111a8.18 8.18 0 0 0-8.178-8.177Z"/></g></g><defs><clipPath id="a"><path fill="#fff" d="M0 0h1024v640H0z"/></clipPath><filter id="f" width="354.444" height="353.022" x="687.489" y="33.0449" color-interpolation-filters="sRGB" filterUnits="userSpaceOnUse"><feFlood flood-opacity="0" result="BackgroundImageFix"/><feColorMatrix in="SourceAlpha" result="hardAlpha" values="0 0 0 0 0 0 0 0 0 0 0 0 0 0 0 0 0 0 127 0"/><feOffset dy="14"/><feGaussianBlur stdDeviation="17.5"/><feColorMatrix values="0 0 0 0 0 0 0 0 0 0 0 0 0 0 0 0 0 0 0.1 0"/><feBlend in2="BackgroundImageFix" result="effect1_dropShadow_6149_57801"/><feBlend in="SourceGraphic" in2="effect1_dropShadow_6149_57801" result="shape"/></filter></defs></svg>