<svg xmlns="http://www.w3.org/2000/svg" fill="none" viewBox="0 0 420 366"><g clip-path="url(#a)"><rect width="196" height="196" x=".3145" y="27.5928" fill="#dbf153" rx="44" transform="rotate(-8 .314 27.593)"/><path fill="#212121" d="M105.409 123.118c-2.961.416-5.703-1.661-6.122-4.637s1.646-5.73 4.607-6.146a1.81 1.81 0 0 0 1.535-2.048l-2.526-17.972c-.418-2.976 1.646-5.729 4.607-6.145 2.96-.416 5.703 1.662 6.121 4.638l2.526 17.971c.975 6.937-3.846 13.369-10.748 14.339m-18.365-13.912c-2.96.416-5.703-1.662-6.122-4.638l-1.262-8.986c-.419-2.976 1.645-5.73 4.606-6.145 2.96-.416 5.703 1.661 6.121 4.637l1.263 8.986c.419 2.976-1.645 5.729-4.606 6.146m46.488-6.534c-2.961.416-5.704-1.661-6.122-4.638l-1.263-8.985c-.418-2.976 1.646-5.73 4.607-6.146s5.703 1.662 6.121 4.638l1.263 8.986c.418 2.976-1.645 5.729-4.606 6.145m-17.94 41.007a32.13 32.13 0 0 1-20.22-3.756 5.46 5.46 0 0 1-2.126-7.398 5.396 5.396 0 0 1 7.359-2.127c8.266 4.586 19.066 3.068 25.747-3.618 2.122-2.131 5.553-2.107 7.66.015a5.46 5.46 0 0 1-.005 7.698c-5.004 5.021-11.37 8.196-18.4 9.184zm-50.762-36.85c-2.96.417-5.703-1.661-6.12-4.637l-2.022-14.377c-1.532-10.906 6.04-21.008 16.89-22.533l14.304-2.01c2.96-.417 5.703 1.661 6.121 4.637s-1.645 5.73-4.606 6.145l-14.304 2.01c-4.927.693-8.373 5.29-7.677 10.243l2.021 14.377c.418 2.976-1.645 5.729-4.606 6.145m89.399-12.564c-2.961.416-5.703-1.661-6.122-4.638l-2.02-14.377c-.696-4.953-5.275-8.422-10.203-7.729l-14.304 2.01c-2.961.416-5.703-1.661-6.122-4.637s1.646-5.73 4.607-6.146l14.303-2.01c10.85-1.525 20.914 6.1 22.447 17.005l2.02 14.377c.418 2.976-1.645 5.729-4.606 6.145m-5.716 63.114-14.304 2.01c-2.961.416-5.704-1.662-6.122-4.638s1.645-5.729 4.606-6.145l14.304-2.01c4.928-.693 8.373-5.289 7.677-10.242l-2.02-14.378c-.419-2.976 1.645-5.729 4.606-6.145s5.703 1.662 6.121 4.638l2.021 14.377c1.533 10.905-6.04 21.008-16.889 22.533m-46.488 6.533-14.304 2.01c-10.85 1.525-20.913-6.099-22.446-17.004l-2.02-14.377c-.419-2.977 1.645-5.73 4.606-6.146s5.703 1.662 6.121 4.638l2.02 14.377c.697 4.953 5.276 8.422 10.204 7.729l14.303-2.01c2.961-.416 5.704 1.662 6.122 4.638s-1.645 5.729-4.606 6.145"/><g clip-path="url(#b)"><rect width="224" height="224" x="208.612" y="78" fill="#00cfb6" rx="48" transform="rotate(20 208.612 78)"/><g stroke="#212121" stroke-linecap="round" stroke-linejoin="round" stroke-width="11" clip-path="url(#c)"><path d="M265.26 168.694c10.834-4.135 23.149-4.54 34.879-.27 25.912 9.431 39.315 38.173 29.884 64.085-6.576 18.066-15.307 33.21-25.445 45.837m-87.63-54.154c12.967-10.285 18.193-23.379 19.105-25.885a49.7 49.7 0 0 1 11.738-18.359"/><path d="M299.407 240.362c-8.544 16.702-19.554 29.774-31.826 39.905m-42.199-31.393c13.8-8.093 26.565-21.139 34.164-42.016 4.722-12.976 19.067-19.665 32.042-14.942 11.934 4.344 18.553 16.836 15.864 28.902"/><path d="M242.148 268.083c16.492-10.616 31.593-27.13 40.89-52.674"/></g></g></g><defs><clipPath id="a"><path fill="#fff" d="M0 0h420v366H0z"/></clipPath><clipPath id="b"><rect width="224" height="224" x="208.612" y="78" fill="#fff" rx="48" transform="rotate(20 208.612 78)"/></clipPath><clipPath id="c"><path fill="#fff" d="m230.726 125.423 140.954 51.303-51.303 140.954-140.954-51.303z"/></clipPath></defs></svg>