<svg xmlns="http://www.w3.org/2000/svg" fill="none" viewBox="0 0 578 398"><g clip-path="url(#a)"><mask id="b" width="578" height="398" x="0" y="0" maskUnits="userSpaceOnUse" style="mask-type:luminance"><path fill="#fff" d="M562 0H16C7.163 0 0 7.163 0 16v366c0 8.837 7.163 16 16 16h546c8.837 0 16-7.163 16-16V16c0-8.837-7.163-16-16-16"/></mask><g mask="url(#b)"><path fill="#f8f8f8" d="M562 0H16C7.163 0 0 7.163 0 16v366c0 8.837 7.163 16 16 16h546c8.837 0 16-7.163 16-16V16c0-8.837-7.163-16-16-16"/><path fill="#fff" d="M694 170H58c-5.523 0-10 4.477-10 10v52c0 5.523 4.477 10 10 10h636c5.523 0 10-4.477 10-10v-52c0-5.523-4.477-10-10-10"/><path fill="#59c698" fill-rule="evenodd" d="M87 220h2c4.714 0 7.071 0 8.535-1.464C99 217.071 99 214.714 99 210v-6.994c0-1.487 0-2.23-.256-2.91-.255-.68-.745-1.24-1.723-2.358l-2.63-3.006c-1.177-1.345-1.765-2.017-2.553-2.375C91.05 192 90.157 192 88.37 192H87c-4.714 0-7.071 0-8.535 1.464C77 194.929 77 197.286 77 202v8c0 4.714 0 7.071 1.465 8.536C79.929 220 82.286 220 87 220m2-2h-2c-2.414 0-4.022-.004-5.22-.165-1.14-.153-1.603-.415-1.901-.714-.299-.298-.56-.761-.714-1.901-.16-1.197-.165-2.806-.165-5.22v-8c0-2.414.004-4.023.165-5.22.153-1.14.415-1.603.714-1.901.298-.299.761-.561 1.901-.714 1.198-.161 2.806-.165 5.22-.165h1.37l.63.002v1.069c0 1.354 0 2.47.119 3.354.124.928.397 1.747 1.053 2.403.656.657 1.475.929 2.403 1.053.884.119 2 .119 3.354.119h1.065c.004.265.006.593.006 1.006V210c0 2.414-.004 4.023-.165 5.22-.153 1.14-.415 1.603-.714 1.901-.298.299-.761.561-1.901.714-1.198.161-2.806.165-5.22.165m7.327-18c-.19-.23-.45-.533-.811-.945l-2.63-3.006c-1.296-1.48-1.573-1.733-1.875-1.87l-.011-.005V195c0 1.442.002 2.424.1 3.159.096.706.263 1.033.486 1.255.222.223.55.39 1.255.485.735.099 1.717.101 3.159.101z" clip-rule="evenodd"/><path fill="#59c698" fill-rule="evenodd" d="M85.36 208.43a2.22 2.22 0 0 1-2.222-2.215c0-1.223.995-2.215 2.222-2.215s2.222.992 2.222 2.215a2.22 2.22 0 0 1-2.222 2.215m9.517 5.122-3.032-6.046a1.005 1.005 0 0 0-1.668-.193l-3.426 4.099a1.005 1.005 0 0 1-1.413.128l-.853-.708a1.004 1.004 0 0 0-1.437.158l-1.853 2.4c-.508.657-.038 1.61.794 1.61H93.98a1 1 0 0 0 .897-1.448" clip-rule="evenodd"/><path fill="#383c43" d="M123.858 201.149a2.96 2.96 0 0 1-1.651-.472q-.72-.477-1.133-1.357-.408-.885-.408-2.123t.413-2.118q.417-.88 1.143-1.347a2.97 2.97 0 0 1 1.646-.468q.711 0 1.143.239.438.234.677.547.243.313.377.552h.09v-3.784h1.486V201h-1.451v-1.188h-.125a4 4 0 0 1-.387.557 2.2 2.2 0 0 1-.687.546q-.437.234-1.133.234m.328-1.268q.642 0 1.084-.338.448-.343.676-.949.234-.607.234-1.412 0-.796-.229-1.392-.228-.597-.671-.93t-1.094-.333q-.67 0-1.119.348a2.13 2.13 0 0 0-.676.95 3.9 3.9 0 0 0-.223 1.357q0 .765.228 1.377.23.612.676.969.453.353 1.114.353m8.728 1.273q-1.128 0-1.944-.482a3.3 3.3 0 0 1-1.253-1.367q-.437-.885-.437-2.073 0-1.174.437-2.069a3.4 3.4 0 0 1 1.233-1.397q.796-.502 1.86-.502.646 0 1.253.214t1.088.671q.482.458.761 1.188.279.727.278 1.765v.527h-6.07v-1.113h4.614q0-.587-.239-1.039a1.8 1.8 0 0 0-.671-.721 1.87 1.87 0 0 0-1.004-.264q-.627 0-1.094.308a2.1 2.1 0 0 0-.716.796 2.3 2.3 0 0 0-.249 1.059v.87q0 .765.269 1.302.273.537.761.821.487.278 1.138.278.423 0 .771-.119a1.59 1.59 0 0 0 .989-.97l1.407.254a2.55 2.55 0 0 1-.607 1.089 2.95 2.95 0 0 1-1.088.721q-.652.253-1.487.253m10.508-5.926-1.347.239a1.6 1.6 0 0 0-.269-.493 1.3 1.3 0 0 0-.487-.382q-.308-.15-.771-.15-.63 0-1.053.284-.423.278-.423.721 0 .382.283.616t.915.383l1.213.278q1.054.244 1.571.751t.517 1.318q0 .686-.398 1.223-.392.532-1.098.835-.701.303-1.626.303-1.283 0-2.093-.547-.81-.552-.994-1.566l1.436-.219q.135.562.552.851.418.283 1.089.283.731 0 1.168-.303.438-.309.438-.751a.78.78 0 0 0-.269-.602q-.262-.243-.81-.367l-1.293-.284q-1.068-.244-1.58-.775-.508-.532-.508-1.348 0-.675.378-1.183.378-.507 1.044-.79.666-.29 1.527-.289 1.237 0 1.948.537.712.532.94 1.427m1.644 5.772v-7.636h1.486V201zm.75-8.815a.95.95 0 0 1-.666-.258.84.84 0 0 1-.273-.627.83.83 0 0 1 .273-.626.93.93 0 0 1 .666-.263q.388 0 .662.263a.82.82 0 0 1 .278.626.84.84 0 0 1-.278.627.93.93 0 0 1-.662.258m5.798 11.838q-.91 0-1.566-.239-.652-.238-1.064-.631a2.7 2.7 0 0 1-.617-.86l1.278-.527q.134.218.358.462.228.249.616.423.393.174 1.01.174.845 0 1.397-.413.55-.408.551-1.303v-1.501h-.094q-.135.243-.388.542a2.1 2.1 0 0 1-.686.517q-.438.219-1.138.219a3.2 3.2 0 0 1-1.631-.423q-.721-.427-1.144-1.258-.417-.835-.417-2.053t.412-2.088q.418-.87 1.144-1.332a2.97 2.97 0 0 1 1.646-.468q.71 0 1.148.239.438.234.681.547.248.313.383.552h.109v-1.238h1.457v7.805q0 .984-.457 1.616a2.7 2.7 0 0 1-1.238.934q-.776.304-1.75.304m-.015-4.37q.641 0 1.084-.299a1.86 1.86 0 0 0 .676-.865q.233-.566.233-1.357 0-.77-.228-1.357a2.03 2.03 0 0 0-.672-.915q-.442-.333-1.093-.333-.672 0-1.119.348-.448.343-.676.935a3.7 3.7 0 0 0-.224 1.322q0 .751.229 1.318.228.566.676.885.453.318 1.114.318m6.8-3.187V201h-1.486v-7.636h1.426v1.243h.095q.264-.607.825-.975.567-.368 1.427-.368.78 0 1.367.328.587.324.91.965.323.64.323 1.586V201H161.8v-4.678q0-.83-.433-1.298-.432-.472-1.188-.472-.517 0-.92.224a1.6 1.6 0 0 0-.631.656q-.23.428-.229 1.034m12.463-1.238-1.347.239a1.6 1.6 0 0 0-.269-.493 1.3 1.3 0 0 0-.487-.382q-.308-.15-.771-.15-.63 0-1.053.284-.423.278-.423.721 0 .382.283.616t.915.383l1.213.278q1.054.244 1.571.751t.517 1.318q0 .686-.398 1.223-.392.532-1.098.835-.701.303-1.626.303-1.283 0-2.093-.547-.81-.552-.994-1.566l1.436-.219q.135.562.552.851.418.283 1.089.283.731 0 1.168-.303.438-.309.438-.751a.78.78 0 0 0-.269-.602q-.262-.243-.81-.367l-1.293-.284q-1.068-.244-1.58-.775-.508-.532-.508-1.348 0-.675.378-1.183.378-.507 1.044-.79.666-.29 1.527-.289 1.237 0 1.948.537.712.532.94 1.427m2.623 5.866a.97.97 0 0 1-.701-.288.96.96 0 0 1-.293-.706q0-.408.293-.696a.96.96 0 0 1 .701-.293q.407 0 .701.293a.94.94 0 0 1 .293.696q0 .273-.139.502a1 1 0 0 1-.358.358.94.94 0 0 1-.497.134m6.48-7.73v1.193h-4.316v-1.193zM176.833 201v-8.521q0-.717.313-1.189.313-.477.83-.71.517-.24 1.124-.239.447 0 .765.074.318.07.473.13l-.348 1.203q-.105-.03-.269-.07a1.5 1.5 0 0 0-.398-.044q-.541 0-.775.268-.23.268-.229.776V201zm4.525 0v-7.636h1.487V201zm.751-8.815a.95.95 0 0 1-.666-.258.84.84 0 0 1-.273-.627.83.83 0 0 1 .273-.626.93.93 0 0 1 .666-.263q.388 0 .661.263a.82.82 0 0 1 .279.626.84.84 0 0 1-.279.627.93.93 0 0 1-.661.258m4.082 4.281V201h-1.486v-7.636h1.427v1.243h.094q.264-.607.825-.975.567-.368 1.427-.368.781 0 1.367.328.587.324.91.965.324.64.323 1.586V201h-1.486v-4.678q0-.83-.433-1.298-.432-.472-1.188-.472-.517 0-.92.224a1.6 1.6 0 0 0-.631.656q-.23.428-.229 1.034m8.963 4.703q-.726 0-1.312-.268a2.2 2.2 0 0 1-.93-.791q-.338-.517-.338-1.268 0-.646.249-1.064.248-.417.671-.661a3.5 3.5 0 0 1 .944-.368 9 9 0 0 1 1.064-.189l1.114-.129q.427-.054.621-.174.194-.119.194-.388v-.034q0-.652-.368-1.01-.363-.358-1.083-.358-.751 0-1.184.333-.427.329-.591.731l-1.397-.318q.248-.696.726-1.124a2.9 2.9 0 0 1 1.108-.626 4.3 4.3 0 0 1 1.318-.199q.458 0 .969.11.517.103.965.387.452.283.74.811.29.522.289 1.357V201h-1.452v-1.044h-.06q-.144.288-.432.567a2.3 2.3 0 0 1-.741.462q-.453.184-1.084.184m.323-1.193q.617 0 1.054-.244.442-.243.672-.636.233-.398.233-.85v-.985q-.08.08-.308.15-.224.065-.512.114-.288.045-.562.084l-.457.06a3.7 3.7 0 0 0-.791.184q-.353.129-.567.373-.208.239-.208.636 0 .552.407.835.408.279 1.039.279m6.772-9.158V201h-1.486v-10.182zm2.839 10.276a.97.97 0 0 1-.701-.288.96.96 0 0 1-.293-.706q0-.408.293-.696a.96.96 0 0 1 .701-.293q.408 0 .701.293a.94.94 0 0 1 .294.696q0 .273-.14.502a1 1 0 0 1-.357.358.95.95 0 0 1-.498.134m6.011.045a4.1 4.1 0 0 1-1.342-.248 3.15 3.15 0 0 1-1.193-.796q-.537-.557-.86-1.496-.318-.94-.318-2.347 0-1.332.263-2.366.269-1.034.771-1.745a3.4 3.4 0 0 1 1.213-1.089 3.4 3.4 0 0 1 1.596-.373q.91 0 1.616.358.705.358 1.143.989.442.631.562 1.437h-1.517a1.95 1.95 0 0 0-.611-1.039q-.458-.402-1.193-.403-1.12 0-1.745.975-.622.974-.627 2.709h.075a2.8 2.8 0 0 1 .646-.736 3.04 3.04 0 0 1 1.879-.641q.885 0 1.601.433.721.427 1.149 1.183.427.756.427 1.73a3.55 3.55 0 0 1-.442 1.765 3.25 3.25 0 0 1-1.233 1.253q-.795.458-1.86.447m-.004-1.292q.586 0 1.049-.289.462-.288.73-.775a2.2 2.2 0 0 0 .269-1.089q0-.587-.264-1.069a2 2 0 0 0-.716-.766 1.9 1.9 0 0 0-1.034-.283 1.98 1.98 0 0 0-1.476.636 2.3 2.3 0 0 0-.448.686 2.1 2.1 0 0 0-.159.811q0 .572.264 1.059.268.487.731.785.466.294 1.054.294m5.745 1.247a.96.96 0 0 1-.701-.288.96.96 0 0 1-.294-.706q0-.408.294-.696a.96.96 0 0 1 .701-.293.96.96 0 0 1 .701.293.94.94 0 0 1 .293.696q0 .273-.139.502-.135.224-.358.358a.94.94 0 0 1-.497.134m6.479-7.73v1.193h-4.315v-1.193zM220.187 201v-8.521q0-.717.313-1.189.313-.477.831-.71.517-.24 1.123-.239.448 0 .766.074.318.07.472.13l-.348 1.203a8 8 0 0 0-.268-.07 1.5 1.5 0 0 0-.398-.044q-.542 0-.776.268-.228.268-.228.776V201zm4.526 0v-7.636h1.487V201zm.751-8.815a.94.94 0 0 1-.666-.258.84.84 0 0 1-.274-.627q0-.368.274-.626a.93.93 0 0 1 .666-.263q.388 0 .661.263a.82.82 0 0 1 .278.626.83.83 0 0 1-.278.627.93.93 0 0 1-.661.258m4.082 4.281V201h-1.487v-7.636h1.427v1.243h.095q.263-.607.825-.975.567-.368 1.427-.368.78 0 1.367.328a2.2 2.2 0 0 1 .91.965q.323.64.323 1.586V201h-1.487v-4.678q0-.83-.432-1.298-.433-.472-1.188-.472-.518 0-.92.224a1.6 1.6 0 0 0-.631.656q-.23.428-.229 1.034m7.72 4.628a.97.97 0 0 1-.701-.288.96.96 0 0 1-.293-.706q0-.408.293-.696a.96.96 0 0 1 .701-.293q.407 0 .701.293a.94.94 0 0 1 .293.696q0 .273-.139.502a1 1 0 0 1-.358.358.94.94 0 0 1-.497.134m2.845 2.77v-10.5h1.452v1.238h.124q.13-.24.373-.552a2.1 2.1 0 0 1 .676-.547q.433-.239 1.144-.239.925 0 1.65.468.726.467 1.139 1.347.418.879.418 2.118t-.413 2.123q-.412.88-1.134 1.357a2.93 2.93 0 0 1-1.645.472q-.696 0-1.139-.234a2.2 2.2 0 0 1-.686-.546 4 4 0 0 1-.383-.557h-.089v4.052zm1.457-6.682q0 .805.234 1.412t.676.949q.442.339 1.084.338.666 0 1.113-.353.448-.357.676-.969.234-.612.234-1.377 0-.756-.229-1.357a2.1 2.1 0 0 0-.676-.95q-.447-.348-1.118-.348-.647 0-1.094.333-.443.333-.671.93-.23.596-.229 1.392m8.531-.716V201h-1.487v-7.636h1.427v1.243h.094a2.2 2.2 0 0 1 .826-.975q.566-.368 1.426-.368.781 0 1.368.328.586.324.909.965.324.64.324 1.586V201h-1.487v-4.678q0-.83-.432-1.298-.433-.472-1.189-.472a1.85 1.85 0 0 0-.919.224 1.6 1.6 0 0 0-.632.656q-.228.428-.228 1.034m9.942 7.557q-.91 0-1.566-.239-.651-.238-1.064-.631a2.7 2.7 0 0 1-.617-.86l1.278-.527q.135.218.358.462.229.249.617.423.392.174 1.009.174.845 0 1.397-.413.552-.408.552-1.303v-1.501h-.095a3.4 3.4 0 0 1-.388.542 2.1 2.1 0 0 1-.686.517q-.437.219-1.138.219a3.2 3.2 0 0 1-1.631-.423q-.72-.427-1.143-1.258-.418-.835-.418-2.053t.413-2.088q.417-.87 1.143-1.332a2.97 2.97 0 0 1 1.646-.468q.711 0 1.148.239.438.234.681.547.25.313.383.552h.11v-1.238h1.456v7.805q0 .984-.457 1.616a2.7 2.7 0 0 1-1.238.934q-.775.304-1.75.304m-.015-4.37q.642 0 1.084-.299a1.86 1.86 0 0 0 .676-.865q.234-.566.234-1.357 0-.77-.229-1.357-.229-.586-.671-.915-.443-.333-1.094-.333-.67 0-1.119.348-.447.343-.676.935a3.7 3.7 0 0 0-.223 1.322q0 .751.228 1.318.23.566.676.885.453.318 1.114.318"/><path fill="#8a8c91" d="M124.151 212.273V221h-1.321v-7.406h-.052l-2.088 1.363v-1.261l2.178-1.423zm2.593 8.808a.83.83 0 0 1-.601-.247.83.83 0 0 1-.251-.605.8.8 0 0 1 .251-.597.82.82 0 0 1 .601-.251q.35 0 .601.251a.8.8 0 0 1 .251.597q0 .234-.119.43a.9.9 0 0 1-.307.307.8.8 0 0 1-.426.115m2.493-.081 3.81-7.534v-.064h-4.406v-1.129h5.77v1.167l-3.797 7.56zm9.711-8.727h1.598l2.778 6.784h.102l2.779-6.784h1.598V221h-1.253v-6.315h-.081l-2.574 6.302h-1.04l-2.574-6.307h-.081V221h-1.252zM149.597 221v-8.727h3.196q.929 0 1.538.307.61.301.912.822.303.516.303 1.163 0 .546-.2.921a1.65 1.65 0 0 1-.537.596 2.4 2.4 0 0 1-.733.324v.085q.434.022.848.282.417.255.69.728.273.474.273 1.151 0 .67-.315 1.202-.312.528-.964.839-.651.307-1.666.307zm1.317-1.129h1.9q.946 0 1.356-.367a1.18 1.18 0 0 0 .409-.916q0-.413-.209-.758a1.5 1.5 0 0 0-.597-.55q-.383-.205-.912-.205h-1.947zm0-3.823h1.764q.443 0 .797-.17.358-.171.567-.477.213-.312.213-.733 0-.542-.38-.908-.378-.367-1.163-.367h-1.798z"/><path fill="#fff" d="M669 258H58c-5.523 0-10 4.477-10 10v52c0 5.523 4.477 10 10 10h611c5.523 0 10-4.477 10-10v-52c0-5.523-4.477-10-10-10"/><path fill="#ff5167" fill-rule="evenodd" d="M87 308h2c4.714 0 7.071 0 8.535-1.464C99 305.071 99 302.714 99 298v-6.994c0-1.487 0-2.23-.256-2.91-.255-.68-.745-1.24-1.723-2.358l-2.63-3.006c-1.177-1.345-1.765-2.017-2.553-2.375C91.05 280 90.157 280 88.37 280H87c-4.714 0-7.071 0-8.535 1.464C77 282.929 77 285.286 77 290v8c0 4.714 0 7.071 1.465 8.536C79.929 308 82.286 308 87 308m2-2h-2c-2.414 0-4.022-.004-5.22-.165-1.14-.153-1.603-.415-1.901-.714-.299-.298-.56-.761-.714-1.901-.16-1.197-.165-2.806-.165-5.22v-8c0-2.414.004-4.023.165-5.22.153-1.14.415-1.603.714-1.901.298-.299.761-.561 1.901-.714 1.198-.161 2.806-.165 5.22-.165h1.37l.63.002v1.069c0 1.354 0 2.47.119 3.354.124.928.397 1.747 1.053 2.403.656.657 1.475.929 2.403 1.053.884.119 2 .119 3.354.119h1.065c.004.265.006.593.006 1.006V298c0 2.414-.004 4.023-.165 5.22-.153 1.14-.415 1.603-.714 1.901-.298.299-.761.561-1.901.714-1.198.161-2.806.165-5.22.165m7.327-18c-.19-.23-.45-.533-.811-.945l-2.63-3.006c-1.296-1.48-1.573-1.733-1.875-1.87l-.011-.005V283c0 1.442.002 2.424.1 3.159.096.706.263 1.033.486 1.255.222.223.55.39 1.255.485.735.099 1.717.101 3.159.101z" clip-rule="evenodd"/><path fill="#ff5167" fill-rule="evenodd" d="M87.243 289.061c.432-.132.842-.025 1.123.086.794.314 1.034 1.091 1.1 1.628.072.577.003 1.252-.13 1.931q-.052.254-.115.521a26 26 0 0 0 2.17 3.642 9 9 0 0 1 .913-.005c.665.034 1.408.162 1.958.573.3.224.55.539.668.949.115.4.079.802-.032 1.168-.102.34-.277.701-.594.971a1.55 1.55 0 0 1-1.155.364c-.677-.059-1.283-.514-1.726-.921a10 10 0 0 1-.94-1.004c-.798.11-1.69.297-2.596.541-.543.146-1.077.31-1.583.483a13 13 0 0 1-1.084 1.491c-.444.52-.95.995-1.501 1.27-.582.291-1.343.405-2.036-.077-.293-.203-.59-.531-.666-1.007-.073-.461.097-.848.27-1.107.324-.486.896-.885 1.452-1.201.615-.351 1.383-.696 2.223-1.012a23 23 0 0 0 .965-1.86 22.5 22.5 0 0 0 1.174-3.072 13 13 0 0 1-.612-1.615 5.5 5.5 0 0 1-.195-.896c-.031-.269-.04-.602.058-.925.111-.362.383-.76.891-.916m.209 1.808-.007-.015zm.915 4.998c-.193.489-.403.98-.626 1.46l-.079.169a25 25 0 0 1 1.501-.339 28 28 0 0 1-.796-1.29m-5.644 5.134.005-.001z" clip-rule="evenodd"/><path fill="#383c43" d="M122.486 284.466V289h-1.487v-10.182h1.467v3.789h.094q.269-.617.821-.98t1.441-.363q.786 0 1.373.323.591.323.914.965.329.636.329 1.591V289h-1.487v-4.678q0-.84-.433-1.303-.432-.467-1.203-.467-.527 0-.944.224a1.6 1.6 0 0 0-.652.656q-.233.428-.233 1.034m10.012 4.688q-1.074 0-1.875-.492a3.3 3.3 0 0 1-1.242-1.377q-.443-.885-.443-2.068 0-1.189.443-2.079a3.3 3.3 0 0 1 1.242-1.382q.801-.492 1.875-.492t1.874.492 1.243 1.382q.442.89.442 2.079 0 1.183-.442 2.068a3.3 3.3 0 0 1-1.243 1.377q-.8.492-1.874.492m.005-1.248q.696 0 1.153-.368.457-.367.676-.979a3.9 3.9 0 0 0 .224-1.347q0-.731-.224-1.343a2.2 2.2 0 0 0-.676-.989q-.457-.373-1.153-.373-.701 0-1.164.373a2.2 2.2 0 0 0-.681.989 4 4 0 0 0-.218 1.343q0 .735.218 1.347.223.612.681.979.463.369 1.164.368M139 289l-2.247-7.636h1.536l1.496 5.608h.075l1.501-5.608h1.537l1.491 5.583h.075l1.486-5.583h1.536L145.244 289h-1.516l-1.551-5.513h-.115L140.511 289zm14.256-4.947v1.288h-4.514v-1.288zm5.406-2.689v1.193h-4.171v-1.193zm-3.052-1.83h1.486v7.224q0 .432.129.651.13.214.333.293.21.075.453.075.179 0 .313-.025.135-.024.209-.04l.268 1.228a2.9 2.9 0 0 1-.964.159 2.6 2.6 0 0 1-1.094-.208 1.9 1.9 0 0 1-.82-.677q-.313-.456-.313-1.148zm7.691 9.62q-1.074 0-1.874-.492a3.3 3.3 0 0 1-1.243-1.377q-.443-.885-.443-2.068 0-1.189.443-2.079a3.3 3.3 0 0 1 1.243-1.382q.8-.492 1.874-.492t1.874.492 1.243 1.382.443 2.079q0 1.183-.443 2.068a3.3 3.3 0 0 1-1.243 1.377q-.8.492-1.874.492m.005-1.248q.696 0 1.153-.368.458-.367.677-.979a3.9 3.9 0 0 0 .223-1.347q0-.731-.223-1.343a2.2 2.2 0 0 0-.677-.989q-.457-.373-1.153-.373-.7 0-1.163.373a2.2 2.2 0 0 0-.681.989 4 4 0 0 0-.219 1.343q0 .735.219 1.347.224.612.681.979.462.369 1.163.368m9.573-3.853v1.288h-4.514v-1.288zM174.84 289v-10.182h1.486v3.784h.09q.129-.24.373-.552.243-.313.676-.547.432-.239 1.143-.239a3 3 0 0 1 1.651.468q.726.466 1.138 1.347.418.879.418 2.118t-.413 2.123q-.413.88-1.133 1.357a2.94 2.94 0 0 1-1.646.472q-.696 0-1.138-.234a2.1 2.1 0 0 1-.686-.546 4 4 0 0 1-.383-.557h-.125V289zm1.456-3.818q0 .805.234 1.412t.676.949q.443.338 1.084.338.666 0 1.114-.353a2.2 2.2 0 0 0 .676-.969q.234-.612.234-1.377 0-.756-.229-1.357a2.1 2.1 0 0 0-.676-.95q-.448-.348-1.119-.348-.646 0-1.094.333-.442.333-.671.93-.229.596-.229 1.392m10.339 3.972q-1.128 0-1.944-.482a3.3 3.3 0 0 1-1.252-1.367q-.438-.885-.438-2.073 0-1.174.438-2.069a3.4 3.4 0 0 1 1.233-1.397q.795-.502 1.859-.502.646 0 1.253.214t1.089.671q.482.458.76 1.188.279.726.279 1.765v.527h-6.071v-1.113h4.614q0-.587-.239-1.039a1.8 1.8 0 0 0-.671-.721 1.87 1.87 0 0 0-1.004-.264q-.627 0-1.094.308a2.1 2.1 0 0 0-.716.796 2.3 2.3 0 0 0-.248 1.059v.87q0 .765.268 1.302.273.537.761.821a2.26 2.26 0 0 0 1.138.278q.423 0 .771-.119a1.59 1.59 0 0 0 .989-.97l1.407.254a2.56 2.56 0 0 1-.606 1.089 3 3 0 0 1-1.089.721q-.651.253-1.487.253m9.285-5.101v1.288h-4.514v-1.288zm7.564-.825-1.348.239a1.6 1.6 0 0 0-.268-.493 1.3 1.3 0 0 0-.487-.382q-.309-.15-.771-.15-.631 0-1.054.284-.423.278-.422.721 0 .382.283.616t.915.383l1.213.278q1.053.244 1.571.751.516.507.517 1.318 0 .686-.398 1.223-.393.531-1.099.835-.7.303-1.625.303-1.283 0-2.093-.547-.811-.552-.995-1.566l1.437-.219q.135.562.552.851.417.283 1.089.283.73 0 1.168-.303.438-.309.438-.751a.78.78 0 0 0-.269-.602q-.264-.243-.81-.367l-1.293-.284q-1.068-.244-1.581-.775-.507-.532-.507-1.348 0-.676.378-1.183t1.044-.79q.666-.29 1.526-.289 1.238 0 1.949.537.71.532.94 1.427m3.866 5.941a3.1 3.1 0 0 1-1.313-.268 2.2 2.2 0 0 1-.93-.791q-.338-.517-.338-1.268 0-.646.249-1.064.249-.417.671-.661a3.5 3.5 0 0 1 .945-.368 9 9 0 0 1 1.064-.189l1.113-.129q.427-.054.622-.174.194-.119.194-.388v-.034q0-.652-.368-1.01-.364-.358-1.084-.358-.751 0-1.183.333-.428.329-.592.731l-1.397-.318q.249-.695.726-1.124a2.9 2.9 0 0 1 1.108-.626 4.3 4.3 0 0 1 1.318-.199q.457 0 .969.11.518.103.965.387.452.283.741.811.288.522.288 1.357V289h-1.452v-1.044h-.059a2.1 2.1 0 0 1-.433.567 2.3 2.3 0 0 1-.741.462q-.452.184-1.083.184m.323-1.193q.616 0 1.054-.244.442-.243.671-.636a1.65 1.65 0 0 0 .234-.85v-.985q-.08.08-.309.15-.224.065-.512.114-.288.045-.562.084l-.457.06a3.7 3.7 0 0 0-.79.184q-.354.129-.567.373-.209.238-.209.636 0 .552.408.835.407.279 1.039.279m8.919-6.612v1.193h-4.315v-1.193zM213.46 289v-8.521q0-.717.313-1.189.314-.477.831-.71.517-.24 1.123-.239.448 0 .766.074.318.07.472.13l-.348 1.203a8 8 0 0 0-.268-.07 1.5 1.5 0 0 0-.398-.044q-.542 0-.776.268-.228.268-.228.776V289zm7.516.154q-1.128 0-1.944-.482a3.3 3.3 0 0 1-1.252-1.367q-.438-.885-.438-2.073 0-1.174.438-2.069a3.4 3.4 0 0 1 1.233-1.397q.795-.502 1.859-.502.646 0 1.253.214t1.089.671q.482.458.76 1.188.279.726.279 1.765v.527h-6.071v-1.113h4.614q0-.587-.239-1.039a1.8 1.8 0 0 0-.671-.721 1.87 1.87 0 0 0-1.004-.264q-.627 0-1.094.308a2.1 2.1 0 0 0-.716.796 2.3 2.3 0 0 0-.248 1.059v.87q0 .765.268 1.302.273.537.761.821a2.26 2.26 0 0 0 1.138.278q.423 0 .771-.119a1.59 1.59 0 0 0 .989-.97l1.407.254a2.56 2.56 0 0 1-.606 1.089 3 3 0 0 1-1.089.721q-.651.253-1.487.253m9.285-5.101v1.288h-4.514v-1.288zm5.058 5.101q-1.074 0-1.874-.492a3.3 3.3 0 0 1-1.243-1.377q-.443-.885-.443-2.068 0-1.189.443-2.079a3.3 3.3 0 0 1 1.243-1.382q.8-.492 1.874-.492t1.874.492 1.243 1.382.443 2.079q0 1.183-.443 2.068a3.3 3.3 0 0 1-1.243 1.377q-.8.492-1.874.492m.005-1.248q.696 0 1.153-.368.458-.367.677-.979a3.9 3.9 0 0 0 .223-1.347q0-.731-.223-1.343a2.2 2.2 0 0 0-.677-.989q-.457-.373-1.153-.373-.7 0-1.163.373a2.2 2.2 0 0 0-.681.989 4 4 0 0 0-.219 1.343q0 .735.219 1.347.223.612.681.979.462.369 1.163.368m6.56-3.44V289h-1.486v-7.636h1.427v1.243h.094a2.2 2.2 0 0 1 .826-.975q.566-.368 1.426-.368.78 0 1.368.328.587.323.909.965.324.64.324 1.586V289h-1.487v-4.678q0-.83-.432-1.298-.433-.472-1.189-.472a1.85 1.85 0 0 0-.919.224 1.6 1.6 0 0 0-.632.656q-.228.428-.229 1.034m8.228-5.648V289h-1.487v-10.182zM251.971 289v-7.636h1.487V289zm.751-8.815a.95.95 0 0 1-.666-.258.84.84 0 0 1-.273-.627.83.83 0 0 1 .273-.626.93.93 0 0 1 .666-.263q.388 0 .661.263a.82.82 0 0 1 .279.626.84.84 0 0 1-.279.627.93.93 0 0 1-.661.258m4.082 4.281V289h-1.486v-7.636h1.427v1.243h.094q.264-.607.825-.975.567-.368 1.427-.368.781 0 1.367.328.588.323.91.965.323.64.323 1.586V289h-1.486v-4.678q0-.83-.433-1.298-.432-.472-1.188-.472-.517 0-.92.224a1.6 1.6 0 0 0-.631.656q-.229.428-.229 1.034m10.032 4.688q-1.128 0-1.944-.482a3.3 3.3 0 0 1-1.253-1.367q-.437-.885-.437-2.073 0-1.174.437-2.069a3.4 3.4 0 0 1 1.233-1.397q.796-.502 1.86-.502.646 0 1.253.214t1.088.671q.482.458.761 1.188.278.726.278 1.765v.527h-6.07v-1.113h4.614q0-.587-.239-1.039a1.8 1.8 0 0 0-.671-.721 1.87 1.87 0 0 0-1.004-.264q-.627 0-1.094.308a2.1 2.1 0 0 0-.716.796 2.3 2.3 0 0 0-.249 1.059v.87q0 .765.269 1.302.273.537.761.821.487.278 1.138.278.423 0 .771-.119a1.59 1.59 0 0 0 .989-.97l1.407.254a2.55 2.55 0 0 1-.607 1.089 2.95 2.95 0 0 1-1.088.721q-.651.253-1.487.253m5.765-.06a.97.97 0 0 1-.701-.288.96.96 0 0 1-.293-.706q0-.408.293-.696a.96.96 0 0 1 .701-.293q.408 0 .701.293a.94.94 0 0 1 .294.696q0 .274-.14.502a1 1 0 0 1-.358.358.94.94 0 0 1-.497.134m2.846 2.77v-10.5h1.451v1.238h.125q.129-.24.372-.552.244-.313.677-.547.432-.239 1.143-.239a3 3 0 0 1 1.651.468q.726.466 1.138 1.347.418.879.418 2.118t-.413 2.123q-.413.88-1.133 1.357a2.94 2.94 0 0 1-1.646.472q-.697 0-1.138-.234a2.2 2.2 0 0 1-.687-.546 4 4 0 0 1-.382-.557h-.09v4.052zm1.456-6.682q0 .805.234 1.412t.676.949q.442.338 1.084.338.666 0 1.114-.353a2.2 2.2 0 0 0 .676-.969q.233-.612.233-1.377 0-.756-.228-1.357a2.1 2.1 0 0 0-.676-.95q-.449-.348-1.119-.348-.647 0-1.094.333-.443.333-.671.93-.228.596-.229 1.392m9.903 3.967a2.96 2.96 0 0 1-1.651-.472q-.72-.477-1.133-1.357-.408-.885-.408-2.123t.413-2.118q.417-.88 1.143-1.347a2.97 2.97 0 0 1 1.646-.468q.711 0 1.143.239.438.234.676.547.245.313.378.552h.09v-3.784h1.486V289h-1.451v-1.188h-.125a4 4 0 0 1-.387.557 2.2 2.2 0 0 1-.687.546q-.437.234-1.133.234m.328-1.268q.642 0 1.084-.338.447-.343.676-.949.234-.607.234-1.412 0-.796-.229-1.392-.229-.597-.671-.93t-1.094-.333q-.67 0-1.119.348a2.13 2.13 0 0 0-.676.95 3.9 3.9 0 0 0-.223 1.357q0 .765.228 1.377.23.612.676.969.453.353 1.114.353m9.071-6.517v1.193h-4.315v-1.193zM293.073 289v-8.521q0-.717.313-1.189.313-.477.831-.71.517-.24 1.123-.239.447 0 .766.074.318.07.472.13l-.348 1.203a8 8 0 0 0-.268-.07 1.5 1.5 0 0 0-.398-.044q-.542 0-.776.268-.228.268-.228.776V289z"/><path fill="#8a8c91" d="M123.886 309.119a3.5 3.5 0 0 1-1.15-.213 2.7 2.7 0 0 1-1.023-.682q-.46-.477-.737-1.282-.273-.806-.273-2.012 0-1.142.226-2.028.23-.887.66-1.496.43-.613 1.04-.933t1.368-.32q.78 0 1.385.307a2.6 2.6 0 0 1 .98.848q.38.542.482 1.232h-1.3a1.68 1.68 0 0 0-.524-.891q-.392-.345-1.023-.345-.959 0-1.496.835-.532.835-.537 2.323h.064q.227-.372.554-.631.333-.264.742-.405a2.6 2.6 0 0 1 .869-.145q.759 0 1.372.371.618.366.985 1.014.366.648.366 1.483t-.379 1.513q-.375.678-1.057 1.074-.682.392-1.594.383m-.004-1.108q.503 0 .899-.247a1.8 1.8 0 0 0 .627-.665q.23-.417.23-.933 0-.502-.226-.916a1.7 1.7 0 0 0-.614-.656 1.63 1.63 0 0 0-.886-.243q-.38 0-.703.145-.32.144-.563.4a2 2 0 0 0-.383.588 1.89 1.89 0 0 0 .089 1.603q.23.417.627.673.4.251.903.251m4.924 1.07a.83.83 0 0 1-.6-.247.83.83 0 0 1-.252-.605q0-.35.252-.597a.82.82 0 0 1 .6-.251q.35 0 .601.251a.8.8 0 0 1 .252.597q0 .234-.12.43a.9.9 0 0 1-.306.307.8.8 0 0 1-.427.115m4.679-8.808V309h-1.321v-7.406h-.051l-2.088 1.363v-1.261l2.177-1.423zm5.416 0h1.598l2.778 6.784h.102l2.779-6.784h1.598V309h-1.253v-6.315h-.081l-2.574 6.302h-1.04l-2.574-6.307h-.08V309h-1.253zM149.55 309v-8.727h3.196q.93 0 1.539.307.609.302.912.822.302.516.302 1.163 0 .546-.2.921a1.65 1.65 0 0 1-.537.596 2.4 2.4 0 0 1-.733.324v.085q.435.022.848.282.417.255.69.728t.273 1.151q0 .67-.315 1.202-.312.528-.963.839-.652.307-1.667.307zm1.317-1.129h1.901q.945 0 1.355-.367a1.18 1.18 0 0 0 .409-.916q0-.414-.209-.758a1.5 1.5 0 0 0-.597-.55q-.382-.205-.912-.205h-1.947zm0-3.823h1.764q.444 0 .797-.17.358-.171.567-.477.213-.312.213-.733 0-.542-.379-.908-.38-.367-1.164-.367h-1.798z"/><path fill="#fff" d="M701 346H58c-5.523 0-10 4.477-10 10v52c0 5.523 4.477 10 10 10h643c5.523 0 10-4.477 10-10v-52c0-5.523-4.477-10-10-10"/><path fill="#ff7853" fill-rule="evenodd" d="M87 396h2c4.714 0 7.071 0 8.535-1.464C99 393.071 99 390.714 99 386v-6.994c0-1.487 0-2.23-.256-2.91-.255-.68-.745-1.24-1.723-2.358l-2.63-3.006c-1.177-1.345-1.765-2.017-2.553-2.375C91.05 368 90.157 368 88.37 368H87c-4.714 0-7.071 0-8.535 1.464C77 370.929 77 373.286 77 378v8c0 4.714 0 7.071 1.465 8.536C79.929 396 82.286 396 87 396m2-2h-2c-2.414 0-4.022-.004-5.22-.165-1.14-.153-1.603-.415-1.901-.714-.299-.298-.56-.761-.714-1.901-.16-1.197-.165-2.806-.165-5.22v-8c0-2.414.004-4.023.165-5.22.153-1.14.415-1.603.714-1.901.298-.299.761-.561 1.901-.714 1.198-.161 2.806-.165 5.22-.165h1.37l.63.002v1.069c0 1.354 0 2.47.119 3.354.124.928.397 1.747 1.053 2.403.656.657 1.475.929 2.403 1.053.884.119 2 .119 3.354.119h1.065c.004.265.006.593.006 1.006V386c0 2.414-.004 4.023-.165 5.22-.153 1.14-.415 1.603-.714 1.901-.298.299-.761.561-1.901.714-1.198.161-2.806.165-5.22.165m7.327-18c-.19-.23-.45-.533-.811-.945l-2.63-3.006c-1.296-1.48-1.573-1.733-1.875-1.87l-.011-.005V371c0 1.442.002 2.424.1 3.159.096.706.263 1.033.486 1.255.222.223.55.39 1.255.485.735.099 1.717.101 3.159.101z" clip-rule="evenodd"/><path fill="#ff7853" fill-rule="evenodd" d="M92.083 385.295c.557 0 1.022-.458.895-1.001a4.4 4.4 0 0 0-3.273-3.273c-.543-.127-1 .337-1 .894v2.37c0 .557.45 1.01 1.008 1.01zm.023 2.099c.12-.544-.342-1.002-.9-1.002h-2.59a1.007 1.007 0 0 1-1.008-1.008v-2.591c0-.557-.458-1.02-1.002-.899a4.608 4.608 0 1 0 5.5 5.5" clip-rule="evenodd"/><path fill="#383c43" d="M120.999 377v-7.636h1.487V377zm.751-8.815a.94.94 0 0 1-.666-.258.84.84 0 0 1-.274-.627.83.83 0 0 1 .274-.626.93.93 0 0 1 .666-.263q.388 0 .661.263a.82.82 0 0 1 .279.626.84.84 0 0 1-.279.627.93.93 0 0 1-.661.258m2.596 8.815v-7.636h1.426v1.243h.095q.239-.632.78-.985.542-.358 1.298-.358.765 0 1.283.358.522.358.77.985h.08q.273-.612.87-.975.597-.368 1.422-.368 1.039 0 1.695.651.661.652.661 1.964V377h-1.486v-4.982q0-.775-.423-1.123a1.54 1.54 0 0 0-1.009-.348q-.726 0-1.129.447-.402.443-.402 1.139V377h-1.482v-5.076q0-.621-.388-.999t-1.009-.378q-.423 0-.78.224a1.63 1.63 0 0 0-.572.611 1.9 1.9 0 0 0-.214.91V377zm12.233 2.864v-10.5h1.451v1.238h.125q.129-.24.373-.552.243-.313.676-.547.432-.239 1.143-.239a3 3 0 0 1 1.651.468q.726.466 1.138 1.347.418.879.418 2.118t-.413 2.123q-.413.88-1.133 1.357a2.94 2.94 0 0 1-1.646.472q-.696 0-1.138-.234a2.2 2.2 0 0 1-.687-.546 4 4 0 0 1-.382-.557h-.09v4.052zm1.456-6.682q0 .805.234 1.412t.676.949q.442.338 1.084.338.666 0 1.114-.353a2.2 2.2 0 0 0 .676-.969q.233-.612.233-1.377 0-.756-.228-1.357a2.1 2.1 0 0 0-.676-.95q-.448-.348-1.119-.348-.647 0-1.094.333-.443.333-.671.93-.228.596-.229 1.392m10.261 3.972q-1.074 0-1.874-.492a3.3 3.3 0 0 1-1.243-1.377q-.443-.886-.443-2.068 0-1.189.443-2.079a3.3 3.3 0 0 1 1.243-1.382q.8-.492 1.874-.492t1.874.492 1.243 1.382.443 2.079q0 1.183-.443 2.068a3.3 3.3 0 0 1-1.243 1.377q-.8.492-1.874.492m.005-1.248q.696 0 1.153-.368.458-.367.676-.979.225-.612.224-1.347 0-.731-.224-1.343a2.2 2.2 0 0 0-.676-.989q-.457-.373-1.153-.373-.7 0-1.163.373a2.23 2.23 0 0 0-.682.989 4 4 0 0 0-.218 1.343q0 .735.218 1.347.225.612.682.979.462.368 1.163.368m5.074 1.094v-7.636h1.437v1.213h.079a1.85 1.85 0 0 1 .736-.97 2.1 2.1 0 0 1 1.203-.358 7 7 0 0 1 .631.035v1.422a3 3 0 0 0-.318-.055 3 3 0 0 0-.457-.035q-.527 0-.94.224a1.67 1.67 0 0 0-.885 1.497V377zm9.249-7.636v1.193h-4.171v-1.193zm-3.053-1.83h1.487v7.224q0 .432.129.651a.67.67 0 0 0 .333.293q.209.075.452.075.18 0 .314-.025.134-.024.208-.04l.269 1.228a2.9 2.9 0 0 1-.965.159 2.6 2.6 0 0 1-1.093-.208 1.9 1.9 0 0 1-.821-.677q-.312-.456-.313-1.148zm6.779 9.635q-.726 0-1.312-.268a2.2 2.2 0 0 1-.93-.791q-.338-.517-.338-1.268 0-.646.249-1.064.248-.417.671-.661.423-.243.944-.368a9 9 0 0 1 1.064-.189l1.114-.129q.428-.054.621-.174.195-.119.194-.388v-.034q0-.652-.368-1.01-.363-.358-1.083-.358-.751 0-1.184.333-.427.329-.591.731l-1.397-.318q.248-.695.726-1.124a2.9 2.9 0 0 1 1.108-.626 4.3 4.3 0 0 1 1.318-.199q.457 0 .969.11.517.103.965.387.452.283.74.811.29.522.289 1.357V377h-1.452v-1.044h-.06q-.144.288-.432.567a2.3 2.3 0 0 1-.741.462q-.452.184-1.084.184m.323-1.193q.617 0 1.054-.244.442-.243.672-.636.233-.398.233-.85v-.985q-.079.08-.308.15-.224.065-.512.114-.288.045-.562.084l-.457.06a3.7 3.7 0 0 0-.791.184q-.353.129-.566.373-.21.238-.209.636 0 .552.407.835.409.279 1.039.279m6.772-3.51V377h-1.486v-7.636h1.427v1.243h.094q.264-.607.825-.975.567-.368 1.427-.368.781 0 1.367.328.587.323.91.965.323.64.323 1.586V377h-1.486v-4.678q0-.83-.433-1.298-.432-.472-1.188-.472-.517 0-.92.224a1.6 1.6 0 0 0-.631.656q-.23.428-.229 1.034m10.306-3.102v1.193h-4.172v-1.193zm-3.053-1.83h1.487v7.224q0 .432.129.651a.67.67 0 0 0 .333.293q.209.075.452.075.18 0 .313-.025.135-.024.209-.04l.269 1.228a2.9 2.9 0 0 1-.965.159 2.6 2.6 0 0 1-1.093-.208 1.9 1.9 0 0 1-.821-.677q-.313-.456-.313-1.148zm8.796 4.519v1.288h-4.514v-1.288zm4.7 5.096a2.96 2.96 0 0 1-1.65-.472q-.721-.477-1.134-1.357-.407-.885-.407-2.123t.412-2.118q.418-.88 1.144-1.347a2.97 2.97 0 0 1 1.645-.468q.71 0 1.144.239.437.234.676.547.243.313.378.552h.089v-3.784h1.487V377h-1.452v-1.188h-.124a4 4 0 0 1-.388.557 2.2 2.2 0 0 1-.686.546q-.438.234-1.134.234m.328-1.268q.642 0 1.084-.338.448-.343.676-.949.234-.607.234-1.412 0-.796-.229-1.392-.228-.597-.671-.93-.442-.333-1.094-.333-.67 0-1.118.348a2.13 2.13 0 0 0-.676.95 3.9 3.9 0 0 0-.224 1.357q0 .765.229 1.377.228.612.676.969.452.353 1.113.353m8.728 1.273q-1.128 0-1.943-.482a3.27 3.27 0 0 1-1.253-1.367q-.438-.885-.438-2.073 0-1.174.438-2.069a3.4 3.4 0 0 1 1.233-1.397q.795-.502 1.859-.502.647 0 1.253.214t1.089.671q.482.458.76 1.188.279.726.279 1.765v.527h-6.071v-1.113h4.614q0-.587-.239-1.039a1.8 1.8 0 0 0-.671-.721 1.87 1.87 0 0 0-1.004-.264q-.627 0-1.094.308a2.1 2.1 0 0 0-.716.796 2.3 2.3 0 0 0-.248 1.059v.87q0 .765.268 1.302.274.537.761.821a2.26 2.26 0 0 0 1.138.278q.423 0 .771-.119.348-.125.602-.368t.387-.602l1.407.254a2.55 2.55 0 0 1-.606 1.089 3 3 0 0 1-1.089.721q-.651.253-1.487.253m8.003 0q-1.109 0-1.909-.502a3.3 3.3 0 0 1-1.223-1.397q-.428-.89-.428-2.038 0-1.163.438-2.054a3.35 3.35 0 0 1 1.233-1.397q.795-.502 1.874-.502.87 0 1.551.323.68.319 1.099.895.422.577.502 1.348h-1.447a1.73 1.73 0 0 0-.547-.925q-.422-.388-1.133-.388-.622 0-1.089.328-.462.324-.721.925-.258.596-.259 1.412 0 .835.254 1.442.254.606.716.939.467.333 1.099.333.422 0 .765-.154a1.6 1.6 0 0 0 .582-.452q.239-.294.333-.706h1.447a2.8 2.8 0 0 1-.482 1.322 2.8 2.8 0 0 1-1.079.915q-.672.333-1.576.333m5.954-2.744-.01-1.815h.258l3.043-3.231h1.78l-3.471 3.679h-.233zm-1.368 2.59v-10.182h1.487V377zm4.823 0-2.734-3.629 1.024-1.039 3.534 4.668zm3.81.094a.96.96 0 0 1-.701-.288.96.96 0 0 1-.293-.706q0-.408.293-.696a.96.96 0 0 1 .701-.293q.407 0 .701.293a.94.94 0 0 1 .293.696q0 .274-.139.502-.135.224-.358.358a.94.94 0 0 1-.497.134m2.845 2.77v-10.5h1.452v1.238h.124q.13-.24.373-.552a2.1 2.1 0 0 1 .676-.547q.433-.239 1.144-.239.924 0 1.65.468.726.466 1.139 1.347.417.879.417 2.118t-.412 2.123q-.412.88-1.134 1.357a2.93 2.93 0 0 1-1.645.472q-.696 0-1.139-.234a2.15 2.15 0 0 1-.686-.546 4 4 0 0 1-.383-.557h-.089v4.052zm1.457-6.682q0 .805.234 1.412.233.606.676.949.442.338 1.084.338.666 0 1.113-.353.448-.357.676-.969.234-.612.234-1.377 0-.756-.229-1.357a2.1 2.1 0 0 0-.676-.95q-.447-.348-1.118-.348-.647 0-1.094.333-.443.333-.671.93-.23.596-.229 1.392m7.044 6.682v-10.5h1.452v1.238h.124q.129-.24.373-.552t.676-.547q.432-.239 1.143-.239a3 3 0 0 1 1.651.468q.726.466 1.138 1.347.418.879.418 2.118t-.413 2.123q-.413.88-1.133 1.357a2.94 2.94 0 0 1-1.646.472q-.696 0-1.138-.234a2.1 2.1 0 0 1-.686-.546 4 4 0 0 1-.383-.557h-.09v4.052zm1.457-6.682q0 .805.233 1.412.234.606.676.949.443.338 1.084.338.666 0 1.114-.353a2.2 2.2 0 0 0 .676-.969q.234-.612.234-1.377 0-.756-.229-1.357a2.1 2.1 0 0 0-.676-.95q-.448-.348-1.119-.348-.646 0-1.094.333-.442.333-.671.93-.228.596-.228 1.392m10.608-3.818v1.193h-4.171v-1.193zm-3.052-1.83h1.486v7.224q0 .432.129.651.13.214.333.293.21.075.453.075.179 0 .313-.025.135-.024.209-.04l.268 1.228a2.9 2.9 0 0 1-.964.159 2.6 2.6 0 0 1-1.094-.208 1.9 1.9 0 0 1-.82-.677q-.313-.456-.313-1.148z"/><path fill="#8a8c91" d="M120.839 397v-.955l2.954-3.059q.473-.5.779-.874.312-.38.465-.72.153-.341.153-.724 0-.435-.204-.75a1.34 1.34 0 0 0-.558-.49 1.8 1.8 0 0 0-.797-.175q-.47 0-.819.192a1.3 1.3 0 0 0-.536.541 1.7 1.7 0 0 0-.188.818h-1.257q0-.797.366-1.393.367-.597 1.006-.925a3.1 3.1 0 0 1 1.453-.333q.823 0 1.449.329.632.323.984.886.354.559.354 1.261 0 .486-.183.951-.179.464-.626 1.035-.449.567-1.245 1.376l-1.734 1.816v.064h3.929V397zm8.096.081a.82.82 0 0 1-.6-.247.83.83 0 0 1-.252-.605q0-.35.252-.597a.82.82 0 0 1 .6-.251q.35 0 .601.251a.8.8 0 0 1 .252.597q0 .234-.12.43a.9.9 0 0 1-.306.307.8.8 0 0 1-.427.115m5.162.038a3.3 3.3 0 0 1-1.44-.307 2.6 2.6 0 0 1-1.014-.852 2.25 2.25 0 0 1-.405-1.236h1.278q.048.563.499.925.452.363 1.082.362.503 0 .891-.23.392-.234.614-.643.225-.41.225-.933 0-.533-.23-.951a1.7 1.7 0 0 0-.635-.656 1.8 1.8 0 0 0-.92-.243q-.396 0-.797.136a1.9 1.9 0 0 0-.648.358l-1.206-.179.49-4.397h4.799v1.129h-3.703l-.277 2.442h.051a2 2 0 0 1 .677-.414q.426-.166.912-.166a2.68 2.68 0 0 1 2.404 1.415q.361.652.358 1.5.004.848-.384 1.513a2.8 2.8 0 0 1-1.065 1.048q-.678.38-1.556.379m7.616-8.846h1.598l2.779 6.784h.102l2.778-6.784h1.598V397h-1.253v-6.315h-.081l-2.573 6.302h-1.04l-2.574-6.307h-.081V397h-1.253zm10.65 8.727v-8.727h3.196q.929 0 1.538.307.609.302.912.822.303.516.303 1.163 0 .546-.201.921a1.6 1.6 0 0 1-.537.596 2.4 2.4 0 0 1-.733.324v.085q.435.022.848.282.418.255.691.728t.272 1.151q0 .67-.315 1.202-.31.528-.963.839-.652.307-1.666.307zm1.316-1.129h1.901q.946 0 1.355-.367.41-.366.409-.916 0-.413-.209-.758a1.5 1.5 0 0 0-.596-.55 1.9 1.9 0 0 0-.912-.205h-1.948zm0-3.823h1.765q.443 0 .797-.17.357-.171.566-.477.213-.312.213-.733a1.2 1.2 0 0 0-.379-.908q-.38-.367-1.163-.367h-1.799z"/><g filter="url(#c)"><path fill="#fff" d="M277 40H58c-5.523 0-10 4.477-10 10v72c0 5.523 4.477 10 10 10h219c5.523 0 10-4.477 10-10V50c0-5.523-4.477-10-10-10"/><path fill="#383c43" fill-rule="evenodd" d="M166.986 65.49a5.18 5.18 0 0 1 3.64-1.49 5.18 5.18 0 0 1 3.64 1.49 5.08 5.08 0 0 1 1.513 3.614 5.08 5.08 0 0 1-1.513 3.614l-6.364 6.288a3.1 3.1 0 0 1-2.171.89 3.1 3.1 0 0 1-2.172-.89 3.04 3.04 0 0 1-.905-2.162c0-.814.327-1.591.905-2.163l6.364-6.288a1 1 0 1 1 1.406 1.423l-6.364 6.288a1.04 1.04 0 0 0 0 1.48 1.09 1.09 0 0 0 1.531-.001l6.364-6.288a3.08 3.08 0 0 0 .919-2.19 3.08 3.08 0 0 0-.919-2.192 3.18 3.18 0 0 0-2.234-.913c-.84 0-1.644.33-2.234.913l-6.364 6.288a5.12 5.12 0 0 0-1.528 3.643 5.12 5.12 0 0 0 1.528 3.642A5.27 5.27 0 0 0 165.731 82a5.27 5.27 0 0 0 3.702-1.514l6.364-6.289a1 1 0 1 1 1.406 1.423l-6.364 6.288A7.27 7.27 0 0 1 165.731 84a7.27 7.27 0 0 1-5.109-2.092 7.12 7.12 0 0 1-2.122-5.064 7.12 7.12 0 0 1 2.122-5.065z" clip-rule="evenodd"/><path fill="#333740" d="M135.408 105h-1.63l3.664-10.182h1.775L142.881 105h-1.631l-2.879-8.332h-.079zm.274-3.987h5.29v1.292h-5.29zm11.636-3.65v1.194h-4.171v-1.194zm-3.053-1.829h1.487v7.224q0 .432.129.651a.67.67 0 0 0 .333.293q.208.075.453.075.178 0 .313-.025l.209-.04.268 1.228a2.9 2.9 0 0 1-.964.159 2.6 2.6 0 0 1-1.094-.208 1.9 1.9 0 0 1-.821-.677q-.312-.456-.313-1.148zm8.262 1.83v1.193h-4.171v-1.194zm-3.053-1.83h1.487v7.224q0 .432.129.651a.67.67 0 0 0 .333.293q.209.075.453.075.178 0 .313-.025l.209-.04.268 1.228a2.9 2.9 0 0 1-.964.159 2.6 2.6 0 0 1-1.094-.208 1.9 1.9 0 0 1-.821-.677q-.312-.456-.313-1.148zm6.919 9.635q-.725 0-1.312-.268a2.2 2.2 0 0 1-.93-.791q-.338-.517-.338-1.268 0-.646.249-1.064.249-.417.671-.661a3.5 3.5 0 0 1 .945-.368 9 9 0 0 1 1.063-.189l1.114-.129q.427-.054.622-.174.193-.119.193-.388v-.035q0-.65-.367-1.009-.363-.358-1.084-.358-.751 0-1.183.333-.429.33-.592.731l-1.397-.318q.249-.696.726-1.124a2.9 2.9 0 0 1 1.108-.626 4.3 4.3 0 0 1 1.318-.199q.457 0 .969.11.518.104.965.387.451.285.741.81.288.523.288 1.358V105h-1.452v-1.044h-.059a2.2 2.2 0 0 1-.433.567 2.3 2.3 0 0 1-.741.462q-.452.184-1.084.184m.324-1.193q.616 0 1.054-.244.442-.243.671-.636.233-.398.233-.85v-.985q-.079.08-.308.15-.224.065-.512.114-.288.045-.562.084l-.457.06a3.7 3.7 0 0 0-.791.184q-.353.129-.566.373-.21.239-.209.636 0 .552.408.835.407.279 1.039.279m8.641 1.178q-1.108 0-1.909-.502a3.33 3.33 0 0 1-1.223-1.397q-.427-.89-.427-2.038 0-1.163.437-2.054a3.36 3.36 0 0 1 1.233-1.397q.796-.502 1.875-.502.87 0 1.551.323.681.318 1.098.895.423.578.503 1.347h-1.447a1.74 1.74 0 0 0-.547-.924q-.423-.388-1.134-.388-.621 0-1.088.328-.463.324-.721.925-.26.596-.259 1.412 0 .835.254 1.442.253.606.716.939.467.333 1.098.333.423 0 .766-.154a1.6 1.6 0 0 0 .582-.452q.239-.294.333-.706h1.447a2.8 2.8 0 0 1-.483 1.322 2.77 2.77 0 0 1-1.079.915q-.67.333-1.576.333m6.214-4.688V105h-1.487V94.818h1.467v3.788h.094q.269-.615.821-.979.552-.363 1.441-.363.785 0 1.373.323.591.323.914.965.328.636.328 1.591V105h-1.486v-4.678q0-.84-.433-1.303-.432-.467-1.203-.467-.527 0-.944.223-.413.224-.652.657-.233.428-.233 1.034m14.274-3.102v1.193h-4.315v-1.194zM182.714 105v-8.521q0-.717.314-1.189.312-.477.83-.71a2.65 2.65 0 0 1 1.123-.24 3.4 3.4 0 0 1 .766.075q.318.07.472.13l-.348 1.203a7 7 0 0 0-.268-.07 1.5 1.5 0 0 0-.398-.045q-.542 0-.775.269-.23.268-.229.775V105zm4.666 0v-7.636h1.487V105zm.751-8.815a.94.94 0 0 1-.666-.258.84.84 0 0 1-.274-.627q0-.368.274-.626a.93.93 0 0 1 .666-.264q.388 0 .661.264a.82.82 0 0 1 .278.626q0 .363-.278.627a.93.93 0 0 1-.661.258m4.222-1.367V105h-1.487V94.818zm5.291 10.336q-1.128 0-1.944-.482a3.3 3.3 0 0 1-1.253-1.367q-.437-.885-.437-2.073 0-1.174.437-2.069a3.4 3.4 0 0 1 1.233-1.397q.796-.502 1.86-.502.645 0 1.252.214.608.213 1.089.671.482.457.761 1.188.278.726.278 1.765v.527h-6.07v-1.113h4.614q0-.587-.239-1.04a1.8 1.8 0 0 0-.671-.72 1.9 1.9 0 0 0-1.004-.264 1.94 1.94 0 0 0-1.094.308 2.07 2.07 0 0 0-.716.796 2.3 2.3 0 0 0-.249 1.059v.87q0 .765.269 1.302.273.537.76.821.488.278 1.139.278.423 0 .771-.119a1.6 1.6 0 0 0 .989-.97l1.407.254a2.55 2.55 0 0 1-.607 1.089 2.95 2.95 0 0 1-1.088.721q-.652.253-1.487.253"/><path stroke="#eaedf0" d="M277 40.5H58a9.5 9.5 0 0 0-9.5 9.5v72a9.5 9.5 0 0 0 9.5 9.5h219a9.5 9.5 0 0 0 9.5-9.5V50a9.5 9.5 0 0 0-9.5-9.5Z"/></g><path fill="#fff" d="M501 50.5H313a9.5 9.5 0 0 0-9.5 9.5v52a9.5 9.5 0 0 0 9.5 9.5h188a9.5 9.5 0 0 0 9.5-9.5V60a9.5 9.5 0 0 0-9.5-9.5"/><path fill="#383c43" d="M398.994 74a.99.99 0 0 0-.993.986L398 76v1c0 3.771 0 5.657 1.172 6.828S402.229 85 406 85h2c3.771 0 5.657 0 6.828-1.172S416 80.771 416 77v-1l-.001-1.014a.99.99 0 0 0-.993-.986 1.01 1.01 0 0 0-1.007 1.015L414 76v1c0 1.942-.004 3.198-.129 4.123-.116.867-.305 1.139-.457 1.291-.152.153-.424.34-1.291.457-.925.125-2.181.129-4.123.129h-2c-1.942 0-3.198-.004-4.123-.129-.867-.116-1.139-.304-1.291-.457-.152-.152-.341-.424-.457-1.291-.125-.925-.129-2.18-.129-4.123v-1l.001-.985A1.01 1.01 0 0 0 398.994 74"/><path fill="#383c43" fill-rule="evenodd" d="M403.269 71.706a.95.95 0 0 1 .049-1.371L407 67l3.682 3.335a.95.95 0 0 1 .049 1.37 1.02 1.02 0 0 1-1.413.048L408 70.56v7.47c0 .536-.456.97-1 .97s-1-.434-1-.97v-7.47l-1.318 1.193a1.02 1.02 0 0 1-1.413-.047" clip-rule="evenodd"/><path fill="#333740" d="M396.125 97.565a1.24 1.24 0 0 0-.563-.937q-.494-.337-1.244-.337a2.3 2.3 0 0 0-.929.17q-.391.167-.609.46a1.1 1.1 0 0 0-.213.661.97.97 0 0 0 .145.537q.149.225.387.38.244.149.52.25.278.099.533.163l.852.221q.418.102.857.277.438.175.814.46.375.287.605.708.234.422.234 1.01 0 .741-.383 1.317-.38.575-1.104.907-.72.333-1.743.333-.98 0-1.696-.311-.716-.312-1.121-.882-.405-.576-.447-1.364h1.321q.038.473.307.788.273.312.694.465.426.149.934.149.558 0 .992-.175.44-.179.691-.494.25-.32.251-.746a.92.92 0 0 0-.221-.635 1.65 1.65 0 0 0-.593-.409 6 6 0 0 0-.839-.285l-1.031-.282q-1.049-.285-1.662-.84-.61-.552-.61-1.465 0-.754.409-1.317a2.7 2.7 0 0 1 1.108-.873q.7-.315 1.577-.316.886 0 1.564.311.681.311 1.074.857.392.541.409 1.244zm4.135 2.549V104h-1.275v-8.727h1.258v3.247h.081q.23-.528.703-.84.473-.31 1.235-.31.673 0 1.177.276.507.277.784.827.28.546.281 1.364V104h-1.274v-4.01q0-.72-.371-1.116-.37-.401-1.031-.401a1.7 1.7 0 0 0-.81.192 1.4 1.4 0 0 0-.558.562q-.2.367-.2.887m7.849 4.031q-.623 0-1.125-.23a1.9 1.9 0 0 1-.797-.678q-.29-.442-.29-1.086 0-.555.213-.912.213-.359.576-.567.362-.209.809-.315.449-.106.912-.162l.955-.111q.366-.047.533-.15.166-.101.166-.332v-.03q0-.558-.316-.865-.31-.306-.929-.306-.643 0-1.014.285a1.53 1.53 0 0 0-.507.626l-1.197-.272a2.3 2.3 0 0 1 .622-.963q.413-.372.95-.537.537-.17 1.129-.17.393 0 .831.093.444.09.827.332.388.243.635.695.247.447.247 1.163V104h-1.244v-.895h-.051a1.8 1.8 0 0 1-.371.486 2 2 0 0 1-.635.396 2.5 2.5 0 0 1-.929.158m.277-1.023q.528 0 .903-.209.38-.209.576-.545.2-.34.2-.729v-.844q-.068.07-.264.128-.192.056-.439.098l-.482.073-.392.051a3 3 0 0 0-.677.158q-.303.11-.486.319-.179.205-.179.546 0 .473.349.716.35.238.891.238m4.65.878v-6.546h1.232v1.04h.068q.178-.528.631-.83a1.8 1.8 0 0 1 1.031-.308 6 6 0 0 1 .541.03v1.219a2 2 0 0 0-.273-.047q-.195-.03-.392-.03-.451 0-.805.192a1.42 1.42 0 0 0-.759 1.283V104zm7.192.132q-.967 0-1.666-.413a2.8 2.8 0 0 1-1.074-1.172q-.375-.759-.375-1.777 0-1.007.375-1.773.38-.766 1.057-1.197.682-.43 1.594-.43.553 0 1.074.182.519.184.933.576t.652 1.018q.239.622.239 1.513v.452h-5.204v-.955h3.955q0-.503-.205-.89a1.55 1.55 0 0 0-.575-.618 1.6 1.6 0 0 0-.861-.226q-.537 0-.937.264-.396.26-.614.682a2 2 0 0 0-.213.908v.745q0 .657.23 1.117.235.46.652.703.418.239.976.239.363 0 .661-.103.297-.106.515-.315a1.4 1.4 0 0 0 .333-.516l1.206.218q-.145.532-.52.933-.371.396-.934.618a3.5 3.5 0 0 1-1.274.217"/><path stroke="#eaedf0" d="M501 50.5H313a9.5 9.5 0 0 0-9.5 9.5v52a9.5 9.5 0 0 0 9.5 9.5h188a9.5 9.5 0 0 0 9.5-9.5V60a9.5 9.5 0 0 0-9.5-9.5Z"/><path fill="#fff" d="M725 50.5H537a9.5 9.5 0 0 0-9.5 9.5v52a9.5 9.5 0 0 0 9.5 9.5h188a9.5 9.5 0 0 0 9.5-9.5V60a9.5 9.5 0 0 0-9.5-9.5"/><path stroke="#eaedf0" d="M725 50.5H537a9.5 9.5 0 0 0-9.5 9.5v52a9.5 9.5 0 0 0 9.5 9.5h188a9.5 9.5 0 0 0 9.5-9.5V60a9.5 9.5 0 0 0-9.5-9.5Z"/><path fill="#000" d="M251.469 142.156c.234.547.062 1.125-.469 1.328l-2.578 1.047c-.5.203-1.047-.015-1.266-.578l-4.578-11.297-3.844 4.266c-.687.812-1.89.359-1.89-.703l.265-20.891c0-1 1.063-1.39 1.75-.687l14.703 15.015c.75.75.235 1.875-.796 1.813l-6.032-.344z"/></g></g><defs><clipPath id="a"><path fill="#fff" d="M0 0h578v398H0z"/></clipPath><filter id="c" width="309" height="162" x="13" y="19" color-interpolation-filters="sRGB" filterUnits="userSpaceOnUse"><feFlood flood-opacity="0" result="BackgroundImageFix"/><feColorMatrix in="SourceAlpha" result="hardAlpha" values="0 0 0 0 0 0 0 0 0 0 0 0 0 0 0 0 0 0 127 0"/><feOffset dy="14"/><feGaussianBlur stdDeviation="17.5"/><feColorMatrix values="0 0 0 0 0 0 0 0 0 0 0 0 0 0 0 0 0 0 0.1 0"/><feBlend in2="BackgroundImageFix" result="effect1_dropShadow_6149_58000"/><feBlend in="SourceGraphic" in2="effect1_dropShadow_6149_58000" result="shape"/></filter></defs></svg>