<svg xmlns="http://www.w3.org/2000/svg" fill="none" viewBox="0 0 650 202"><g clip-path="url(#a)"><path fill="url(#b)" d="M0 10C0 4.477 4.477 0 10 0h630c5.523 0 10 4.477 10 10v182c0 5.523-4.477 10-10 10H10c-5.523 0-10-4.477-10-10z"/><g filter="url(#c)"><path fill="#ff003c" fill-opacity=".2" d="M325 556c-7.796 0-19.086-6.208-29.032-12.685C146.505 446.151 50 331.713 50 216.196 50 114.174 120.43 44 207.258 44 261.29 44 301.344 74.229 325 118.222 348.925 73.959 388.979 44 443.011 44 529.57 44 600 114.174 600 216.196c0 115.517-96.505 229.955-245.699 327.119C344.355 549.792 332.796 556 325 556"/></g><path stroke="#f95f83" d="m296.241 542.896-.001-.001C146.801 445.747 50.5 331.44 50.5 216.196 50.5 114.42 120.735 44.5 207.258 44.5c53.814 0 93.715 30.095 117.302 73.959l.439.817.441-.816c23.855-44.134 63.756-73.96 117.571-73.96 86.253 0 156.489 69.92 156.489 171.696 0 57.615-24.066 114.999-66.797 170.136S428.595 494.333 354.028 542.896c-4.962 3.232-10.316 6.389-15.394 8.737-5.09 2.353-9.848 3.867-13.634 3.867s-8.475-1.513-13.498-3.866c-5.01-2.348-10.297-5.505-15.261-8.738Z"/><g filter="url(#d)"><path fill="#ff003c" fill-opacity=".2" d="M325 602c-9.213 0-22.556-7.323-34.311-14.965C114.052 472.412 0 337.412 0 201.138 0 80.783 83.236-2 185.85-2 249.707-2 297.043 33.66 325 85.56 353.275 33.341 400.611-2 464.467-2 566.764-2 650 80.783 650 201.138c0 136.274-114.052 271.274-290.371 385.897C347.874 594.677 334.213 602 325 602"/></g><path stroke="#f95f83" d="m324.56 85.796.439.816.441-.815C353.644 33.71 400.828-1.5 464.467-1.5 566.46-1.5 649.5 81.03 649.5 201.138c0 67.993-28.453 135.706-78.961 200.761S447.486 529.324 359.356 586.616c-5.867 3.814-12.198 7.541-18.204 10.313-6.019 2.778-11.657 4.571-16.152 4.571-4.494 0-10.051-1.792-15.991-4.57-5.926-2.772-12.179-6.499-18.047-10.314l-.265.407.264-.407c-88.288-57.292-160.913-119.662-211.46-184.717C28.951 336.844.5 269.131.5 201.138.5 81.031 83.54-1.5 185.85-1.5c63.639 0 110.823 35.527 138.71 87.296Z"/><g filter="url(#e)"><path fill="#ff003c" fill-opacity=".2" d="M325 648c-10.63 0-26.026-8.439-39.589-17.244C81.598 498.674-50 343.11-50 186.079-50 47.393 46.041-48 164.443-48 238.123-48 292.742-6.908 325 52.896 357.625-7.274 412.243-48 485.924-48 603.959-48 700 47.393 700 186.079c0 157.031-131.598 312.595-335.044 444.677C351.393 639.561 335.631 648 325 648"/></g><path stroke="#f95f83" d="m324.56 53.134.439.813.441-.812C357.994-6.906 412.46-47.5 485.924-47.5 603.655-47.5 699.5 47.64 699.5 186.079c0 78.371-32.839 156.415-91.125 231.387-58.285 74.973-141.999 146.849-243.691 212.871-6.771 4.395-14.08 8.692-21.015 11.889-6.948 3.202-13.465 5.274-18.669 5.274-5.203 0-11.628-2.071-18.483-5.273-6.844-3.196-14.061-7.493-20.834-11.89l-.254.391.253-.392c-101.875-66.021-185.68-137.897-244.012-212.87C-16.66 342.494-49.5 264.45-49.5 186.079-49.5 47.641 46.345-47.5 164.443-47.5c73.463 0 127.929 40.96 160.117 100.634Z"/></g><defs><filter id="c" width="550" height="514" x="50" y="42" color-interpolation-filters="sRGB" filterUnits="userSpaceOnUse"><feFlood flood-opacity="0" result="BackgroundImageFix"/><feBlend in="SourceGraphic" in2="BackgroundImageFix" result="shape"/><feColorMatrix in="SourceAlpha" result="hardAlpha" values="0 0 0 0 0 0 0 0 0 0 0 0 0 0 0 0 0 0 127 0"/><feOffset dy="-2"/><feGaussianBlur stdDeviation="2"/><feComposite in2="hardAlpha" k2="-1" k3="1" operator="arithmetic"/><feColorMatrix values="0 0 0 0 0.895833 0 0 0 0 0.249042 0 0 0 0 0.0447917 0 0 0 0.25 0"/><feBlend in2="shape" result="effect1_innerShadow_4212_183857"/></filter><filter id="d" width="650" height="606" x="0" y="-4" color-interpolation-filters="sRGB" filterUnits="userSpaceOnUse"><feFlood flood-opacity="0" result="BackgroundImageFix"/><feBlend in="SourceGraphic" in2="BackgroundImageFix" result="shape"/><feColorMatrix in="SourceAlpha" result="hardAlpha" values="0 0 0 0 0 0 0 0 0 0 0 0 0 0 0 0 0 0 127 0"/><feOffset dy="-2"/><feGaussianBlur stdDeviation="2"/><feComposite in2="hardAlpha" k2="-1" k3="1" operator="arithmetic"/><feColorMatrix values="0 0 0 0 0.895833 0 0 0 0 0.249042 0 0 0 0 0.0447917 0 0 0 0.25 0"/><feBlend in2="shape" result="effect1_innerShadow_4212_183857"/></filter><filter id="e" width="750" height="698" x="-50" y="-50" color-interpolation-filters="sRGB" filterUnits="userSpaceOnUse"><feFlood flood-opacity="0" result="BackgroundImageFix"/><feBlend in="SourceGraphic" in2="BackgroundImageFix" result="shape"/><feColorMatrix in="SourceAlpha" result="hardAlpha" values="0 0 0 0 0 0 0 0 0 0 0 0 0 0 0 0 0 0 127 0"/><feOffset dy="-2"/><feGaussianBlur stdDeviation="2"/><feComposite in2="hardAlpha" k2="-1" k3="1" operator="arithmetic"/><feColorMatrix values="0 0 0 0 0.895833 0 0 0 0 0.249042 0 0 0 0 0.0447917 0 0 0 0.25 0"/><feBlend in2="shape" result="effect1_innerShadow_4212_183857"/></filter><linearGradient id="b" x1="325" x2="325" y1="19.2758" y2="238.637" gradientUnits="userSpaceOnUse"><stop stop-color="#f95f83"/><stop offset="1" stop-color="#e03712"/></linearGradient><clipPath id="a"><path fill="#fff" d="M0 10C0 4.477 4.477 0 10 0h630c5.523 0 10 4.477 10 10v182c0 5.523-4.477 10-10 10H10c-5.523 0-10-4.477-10-10z"/></clipPath></defs></svg>