<svg xmlns="http://www.w3.org/2000/svg" fill="none" viewBox="0 0 976 423"><g clip-path="url(#a)"><mask id="k" width="976" height="423" x="0" y="0" fill="#000" maskUnits="userSpaceOnUse"><path fill="#fff" d="M0 0h976v423H0z"/><path d="M0 1h965c5.523 0 10 4.477 10 10v412H0z"/></mask><path fill="#fff" d="M0 1h965c5.523 0 10 4.477 10 10v412H0z"/><path fill="#fdfdfd" d="M-465 17c0-5.6 0-8.4 1.09-10.54a10 10 0 0 1 4.37-4.37C-457.401 1-454.601 1-449 1H959c5.601 0 8.401 0 10.54 1.09a10 10 0 0 1 4.37 4.37C975 8.6 975 11.4 975 17v36H-465z"/><g fill="#717171" clip-path="url(#b)"><path d="M875.008 28.374a.773.773 0 0 0 .771-.763v-8.343l-.058-1.228.506.606 1.16 1.235a.68.68 0 0 0 .514.224c.381 0 .696-.274.696-.663 0-.208-.083-.357-.224-.498l-2.776-2.679c-.199-.199-.39-.265-.589-.265-.207 0-.389.066-.588.265l-2.785 2.68a.66.66 0 0 0-.223.497c0 .39.306.663.687.663.191 0 .39-.074.523-.224l1.16-1.235.514-.614-.067 1.236v8.343c0 .414.348.763.779.763M870.227 35h9.546c1.799 0 2.727-.929 2.727-2.704v-8.152c0-1.775-.928-2.704-2.727-2.704h-2.237v1.65h2.13c.754 0 1.185.399 1.185 1.195v7.862c0 .796-.431 1.194-1.185 1.194h-9.332c-.762 0-1.185-.398-1.185-1.194v-7.862c0-.796.423-1.194 1.185-1.194h2.155v-1.65h-2.262c-1.791 0-2.727.92-2.727 2.703v8.152c0 1.775.936 2.704 2.727 2.704M910 33c.527 0 .953-.428.953-.913v-5.15h5.102c.51 0 .945-.419.945-.937a.954.954 0 0 0-.945-.938h-5.102v-5.149c0-.494-.426-.913-.953-.913-.519 0-.953.42-.953.913v5.15h-5.102c-.493 0-.945.427-.945.937 0 .518.452.938.945.938h5.102v5.149c0 .485.434.913.953.913m30.728-1.965h1.409v1.252c0 1.774.937 2.703 2.728 2.703h8.407c1.791 0 2.728-.93 2.728-2.703V23.82c0-1.774-.937-2.703-2.728-2.703h-1.409v-1.243c0-1.774-.937-2.703-2.728-2.703h-8.407c-1.799 0-2.728.928-2.728 2.703v8.457c0 1.782.929 2.703 2.728 2.703m.108-1.65c-.763 0-1.186-.398-1.186-1.203v-8.158c0-.804.423-1.194 1.186-1.194h8.191c.755 0 1.186.39 1.186 1.194v1.094h-5.348c-1.791 0-2.728.929-2.728 2.703v5.564zm4.137 3.946c-.763 0-1.178-.398-1.178-1.194V23.97c0-.796.415-1.194 1.178-1.194h8.191c.763 0 1.186.398 1.186 1.194v8.166c0 .796-.423 1.194-1.186 1.194z"/></g><path fill="#f0f0f0" d="M-24.75 22.6c0-3.36 0-5.04.654-6.324a6 6 0 0 1 2.622-2.622C-20.19 13-18.51 13-15.15 13h539.8c3.36 0 5.04 0 6.324.654a6 6 0 0 1 2.622 2.622c.654 1.284.654 2.964.654 6.324v8.8c0 3.36 0 5.04-.654 6.324a6 6 0 0 1-2.622 2.622C529.69 41 528.01 41 524.65 41h-539.8c-3.36 0-5.04 0-6.324-.654a6 6 0 0 1-2.622-2.622c-.654-1.283-.654-2.964-.654-6.324z"/><path fill="#9c9c9c" d="M212.395 32.912h5.683c.785 0 1.172-.387 1.172-1.242v-4.39c0-.773-.316-1.166-.973-1.23v-1.447c0-2.227-1.482-3.3-3.041-3.3s-3.041 1.073-3.041 3.3v1.464c-.609.094-.972.48-.972 1.213v4.389c0 .855.386 1.242 1.172 1.242m.925-8.414c0-1.365.868-2.115 1.916-2.115 1.043 0 1.916.75 1.916 2.115v1.541l-3.832.006z"/><path fill="#4c4c4c" d="M229.52 25.049q.861 0 1.503.424.35.24.711.697v-.923h1.135v6.658q0 1.395-.41 2.201-.765 1.49-2.892 1.49-1.182 0-1.989-.532-.806-.527-.902-1.655h1.251q.088.492.355.759.417.41 1.313.41 1.415 0 1.852-.998.26-.588.24-2.099a2.4 2.4 0 0 1-.889.834q-.52.274-1.374.274-1.19 0-2.085-.841-.89-.848-.889-2.796 0-1.84.896-2.87.902-1.034 2.174-1.033m2.214 3.76q0-1.361-.56-2.017a1.8 1.8 0 0 0-1.429-.656q-1.299 0-1.777 1.217-.253.649-.253 1.702 0 1.238.499 1.886.506.643 1.353.643 1.326 0 1.867-1.196.3-.678.3-1.58m5.9 2.898q1.224 0 1.675-.923.458-.93.458-2.064 0-1.026-.329-1.668-.519-1.012-1.791-1.012-1.127 0-1.64.861-.513.862-.513 2.079 0 1.168.513 1.948t1.627.779m.048-6.74q1.415 0 2.392.943.978.944.978 2.776 0 1.77-.862 2.925-.861 1.155-2.672 1.156-1.511 0-2.4-1.019-.889-1.026-.889-2.748 0-1.845.937-2.94.936-1.093 2.516-1.093m7.745 6.74q1.224 0 1.675-.923.458-.93.458-2.064 0-1.026-.329-1.668-.519-1.012-1.791-1.012-1.128 0-1.64.861-.513.862-.513 2.079 0 1.168.513 1.948t1.627.779m.048-6.74q1.414 0 2.392.943.978.944.978 2.776 0 1.77-.862 2.925-.861 1.155-2.672 1.156-1.511 0-2.4-1.019-.888-1.026-.889-2.748 0-1.845.937-2.94.936-1.093 2.516-1.093m7.423.082q.862 0 1.504.424.35.24.711.697v-.923h1.135v6.658q0 1.395-.41 2.201-.766 1.49-2.892 1.49-1.182 0-1.989-.532-.807-.527-.902-1.655h1.251q.088.492.355.759.417.41 1.313.41 1.415 0 1.852-.998.26-.588.239-2.099a2.4 2.4 0 0 1-.888.834q-.52.274-1.374.274-1.19 0-2.085-.841-.89-.848-.889-2.796 0-1.84.896-2.87.902-1.034 2.173-1.033m2.215 3.76q0-1.361-.56-2.017a1.8 1.8 0 0 0-1.429-.656q-1.299 0-1.777 1.217-.253.649-.253 1.702 0 1.238.499 1.886.506.643 1.353.643 1.326 0 1.866-1.196.301-.678.301-1.58m3.029-6.351h1.23V32.5h-1.23zm6.131 2.557q.78 0 1.511.369.732.362 1.114.943.37.555.493 1.292.11.506.109 1.613h-5.366q.034 1.114.526 1.791.492.67 1.525.67.963 0 1.538-.635.327-.37.465-.855h1.209q-.047.404-.321.902a3.2 3.2 0 0 1-.601.807q-.561.547-1.388.738-.444.11-1.005.11-1.367 0-2.317-.991-.951-.998-.951-2.79 0-1.763.957-2.864.958-1.1 2.502-1.1m1.962 3.24q-.075-.8-.348-1.278-.506-.89-1.689-.89-.847 0-1.422.616-.573.609-.608 1.552zm3.077 2.755h1.428v1.49h-1.428zm6.425-6.043q1.238 0 2.01.601.78.602.937 2.072h-1.197q-.11-.677-.499-1.121-.389-.452-1.251-.452-1.176 0-1.681 1.149-.328.745-.328 1.839 0 1.1.464 1.852.465.752 1.463.752.766 0 1.21-.465.451-.47.622-1.285h1.197q-.205 1.456-1.026 2.133-.82.67-2.098.67-1.436 0-2.29-1.046-.855-1.053-.855-2.625 0-1.927.937-3.001.936-1.073 2.385-1.073m7.082 6.74q1.224 0 1.675-.923.458-.93.458-2.064 0-1.026-.328-1.668-.519-1.012-1.791-1.012-1.128 0-1.641.861-.512.862-.512 2.079 0 1.168.512 1.948.513.78 1.627.779m.048-6.74q1.416 0 2.393.943.977.944.977 2.776 0 1.77-.861 2.925t-2.673 1.156q-1.51 0-2.399-1.019-.89-1.026-.889-2.748 0-1.845.937-2.94.936-1.093 2.515-1.093m4.84.212h1.217v1.039q.437-.54.793-.786a2.4 2.4 0 0 1 1.381-.417q.874 0 1.408.43.3.246.547.725.41-.588.964-.868a2.66 2.66 0 0 1 1.244-.287q1.476 0 2.01 1.066.287.574.287 1.545V32.5h-1.279v-5.086q0-.732-.369-1.005-.362-.273-.889-.273-.725 0-1.25.485-.52.486-.52 1.62V32.5H292v-4.778q0-.746-.178-1.087-.28-.513-1.046-.513-.696 0-1.271.54-.567.54-.567 1.955V32.5h-1.231z"/><path fill="#787878" d="M522.08 25.732a.53.53 0 0 0 .41-.164l2.403-2.42a.59.59 0 0 0 0-.86l-2.403-2.444a.52.52 0 0 0-.41-.176.576.576 0 0 0-.568.586c0 .158.058.287.158.398l1.4 1.371a6 6 0 0 0-.838-.064 5.2 5.2 0 0 0-5.22 5.227 5.23 5.23 0 0 0 5.238 5.244 5.226 5.226 0 0 0 5.238-5.244c0-.352-.246-.604-.597-.604-.34 0-.569.252-.569.604a4.06 4.06 0 0 1-4.072 4.078 4.065 4.065 0 0 1-4.072-4.078c0-2.28 1.799-4.084 4.054-4.084.381 0 .733.029 1.043.082l-1.599 1.582a.53.53 0 0 0-.164.392c0 .322.252.574.568.574"/><g filter="url(#c)"><rect width="400" height="304" x="551" y="77" fill="#fff" rx="20"/><path fill="#0caaab" fill-rule="evenodd" d="M579.665 127.5a14.13 14.13 0 0 1-2.665-8.286c0-7.795 6.268-14.114 14-14.114s14 6.319 14 14.114c0 3.096-.989 5.959-2.665 8.286l-6.724-11.009-.649 1.105.659 3.074L591 112.7l-2.858 4.865.665 3.105-2.422-4.173z" clip-rule="evenodd"/><rect width="31" height="31" x="895.5" y="101.5" fill="#fff" rx="15.5"/><path fill="#44474e" d="M905.578 121.289a.81.81 0 0 0 .007 1.128.816.816 0 0 0 1.127.007l4.285-4.292 4.292 4.292a.81.81 0 0 0 1.127-.007c.301-.315.308-.827 0-1.128l-4.285-4.291 4.285-4.285a.804.804 0 0 0 0-1.128c-.315-.301-.826-.308-1.127-.007l-4.292 4.292-4.285-4.292c-.294-.294-.826-.308-1.127.007a.817.817 0 0 0-.007 1.128l4.292 4.285z"/><rect width="31" height="31" x="895.5" y="101.5" stroke="#b9babd" rx="15.5"/><path fill="#000" d="M576.264 168v-14.545h3.075v12.009h6.236V168zm16.02.213q-1.654 0-2.862-.703a4.8 4.8 0 0 1-1.854-1.974q-.653-1.272-.653-2.948 0-1.69.653-2.954a4.76 4.76 0 0 1 1.854-1.975q1.207-.71 2.862-.71t2.855.71a4.74 4.74 0 0 1 1.861 1.975q.654 1.263.653 2.954 0 1.676-.653 2.948a4.8 4.8 0 0 1-1.861 1.974q-1.2.703-2.855.703m.014-2.344q.753 0 1.257-.426.505-.433.76-1.179.263-.746.263-1.697t-.263-1.698q-.255-.746-.76-1.179-.504-.433-1.257-.433-.76 0-1.278.433-.512.433-.774 1.179-.256.745-.256 1.698 0 .951.256 1.697.262.745.774 1.179.518.426 1.278.426m12.037 6.449q-1.47 0-2.521-.405-1.044-.398-1.662-1.086a3.34 3.34 0 0 1-.802-1.549l2.798-.376q.128.326.405.611.276.284.731.454.462.178 1.122.178.988 0 1.627-.483.646-.476.646-1.598v-1.996h-.128a2.9 2.9 0 0 1-.596.86q-.397.404-1.023.66t-1.491.256q-1.23 0-2.238-.568-1-.576-1.598-1.755-.59-1.185-.589-2.997 0-1.854.604-3.096.603-1.243 1.605-1.861a4.14 4.14 0 0 1 2.208-.618q.917 0 1.535.312.617.306.994.767.384.455.589.895h.114v-1.832h3.004v11.016q0 1.392-.682 2.329-.681.938-1.889 1.406-1.2.477-2.763.476m.064-6.747q.732 0 1.236-.362.511-.37.781-1.051.277-.69.277-1.648 0-.959-.269-1.662-.27-.71-.782-1.101-.511-.39-1.243-.39-.745 0-1.257.404-.512.399-.774 1.108-.263.711-.263 1.641 0 .945.263 1.633.27.683.774 1.059.512.369 1.257.369M616.306 168v-10.909h3.025V168zm1.52-12.315q-.675 0-1.158-.448a1.45 1.45 0 0 1-.476-1.086q0-.626.476-1.073a1.63 1.63 0 0 1 1.158-.454q.675 0 1.15.454.483.447.483 1.073 0 .631-.483 1.086-.475.448-1.15.448m6.755 6.008V168h-3.026v-10.909h2.884v1.925h.127a3.05 3.05 0 0 1 1.215-1.506q.852-.561 2.067-.561 1.136 0 1.981.497a3.37 3.37 0 0 1 1.314 1.42q.47.916.469 2.188V168h-3.026v-6.406q.008-1.002-.511-1.563-.519-.568-1.428-.568a2.17 2.17 0 0 0-1.079.263 1.84 1.84 0 0 0-.725.767q-.256.496-.262 1.2M640.377 168l-2.968-10.909h3.061l1.69 7.329h.099l1.762-7.329h3.004l1.79 7.287h.092l1.662-7.287h3.054L650.661 168h-3.203l-1.875-6.861h-.135L643.573 168zm14.66 0v-10.909h3.026V168zm1.52-12.315q-.675 0-1.158-.448a1.45 1.45 0 0 1-.476-1.086q0-.626.476-1.073a1.63 1.63 0 0 1 1.158-.454q.675 0 1.151.454.482.447.482 1.073 0 .631-.482 1.086a1.62 1.62 0 0 1-1.151.448m9.532 1.406v2.273h-6.57v-2.273zm-5.078-2.614h3.025v10.171q0 .419.128.653a.7.7 0 0 0 .355.32q.234.092.54.092.213 0 .426-.035.213-.043.327-.064l.476 2.251a9 9 0 0 1-.639.163 5 5 0 0 1-1.002.121q-1.093.043-1.918-.291a2.7 2.7 0 0 1-1.271-1.037q-.454-.703-.447-1.776zm10.109 7.216V168h-3.026v-14.545h2.94v5.561h.128a3.1 3.1 0 0 1 1.193-1.513q.825-.554 2.067-.554 1.137 0 1.982.497a3.33 3.33 0 0 1 1.321 1.413q.475.917.469 2.195V168h-3.026v-6.406q.007-1.01-.511-1.57-.512-.561-1.435-.561-.618 0-1.094.263a1.86 1.86 0 0 0-.738.767q-.264.496-.27 1.2m13.683 10.398v-15h2.983v1.832h.135q.2-.44.576-.895.383-.46.994-.767.618-.312 1.534-.312 1.193 0 2.202.625 1.009.618 1.612 1.868.604 1.243.604 3.118 0 1.825-.59 3.082-.582 1.25-1.591 1.896a4.1 4.1 0 0 1-2.244.64q-.88 0-1.499-.292a3.1 3.1 0 0 1-1.001-.731 3.8 3.8 0 0 1-.597-.902h-.092v5.838zm2.962-9.546q0 .974.27 1.698t.781 1.129q.511.398 1.243.398.739 0 1.25-.405.512-.412.774-1.136.27-.732.27-1.684 0-.944-.263-1.661-.262-.718-.774-1.123-.512-.404-1.257-.404-.738 0-1.25.39-.504.391-.774 1.108t-.27 1.69m12.606 5.661q-1.045 0-1.861-.362a3 3 0 0 1-1.293-1.087q-.469-.724-.469-1.804 0-.909.334-1.527a2.7 2.7 0 0 1 .909-.994 4.4 4.4 0 0 1 1.307-.568 10 10 0 0 1 1.548-.27 40 40 0 0 0 1.534-.185q.583-.091.846-.27.262-.177.262-.525v-.043q0-.675-.426-1.044-.419-.369-1.193-.369-.816 0-1.3.362a1.67 1.67 0 0 0-.639.895l-2.798-.227a3.8 3.8 0 0 1 .838-1.719q.625-.732 1.612-1.122.995-.398 2.301-.398.909 0 1.74.213a4.6 4.6 0 0 1 1.485.66q.653.448 1.03 1.151.376.696.376 1.669V168h-2.869v-1.513h-.086a3.1 3.1 0 0 1-.703.902 3.3 3.3 0 0 1-1.058.604q-.618.213-1.427.213m.866-2.088q.668 0 1.179-.263.511-.27.803-.724a1.87 1.87 0 0 0 .291-1.03v-1.158a1.6 1.6 0 0 1-.391.171 7 7 0 0 1-.547.135q-.305.056-.611.106l-.554.078a3.7 3.7 0 0 0-.93.249 1.5 1.5 0 0 0-.618.461q-.22.285-.22.711 0 .618.447.944.455.32 1.151.32m16.501-5.916-2.77.17a1.4 1.4 0 0 0-.305-.639 1.64 1.64 0 0 0-.618-.462 2.1 2.1 0 0 0-.902-.177q-.703 0-1.186.298-.483.291-.483.781 0 .391.312.661.313.27 1.073.433l1.974.398q1.591.327 2.372 1.051.782.724.782 1.903 0 1.073-.633 1.882-.624.81-1.718 1.265-1.087.447-2.507.447-2.167 0-3.452-.902-1.278-.909-1.499-2.472l2.976-.156q.135.661.654 1.009.518.34 1.328.341.795 0 1.278-.306.49-.312.497-.802a.83.83 0 0 0-.348-.675q-.34-.27-1.051-.412l-1.889-.376q-1.598-.32-2.379-1.108-.774-.789-.774-2.01 0-1.052.568-1.811.575-.76 1.612-1.172 1.044-.412 2.443-.412 2.067 0 3.253.873 1.192.874 1.392 2.38m11.03 0-2.769.17a1.44 1.44 0 0 0-.306-.639 1.6 1.6 0 0 0-.618-.462 2.1 2.1 0 0 0-.902-.177q-.703 0-1.186.298-.483.291-.483.781a.84.84 0 0 0 .313.661q.313.27 1.072.433l1.975.398q1.59.327 2.372 1.051t.781 1.903q0 1.073-.632 1.882-.625.81-1.719 1.265-1.086.447-2.507.447-2.166 0-3.452-.902-1.278-.909-1.498-2.472l2.976-.156q.134.661.653 1.009.518.34 1.328.341.795 0 1.279-.306.49-.312.497-.802a.84.84 0 0 0-.348-.675q-.342-.27-1.051-.412l-1.89-.376q-1.597-.32-2.379-1.108-.774-.789-.774-2.01 0-1.052.568-1.811.576-.76 1.612-1.172 1.044-.412 2.444-.412 2.066 0 3.252.873 1.194.874 1.392 2.38m4.696 4.659.007-3.629h.44l3.494-4.141h3.473l-4.694 5.483h-.717zM730.722 168v-14.545h3.026V168zm6.818 0-3.21-4.751 2.017-2.138 4.737 6.889zm9.145.213q-1.683 0-2.897-.682a4.67 4.67 0 0 1-1.861-1.946q-.654-1.264-.654-2.99 0-1.683.654-2.954a4.83 4.83 0 0 1 1.839-1.982q1.194-.71 2.798-.71 1.08 0 2.01.348.938.34 1.634 1.03.703.689 1.094 1.733.39 1.037.39 2.429v.831h-9.211v-1.875h6.363q0-.654-.284-1.158a2.03 2.03 0 0 0-.788-.788 2.24 2.24 0 0 0-1.158-.292q-.688 0-1.221.32-.526.312-.824.845a2.4 2.4 0 0 0-.306 1.172v1.783q0 .809.299 1.399.305.59.859.909.553.32 1.314.32.504 0 .923-.143.42-.141.718-.426.297-.283.454-.696l2.798.185a3.8 3.8 0 0 1-.873 1.761q-.654.747-1.691 1.165-1.029.412-2.379.412m8.357 3.878q-.576 0-1.08-.092a4 4 0 0 1-.824-.221l.682-2.258q.533.164.959.177.433.015.746-.198.32-.213.518-.725l.178-.462-3.914-11.221h3.182l2.259 8.011h.113l2.28-8.011h3.203l-4.24 12.088a5 5 0 0 1-.831 1.534q-.518.66-1.314 1.016-.795.362-1.917.362m12.25-8.452v-.241q.007-1.243.22-1.982.22-.738.639-1.193a5 5 0 0 1 1.009-.824q.44-.284.788-.589.348-.306.554-.675.207-.376.206-.838 0-.49-.234-.859a1.56 1.56 0 0 0-.632-.569 1.9 1.9 0 0 0-.867-.199q-.462 0-.873.206a1.67 1.67 0 0 0-.675.597q-.263.39-.284.973h-2.898q.036-1.42.682-2.344a3.9 3.9 0 0 1 1.712-1.385q1.065-.46 2.35-.461 1.414 0 2.5.468 1.087.462 1.705 1.343.618.88.618 2.123 0 .831-.277 1.478-.27.64-.76 1.136a6 6 0 0 1-1.158.888 4.6 4.6 0 0 0-.923.696 2.4 2.4 0 0 0-.533.838q-.17.476-.177 1.172v.241zm1.406 4.546q-.71 0-1.214-.497a1.63 1.63 0 0 1-.49-1.208 1.6 1.6 0 0 1 .49-1.193 1.66 1.66 0 0 1 1.214-.497q.675 0 1.186.497.512.497.519 1.193a1.65 1.65 0 0 1-.249.859 1.8 1.8 0 0 1-.618.618 1.6 1.6 0 0 1-.838.228"/><g filter="url(#d)"><path fill="#f8f8f8" d="M551 189h400v64H551z"/><g filter="url(#e)"><path fill="#f8f8f8" d="M575 189h376v64H575z"/><mask id="f" width="32" height="32" x="575" y="205" maskUnits="userSpaceOnUse" style="mask-type:alpha"><path fill="#c4c4c4" d="M575 217c0-5.657 0-8.485 1.757-10.243C578.515 205 581.343 205 587 205h8c5.657 0 8.485 0 10.243 1.757C607 208.515 607 211.343 607 217v8c0 5.657 0 8.485-1.757 10.243C603.485 237 600.657 237 595 237h-8c-5.657 0-8.485 0-10.243-1.757C575 233.485 575 230.657 575 225z"/></mask><g mask="url(#f)"><mask id="g" width="28" height="29" x="577" y="206" maskUnits="userSpaceOnUse" style="mask-type:luminance"><path fill="#fff" fill-rule="evenodd" d="M604.674 218.442h-13.348v5.413h7.683c-.716 3.439-3.711 5.413-7.683 5.413-4.689 0-8.466-3.693-8.466-8.278s3.777-8.279 8.466-8.279c2.018 0 3.841.7 5.274 1.847l4.167-4.076c-2.539-2.165-5.795-3.503-9.441-3.503-7.945 0-14.326 6.241-14.326 14.011S583.381 235 591.326 235c7.162 0 13.674-5.095 13.674-14.01 0-.828-.13-1.72-.326-2.548" clip-rule="evenodd"/></mask><g mask="url(#g)"><path fill="#fbbc05" fill-rule="evenodd" d="M575.698 229.268v-16.557l11.069 8.279z" clip-rule="evenodd"/></g><mask id="h" width="28" height="29" x="577" y="206" maskUnits="userSpaceOnUse" style="mask-type:luminance"><path fill="#fff" fill-rule="evenodd" d="M604.674 218.442h-13.348v5.413h7.683c-.716 3.439-3.711 5.413-7.683 5.413-4.689 0-8.466-3.693-8.466-8.278s3.777-8.279 8.466-8.279c2.018 0 3.841.7 5.274 1.847l4.167-4.076c-2.539-2.165-5.795-3.503-9.441-3.503-7.945 0-14.326 6.241-14.326 14.011S583.381 235 591.326 235c7.162 0 13.674-5.095 13.674-14.01 0-.828-.13-1.72-.326-2.548" clip-rule="evenodd"/></mask><g mask="url(#h)"><path fill="#ea4335" fill-rule="evenodd" d="m575.698 212.711 11.069 8.279 4.559-3.885 15.627-2.483v-8.916h-31.255z" clip-rule="evenodd"/></g><mask id="i" width="28" height="29" x="577" y="206" maskUnits="userSpaceOnUse" style="mask-type:luminance"><path fill="#fff" fill-rule="evenodd" d="M604.674 218.442h-13.348v5.413h7.683c-.716 3.439-3.711 5.413-7.683 5.413-4.689 0-8.466-3.693-8.466-8.278s3.777-8.279 8.466-8.279c2.018 0 3.841.7 5.274 1.847l4.167-4.076c-2.539-2.165-5.795-3.503-9.441-3.503-7.945 0-14.326 6.241-14.326 14.011S583.381 235 591.326 235c7.162 0 13.674-5.095 13.674-14.01 0-.828-.13-1.72-.326-2.548" clip-rule="evenodd"/></mask><g mask="url(#i)"><path fill="#34a853" fill-rule="evenodd" d="m575.698 229.269 19.535-14.647 5.144.636 6.576-9.552v30.568h-31.255z" clip-rule="evenodd"/></g><mask id="j" width="28" height="29" x="577" y="206" maskUnits="userSpaceOnUse" style="mask-type:luminance"><path fill="#fff" fill-rule="evenodd" d="M604.674 218.442h-13.348v5.413h7.683c-.716 3.439-3.711 5.413-7.683 5.413-4.689 0-8.466-3.693-8.466-8.278s3.777-8.279 8.466-8.279c2.018 0 3.841.7 5.274 1.847l4.167-4.076c-2.539-2.165-5.795-3.503-9.441-3.503-7.945 0-14.326 6.241-14.326 14.011S583.381 235 591.326 235c7.162 0 13.674-5.095 13.674-14.01 0-.828-.13-1.72-.326-2.548" clip-rule="evenodd"/></mask><g mask="url(#j)"><path fill="#4285f4" fill-rule="evenodd" d="m606.954 236.274-20.186-15.284-2.605-1.911 22.791-6.368z" clip-rule="evenodd"/></g></g><path fill="#383c43" d="M631.009 210.035a3 3 0 0 0-.388-.811 2.47 2.47 0 0 0-1.332-1.009 3 3 0 0 0-.93-.134q-.86 0-1.551.442-.69.443-1.094 1.298-.397.85-.397 2.083 0 1.238.402 2.093.403.855 1.104 1.298.7.442 1.596.442.83 0 1.447-.338a2.35 2.35 0 0 0 .959-.954q.343-.622.343-1.462l.398.075h-2.913v-1.268h4.002v1.158q0 1.283-.547 2.227a3.7 3.7 0 0 1-1.501 1.452q-.955.512-2.188.512-1.382 0-2.426-.636-1.04-.636-1.621-1.805-.582-1.173-.582-2.784 0-1.218.339-2.187a4.7 4.7 0 0 1 .949-1.646q.616-.68 1.447-1.039a4.5 4.5 0 0 1 1.824-.363q.826 0 1.537.244.716.243 1.272.691a3.9 3.9 0 0 1 1.427 2.421zm6.553 7.119q-1.073 0-1.874-.492a3.3 3.3 0 0 1-1.243-1.377q-.442-.885-.442-2.068 0-1.189.442-2.079a3.3 3.3 0 0 1 1.243-1.382q.8-.492 1.874-.492t1.875.492q.8.493 1.242 1.382.443.89.443 2.079 0 1.183-.443 2.068a3.3 3.3 0 0 1-1.242 1.377q-.801.492-1.875.492m.005-1.248q.696 0 1.154-.368.457-.367.676-.979a3.9 3.9 0 0 0 .223-1.347q0-.732-.223-1.343a2.2 2.2 0 0 0-.676-.989q-.458-.373-1.154-.373-.7 0-1.163.373a2.2 2.2 0 0 0-.681.989 4 4 0 0 0-.219 1.343q0 .735.219 1.347.224.612.681.979.462.369 1.163.368m8.291 1.248q-1.074 0-1.875-.492a3.3 3.3 0 0 1-1.242-1.377q-.443-.885-.443-2.068 0-1.189.443-2.079a3.3 3.3 0 0 1 1.242-1.382q.801-.492 1.875-.492t1.874.492q.8.493 1.243 1.382.442.89.442 2.079 0 1.183-.442 2.068a3.3 3.3 0 0 1-1.243 1.377q-.8.492-1.874.492m.005-1.248q.696 0 1.153-.368.457-.367.676-.979a3.9 3.9 0 0 0 .224-1.347q0-.732-.224-1.343a2.2 2.2 0 0 0-.676-.989q-.457-.373-1.153-.373-.701 0-1.164.373a2.2 2.2 0 0 0-.681.989 4 4 0 0 0-.218 1.343q0 .735.218 1.347.224.612.681.979.463.369 1.164.368m8.275 4.117q-.909 0-1.566-.239-.65-.238-1.064-.631a2.7 2.7 0 0 1-.616-.86l1.278-.527q.133.218.358.462.228.249.616.423.393.174 1.009.174.845 0 1.397-.413.552-.408.552-1.303v-1.501h-.094q-.135.243-.388.542a2.1 2.1 0 0 1-.686.517q-.437.219-1.139.219a3.2 3.2 0 0 1-1.63-.423q-.721-.427-1.144-1.258-.417-.835-.417-2.053t.412-2.088q.418-.87 1.144-1.332a2.97 2.97 0 0 1 1.645-.468q.711 0 1.149.239.437.234.681.547.249.313.383.552h.109v-1.238h1.457v7.805q0 .984-.458 1.616a2.7 2.7 0 0 1-1.238.934q-.775.304-1.75.304m-.014-4.37q.64 0 1.083-.299.448-.303.676-.865.234-.566.234-1.357 0-.77-.229-1.357a2 2 0 0 0-.671-.915q-.442-.333-1.093-.333-.672 0-1.119.348-.447.343-.676.935a3.7 3.7 0 0 0-.224 1.322q0 .751.229 1.318.229.566.676.885.452.318 1.114.318m6.8-8.835V217h-1.487v-10.182zm5.151 10.336q-1.129 0-1.944-.482a3.3 3.3 0 0 1-1.253-1.367q-.437-.885-.437-2.073 0-1.174.437-2.069a3.4 3.4 0 0 1 1.233-1.397q.795-.502 1.859-.502.647 0 1.253.214a3 3 0 0 1 1.089.671q.483.458.761 1.188.278.727.278 1.765v.527h-6.07v-1.113h4.613q0-.587-.238-1.039a1.8 1.8 0 0 0-.671-.721 1.87 1.87 0 0 0-1.005-.264q-.626 0-1.093.308a2.07 2.07 0 0 0-.716.796 2.3 2.3 0 0 0-.249 1.059v.87q0 .765.269 1.302.273.537.76.821.488.278 1.139.278.422 0 .77-.119.348-.125.602-.368a1.6 1.6 0 0 0 .388-.602l1.407.254a2.55 2.55 0 0 1-.607 1.089 2.95 2.95 0 0 1-1.089.721q-.65.253-1.486.253"/><path fill="#8a8c91" d="M623.857 228.455h1.274v6.971q0 .657-.239 1.108-.234.452-.699.686-.46.234-1.138.235h-.127q-.064 0-.133-.005v-1.095H623q.451 0 .652-.243.205-.238.205-.694zm.63-1.01a.8.8 0 0 1-.571-.222.72.72 0 0 1-.234-.537q0-.315.234-.537a.8.8 0 0 1 .571-.226q.333 0 .567.226a.7.7 0 0 1 .239.537q0 .31-.239.537a.8.8 0 0 1-.567.222m4.995 7.687q-.92 0-1.607-.422a2.84 2.84 0 0 1-1.065-1.18q-.38-.759-.379-1.773 0-1.019.379-1.781a2.84 2.84 0 0 1 1.065-1.185q.687-.422 1.607-.422t1.606.422q.687.421 1.066 1.185.38.762.379 1.781 0 1.014-.379 1.773a2.84 2.84 0 0 1-1.066 1.18q-.685.422-1.606.422m.004-1.07q.596 0 .989-.315.391-.315.579-.839a3.3 3.3 0 0 0 .192-1.155q0-.627-.192-1.151a1.9 1.9 0 0 0-.579-.848q-.392-.32-.989-.319-.6 0-.997.319a1.9 1.9 0 0 0-.584.848q-.187.524-.187 1.151 0 .63.187 1.155.192.524.584.839.396.315.997.315m5.623-2.948V235h-1.274v-8.727h1.257v3.247h.081q.23-.528.703-.84.474-.31 1.236-.311.673 0 1.176.277.507.278.785.827.28.546.281 1.364V235h-1.274v-4.01q0-.72-.371-1.116-.37-.4-1.031-.401-.452 0-.81.192a1.4 1.4 0 0 0-.558.562q-.201.367-.201.887m7.099 0V235h-1.274v-6.545h1.223v1.065h.081q.226-.52.707-.835.486-.316 1.223-.316.67 0 1.172.282.503.276.78.826t.277 1.36V235h-1.274v-4.01q0-.711-.371-1.112-.37-.405-1.018-.405-.443 0-.789.192a1.4 1.4 0 0 0-.541.562q-.196.367-.196.887m6.617 3.967a.82.82 0 0 1-.6-.247.83.83 0 0 1-.252-.605q0-.35.252-.597a.82.82 0 0 1 .6-.251q.35 0 .601.251a.8.8 0 0 1 .252.597q0 .234-.12.43a.9.9 0 0 1-.306.307.8.8 0 0 1-.427.115m7.344-5.028-1.155.204a1.4 1.4 0 0 0-.23-.422 1.14 1.14 0 0 0-.417-.328 1.5 1.5 0 0 0-.661-.128q-.541 0-.903.243-.363.238-.363.618a.65.65 0 0 0 .243.528q.244.2.784.329l1.04.238q.904.209 1.347.644.443.434.443 1.129 0 .588-.341 1.048-.336.456-.942.716-.6.26-1.393.26-1.1 0-1.794-.469-.694-.472-.852-1.342l1.231-.187q.115.481.473.728.358.243.933.243.627 0 1.002-.26.375-.264.375-.643a.67.67 0 0 0-.23-.516q-.226-.209-.695-.315l-1.108-.243q-.916-.209-1.355-.665-.435-.456-.435-1.155 0-.579.324-1.014t.895-.678a3.3 3.3 0 0 1 1.308-.247q1.062 0 1.671.461.609.456.805 1.223m1.409 4.947v-6.545h1.223v1.065h.081q.204-.541.669-.844.464-.307 1.112-.307.656 0 1.1.307.447.307.66.844h.068q.235-.525.746-.835.511-.316 1.219-.316.89 0 1.453.559.567.558.567 1.683V235h-1.274v-4.27q0-.665-.363-.963a1.32 1.32 0 0 0-.865-.298q-.622 0-.967.383-.345.38-.345.976V235h-1.27v-4.351q0-.532-.333-.856-.331-.324-.865-.324a1.24 1.24 0 0 0-.669.192 1.4 1.4 0 0 0-.49.524 1.6 1.6 0 0 0-.183.779V235zm10.485 0v-6.545h1.275V235zm.644-7.555a.8.8 0 0 1-.571-.222.72.72 0 0 1-.235-.537q0-.315.235-.537a.8.8 0 0 1 .571-.226q.332 0 .567.226a.7.7 0 0 1 .238.537.72.72 0 0 1-.238.537.8.8 0 0 1-.567.222m5.28 1.01v1.022h-3.575v-1.022zm-2.616-1.569h1.274v6.192q0 .37.111.558a.57.57 0 0 0 .285.252q.179.063.388.064.153 0 .268-.022l.179-.034.23 1.053a2.5 2.5 0 0 1-.826.136 2.2 2.2 0 0 1-.938-.179 1.6 1.6 0 0 1-.703-.579q-.268-.393-.268-.985zm5.32 4.228V235h-1.274v-8.727h1.257v3.247h.081q.23-.528.703-.84.474-.31 1.236-.311.673 0 1.176.277.508.278.784.827.282.546.282 1.364V235h-1.275v-4.01q0-.72-.37-1.116-.37-.4-1.032-.401-.452 0-.809.192a1.4 1.4 0 0 0-.558.562q-.201.367-.201.887m11.079 6.26q-1.321 0-2.344-.363a4.5 4.5 0 0 1-1.717-1.056 4.5 4.5 0 0 1-1.061-1.705q-.362-1.01-.362-2.305 0-1.262.366-2.267.367-1.006 1.066-1.714a4.65 4.65 0 0 1 1.708-1.086q1.006-.375 2.285-.375 1.223 0 2.156.383a4.5 4.5 0 0 1 1.568 1.053q.639.669.963 1.534a5.2 5.2 0 0 1 .324 1.828q0 .674-.085 1.317a4.2 4.2 0 0 1-.316 1.159q-.225.516-.656.827-.426.307-1.108.319a2.2 2.2 0 0 1-.703-.085 1.44 1.44 0 0 1-.58-.315.93.93 0 0 1-.289-.563h-.051a1.3 1.3 0 0 1-.341.469 1.8 1.8 0 0 1-.61.341 2.4 2.4 0 0 1-.852.102 2.3 2.3 0 0 1-.967-.243 2.2 2.2 0 0 1-.738-.613 2.9 2.9 0 0 1-.464-.929 4.1 4.1 0 0 1-.162-1.194q0-.63.183-1.129a2.7 2.7 0 0 1 .499-.865q.32-.366.733-.579t.873-.269q.448-.05.823.026t.622.234q.252.157.315.345h.056v-.477h1.048v3.955q0 .336.175.571a.6.6 0 0 0 .507.234q.387 0 .605-.286.221-.285.311-.877.093-.593.094-1.517 0-.648-.175-1.219a3.42 3.42 0 0 0-1.325-1.845 3.8 3.8 0 0 0-1.108-.52 4.8 4.8 0 0 0-1.368-.184q-1.019 0-1.811.316a3.6 3.6 0 0 0-1.338.899 3.9 3.9 0 0 0-.823 1.41 5.7 5.7 0 0 0-.277 1.837q0 1.061.286 1.884.285.817.844 1.38t1.38.853q.823.294 1.897.294.477 0 .937-.086.46-.08.818-.187a9 9 0 0 0 .541-.166l.299.933a4.6 4.6 0 0 1-.703.243 8 8 0 0 1-.946.196 7 7 0 0 1-1.002.077m-.392-3.546q.554 0 .891-.221.34-.222.49-.661.153-.443.153-1.108-.004-.648-.166-1.031a1 1 0 0 0-.494-.554q-.332-.171-.857-.171-.482 0-.822.235a1.5 1.5 0 0 0-.516.635 2.3 2.3 0 0 0-.179.89q.004.516.145.972.145.451.469.733.328.28.886.281m9.376 3.763q-.78 0-1.343-.205a2.6 2.6 0 0 1-.912-.541 2.3 2.3 0 0 1-.528-.737l1.095-.452q.115.187.307.397.197.213.528.362.337.149.865.149.724 0 1.198-.354.473-.35.473-1.116v-1.287h-.081a3 3 0 0 1-.333.464 1.8 1.8 0 0 1-.588.443q-.375.188-.976.188a2.73 2.73 0 0 1-1.397-.362q-.618-.367-.98-1.078-.358-.716-.358-1.76t.353-1.79q.359-.746.98-1.142a2.55 2.55 0 0 1 1.411-.401q.609 0 .984.205.375.2.584.469.213.268.328.473h.094v-1.061h1.249v6.69q0 .843-.392 1.385a2.3 2.3 0 0 1-1.061.801q-.666.26-1.5.26m-.013-3.746q.55 0 .929-.256.383-.26.579-.741.201-.486.201-1.163 0-.66-.196-1.164a1.74 1.74 0 0 0-.576-.784q-.38-.285-.937-.285-.576 0-.959.298a1.8 1.8 0 0 0-.58.801 3.2 3.2 0 0 0-.191 1.134q0 .643.196 1.129.195.486.579.758.388.273.955.273m4.554 1.155v-6.545h1.223v1.065h.081q.206-.541.669-.844.465-.307 1.113-.307.656 0 1.099.307.447.307.661.844h.068q.234-.525.746-.835.51-.316 1.218-.316.89 0 1.453.559.567.558.567 1.683V235h-1.274v-4.27q0-.665-.362-.963a1.32 1.32 0 0 0-.865-.298q-.622 0-.968.383-.345.38-.345.976V235h-1.27v-4.351q0-.532-.332-.856-.333-.324-.865-.324-.363 0-.669.192a1.4 1.4 0 0 0-.49.524 1.6 1.6 0 0 0-.183.779V235zm12.391.145q-.623 0-1.125-.23a1.9 1.9 0 0 1-.797-.678q-.29-.442-.29-1.086 0-.555.213-.912.213-.359.575-.567.363-.209.81-.315t.912-.162l.955-.111q.366-.047.532-.149.166-.103.166-.333v-.03q0-.558-.315-.865-.31-.306-.929-.306-.644 0-1.014.285-.366.281-.507.626l-1.198-.272q.213-.597.623-.963.413-.37.95-.537a3.7 3.7 0 0 1 1.129-.171q.392 0 .831.094.443.09.827.332.387.243.635.695.246.447.247 1.163V235h-1.244v-.895h-.052a1.8 1.8 0 0 1-.37.486 2 2 0 0 1-.635.396 2.5 2.5 0 0 1-.929.158m.277-1.023q.528 0 .903-.209.38-.209.575-.545a1.4 1.4 0 0 0 .201-.729v-.844a.65.65 0 0 1-.264.128q-.192.056-.439.098l-.482.073-.392.051a3 3 0 0 0-.678.158q-.302.11-.485.319-.18.205-.179.546 0 .473.349.716.35.238.891.238m4.53.878v-6.545h1.274V235zm.643-7.555a.8.8 0 0 1-.571-.222.72.72 0 0 1-.234-.537q0-.315.234-.537a.8.8 0 0 1 .571-.226q.333 0 .567.226a.7.7 0 0 1 .239.537q0 .31-.239.537a.8.8 0 0 1-.567.222m3.499-1.172V235h-1.274v-8.727zm2.434 8.808a.83.83 0 0 1-.601-.247.83.83 0 0 1-.251-.605.8.8 0 0 1 .251-.597.82.82 0 0 1 .601-.251q.35 0 .601.251a.8.8 0 0 1 .251.597q0 .234-.119.43a.9.9 0 0 1-.307.307.8.8 0 0 1-.426.115m5.196.051q-.95 0-1.636-.43a2.85 2.85 0 0 1-1.049-1.198q-.366-.763-.366-1.747 0-.997.375-1.76.375-.766 1.057-1.197.681-.43 1.606-.431.746 0 1.33.277.584.273.942.767.362.495.43 1.155h-1.24a1.5 1.5 0 0 0-.469-.792q-.362-.333-.971-.333-.534 0-.934.281-.396.277-.618.793-.22.511-.221 1.21 0 .716.217 1.236.218.52.614.805.4.286.942.286.362 0 .656-.132a1.3 1.3 0 0 0 .498-.388q.205-.251.286-.605h1.24a2.4 2.4 0 0 1-.413 1.133 2.4 2.4 0 0 1-.925.785q-.576.285-1.351.285m6.689 0q-.921 0-1.607-.422a2.84 2.84 0 0 1-1.065-1.18q-.38-.759-.38-1.773 0-1.019.38-1.781a2.84 2.84 0 0 1 1.065-1.185q.686-.422 1.607-.422t1.606.422q.687.421 1.066 1.185.379.762.379 1.781 0 1.014-.379 1.773a2.84 2.84 0 0 1-1.066 1.18q-.686.422-1.606.422m.004-1.07q.596 0 .989-.315.391-.315.579-.839a3.3 3.3 0 0 0 .192-1.155q0-.627-.192-1.151a1.9 1.9 0 0 0-.579-.848q-.392-.32-.989-.319-.601 0-.997.319a1.9 1.9 0 0 0-.584.848q-.188.524-.188 1.151 0 .63.188 1.155.192.524.584.839.396.315.997.315m4.349.938v-6.545h1.223v1.065h.081q.204-.541.669-.844.464-.307 1.112-.307.657 0 1.1.307.447.307.66.844h.068q.235-.525.746-.835.511-.316 1.219-.316.89 0 1.453.559.567.558.567 1.683V235h-1.274v-4.27q0-.665-.363-.963a1.3 1.3 0 0 0-.865-.298q-.621 0-.967.383-.345.38-.345.976V235h-1.27v-4.351q0-.532-.332-.856t-.866-.324a1.24 1.24 0 0 0-.669.192 1.4 1.4 0 0 0-.49.524 1.6 1.6 0 0 0-.183.779V235z"/></g></g><rect width="351" height="35" x="575.5" y="277.5" fill="#0caaab" rx="17.5"/><path fill="#fff" d="M732.056 300v-10.182h1.537v8.86h4.613V300zm10.86.154q-1.074 0-1.874-.492a3.3 3.3 0 0 1-1.243-1.377q-.443-.885-.443-2.068 0-1.189.443-2.079a3.3 3.3 0 0 1 1.243-1.382q.8-.492 1.874-.492t1.874.492 1.243 1.382.443 2.079q0 1.183-.443 2.068a3.3 3.3 0 0 1-1.243 1.377q-.8.492-1.874.492m.005-1.248q.696 0 1.154-.368a2.16 2.16 0 0 0 .676-.979 3.9 3.9 0 0 0 .223-1.347q0-.731-.223-1.343a2.2 2.2 0 0 0-.676-.989q-.458-.373-1.154-.373-.7 0-1.163.373a2.2 2.2 0 0 0-.681.989 4 4 0 0 0-.219 1.343q0 .735.219 1.347.223.612.681.979.462.369 1.163.368m8.276 4.117q-.91 0-1.566-.239-.651-.238-1.064-.631a2.7 2.7 0 0 1-.617-.86l1.278-.527q.135.218.358.462.228.249.616.423.393.174 1.01.174.845 0 1.397-.413.552-.408.552-1.303v-1.501h-.095a3.4 3.4 0 0 1-.388.542 2.1 2.1 0 0 1-.686.517q-.437.219-1.138.219a3.2 3.2 0 0 1-1.631-.423q-.721-.427-1.143-1.258-.418-.835-.418-2.053t.413-2.088q.417-.87 1.143-1.332a2.97 2.97 0 0 1 1.646-.468q.71 0 1.148.239.438.234.681.547.25.313.383.552h.109v-1.238h1.457v7.805q0 .984-.457 1.616a2.7 2.7 0 0 1-1.238.934q-.776.304-1.75.304m-.015-4.37q.641 0 1.084-.299a1.86 1.86 0 0 0 .676-.865q.233-.566.233-1.357 0-.77-.228-1.357-.229-.587-.671-.915-.443-.333-1.094-.333-.671 0-1.119.348-.447.343-.676.935a3.7 3.7 0 0 0-.224 1.322q0 .751.229 1.318.23.565.676.885.453.318 1.114.318m10.534-8.835V300h-1.536v-10.182zm3.465 5.648V300h-1.487v-7.636h1.427v1.243h.095q.262-.607.825-.975.567-.368 1.427-.368.78 0 1.367.328a2.2 2.2 0 0 1 .91.965q.323.64.323 1.586V300h-1.487v-4.678q0-.83-.432-1.298-.433-.472-1.188-.472-.518 0-.92.224a1.6 1.6 0 0 0-.632.656q-.228.428-.228 1.034"/><rect width="351" height="35" x="575.5" y="277.5" stroke="#0caaab" rx="17.5"/><rect width="351" height="35" x="575.5" y="321.5" fill="#fff" rx="17.5"/><path fill="#383c43" d="M681.752 333.818h1.541v6.697q0 1.07-.502 1.894a3.5 3.5 0 0 1-1.412 1.293q-.909.467-2.133.467-1.218 0-2.127-.467a3.5 3.5 0 0 1-1.412-1.293q-.503-.825-.503-1.894v-6.697h1.537v6.573q0 .69.303 1.228.308.536.87.845.563.303 1.332.303.776 0 1.338-.303.567-.308.865-.845.303-.538.303-1.228zm9.238 4.41-1.348.239a1.6 1.6 0 0 0-.268-.493 1.3 1.3 0 0 0-.487-.382q-.309-.15-.771-.15-.631 0-1.054.284-.422.278-.422.721 0 .382.283.616.284.234.915.383l1.213.278q1.053.244 1.571.751.517.507.517 1.318 0 .686-.398 1.223-.393.531-1.099.835-.7.303-1.625.303-1.283 0-2.093-.547-.811-.552-.995-1.566l1.437-.219q.135.562.552.851.417.283 1.089.283.73 0 1.168-.303.438-.309.438-.751a.78.78 0 0 0-.269-.602q-.264-.243-.81-.367l-1.293-.284q-1.068-.244-1.581-.775-.507-.532-.507-1.348 0-.676.378-1.183t1.044-.79q.666-.29 1.526-.289 1.239 0 1.949.537.71.532.94 1.427m4.934 5.926q-1.128 0-1.943-.482a3.27 3.27 0 0 1-1.253-1.367q-.438-.885-.438-2.073 0-1.174.438-2.069a3.4 3.4 0 0 1 1.233-1.397q.795-.502 1.859-.502.647 0 1.253.214t1.089.671q.482.458.76 1.188.279.726.279 1.765v.527h-6.071v-1.113h4.614q0-.587-.239-1.039a1.8 1.8 0 0 0-.671-.721 1.87 1.87 0 0 0-1.004-.264q-.626 0-1.094.308a2.1 2.1 0 0 0-.716.796 2.3 2.3 0 0 0-.248 1.059v.87q0 .765.268 1.302.274.537.761.821a2.26 2.26 0 0 0 1.138.278q.423 0 .771-.119.348-.125.602-.368t.387-.602l1.407.254a2.55 2.55 0 0 1-.606 1.089 3 3 0 0 1-1.089.721q-.651.253-1.487.253m16.689-10.336V344h-1.412l-5.176-7.467h-.094V344h-1.537v-10.182h1.422l5.181 7.477h.094v-7.477zm5.198 10.336q-1.074 0-1.875-.492a3.3 3.3 0 0 1-1.242-1.377q-.443-.886-.443-2.068 0-1.189.443-2.079a3.3 3.3 0 0 1 1.242-1.382q.801-.492 1.875-.492t1.874.492 1.243 1.382.442 2.079q0 1.183-.442 2.068a3.3 3.3 0 0 1-1.243 1.377q-.8.492-1.874.492m.005-1.248q.696 0 1.153-.368.457-.367.676-.979a3.9 3.9 0 0 0 .224-1.347q0-.731-.224-1.343a2.2 2.2 0 0 0-.676-.989q-.457-.373-1.153-.373-.701 0-1.164.373a2.2 2.2 0 0 0-.681.989 4 4 0 0 0-.218 1.343q0 .735.218 1.347.224.612.681.979.463.368 1.164.368m6.56-3.44V344h-1.486v-7.636h1.427v1.243h.094q.264-.607.825-.975.567-.368 1.427-.368.78 0 1.367.328.587.323.91.965.324.64.323 1.586V344h-1.486v-4.678q0-.83-.433-1.298-.432-.472-1.188-.472-.517 0-.92.224a1.6 1.6 0 0 0-.631.656q-.23.428-.229 1.034m11.24-.413v1.288h-4.514v-1.288zm10.179-5.235V344h-1.412l-5.176-7.467h-.094V344h-1.536v-10.182h1.422l5.18 7.477h.094v-7.477zm5.198 10.336q-1.074 0-1.874-.492a3.3 3.3 0 0 1-1.243-1.377q-.443-.886-.443-2.068 0-1.189.443-2.079a3.3 3.3 0 0 1 1.243-1.382q.8-.492 1.874-.492t1.874.492 1.243 1.382.443 2.079q0 1.183-.443 2.068a3.3 3.3 0 0 1-1.243 1.377q-.8.492-1.874.492m.005-1.248q.696 0 1.153-.368.458-.367.676-.979.225-.612.224-1.347 0-.731-.224-1.343a2.2 2.2 0 0 0-.676-.989q-.457-.373-1.153-.373-.7 0-1.163.373a2.23 2.23 0 0 0-.682.989 4 4 0 0 0-.218 1.343q0 .735.218 1.347.225.612.682.979.462.368 1.163.368m5.074 1.094v-7.636h1.437v1.213h.079a1.85 1.85 0 0 1 .736-.97 2.1 2.1 0 0 1 1.203-.358 7 7 0 0 1 .632.035v1.422a3 3 0 0 0-.319-.055 3 3 0 0 0-.457-.035q-.527 0-.94.224a1.67 1.67 0 0 0-.885 1.497V344zm7.818.149a2.96 2.96 0 0 1-1.65-.472q-.721-.477-1.134-1.357-.408-.885-.408-2.123t.413-2.118q.418-.88 1.143-1.347a2.97 2.97 0 0 1 1.646-.468q.71 0 1.144.239.437.234.676.547.243.313.378.552h.089v-3.784h1.487V344h-1.452v-1.188h-.124a4 4 0 0 1-.388.557 2.2 2.2 0 0 1-.686.546q-.438.234-1.134.234m.328-1.268q.642 0 1.084-.338.447-.343.676-.949.234-.607.234-1.412 0-.796-.229-1.392-.228-.597-.671-.93t-1.094-.333q-.67 0-1.118.348a2.1 2.1 0 0 0-.676.95q-.224.601-.224 1.357 0 .765.228 1.377.229.612.677.969.452.353 1.113.353m5.556 1.119v-10.182h3.63q1.188 0 1.968.433.781.432 1.169 1.183.388.746.388 1.68 0 .94-.393 1.691a2.85 2.85 0 0 1-1.173 1.183q-.781.432-1.964.432h-2.496v-1.302h2.357q.75 0 1.218-.259.467-.263.686-.716.218-.452.218-1.029a2.3 2.3 0 0 0-.218-1.024 1.58 1.58 0 0 0-.691-.701q-.468-.253-1.233-.253h-1.929V344zm10.85.169q-.726 0-1.312-.268a2.2 2.2 0 0 1-.93-.791q-.338-.517-.338-1.268 0-.646.248-1.064.249-.417.672-.661a3.5 3.5 0 0 1 .944-.368 9 9 0 0 1 1.064-.189l1.114-.129q.428-.054.621-.174.195-.119.194-.388v-.034q0-.652-.368-1.01-.363-.358-1.084-.358-.75 0-1.183.333-.427.329-.591.731l-1.397-.318q.248-.695.725-1.124a2.95 2.95 0 0 1 1.109-.626 4.3 4.3 0 0 1 1.318-.199q.457 0 .969.11.517.103.965.387.452.283.74.811.29.522.289 1.357V344h-1.452v-1.044h-.06q-.144.288-.432.567a2.3 2.3 0 0 1-.741.462q-.453.184-1.084.184m.323-1.193q.617 0 1.054-.244.443-.243.671-.636a1.65 1.65 0 0 0 .234-.85v-.985q-.08.08-.308.15-.224.065-.512.114-.289.045-.562.084l-.457.06a3.7 3.7 0 0 0-.791.184q-.352.129-.567.373-.208.238-.208.636 0 .552.407.835.408.279 1.039.279m11.008-4.748-1.347.239a1.6 1.6 0 0 0-.269-.493 1.3 1.3 0 0 0-.487-.382q-.308-.15-.771-.15-.631 0-1.054.284-.422.278-.422.721 0 .382.283.616.284.234.915.383l1.213.278q1.054.244 1.571.751t.517 1.318q0 .686-.398 1.223-.393.531-1.098.835-.702.303-1.626.303-1.283 0-2.093-.547-.81-.552-.994-1.566l1.436-.219q.135.562.552.851.418.283 1.089.283.731 0 1.168-.303.438-.309.438-.751a.78.78 0 0 0-.269-.602q-.263-.243-.81-.367l-1.293-.284q-1.068-.244-1.581-.775-.507-.532-.507-1.348 0-.676.378-1.183t1.044-.79q.666-.29 1.526-.289 1.239 0 1.949.537.71.532.94 1.427m7.366 0-1.348.239a1.6 1.6 0 0 0-.268-.493 1.3 1.3 0 0 0-.487-.382q-.309-.15-.771-.15-.631 0-1.054.284-.423.278-.422.721 0 .382.283.616.284.234.915.383l1.213.278q1.053.244 1.571.751.517.507.517 1.318 0 .686-.398 1.223-.393.531-1.099.835-.7.303-1.625.303-1.283 0-2.093-.547-.811-.552-.995-1.566l1.437-.219q.135.562.552.851.417.283 1.089.283.73 0 1.168-.303.438-.309.438-.751a.78.78 0 0 0-.269-.602q-.264-.243-.81-.367l-1.293-.284q-1.068-.244-1.581-.775-.507-.532-.507-1.348 0-.676.378-1.183t1.044-.79q.666-.29 1.526-.289 1.239 0 1.949.537.71.532.94 1.427m5.328 5.772v-10.182h1.536v4.862h.124l4.271-4.862h1.934l-4.107 4.584 4.122 5.598h-1.85l-3.291-4.549-1.203 1.382V344zm11.768.154q-1.128 0-1.944-.482a3.3 3.3 0 0 1-1.253-1.367q-.437-.885-.437-2.073 0-1.174.437-2.069a3.4 3.4 0 0 1 1.233-1.397q.795-.502 1.859-.502.647 0 1.253.214a3 3 0 0 1 1.089.671q.482.458.761 1.188.278.726.278 1.765v.527h-6.07v-1.113h4.613q0-.587-.238-1.039a1.8 1.8 0 0 0-.671-.721 1.87 1.87 0 0 0-1.005-.264q-.626 0-1.093.308a2.07 2.07 0 0 0-.716.796 2.3 2.3 0 0 0-.249 1.059v.87q0 .765.269 1.302.273.537.76.821.488.278 1.139.278.423 0 .77-.119.348-.125.602-.368a1.6 1.6 0 0 0 .388-.602l1.407.254a2.55 2.55 0 0 1-.607 1.089 2.95 2.95 0 0 1-1.089.721q-.65.253-1.486.253m5.506 2.71q-.333 0-.606-.055a2 2 0 0 1-.408-.109l.358-1.218q.408.108.726.094a.87.87 0 0 0 .562-.239q.248-.223.437-.73l.184-.508-2.794-7.735h1.591l1.934 5.926h.08l1.934-5.926h1.595l-3.147 8.655a3.4 3.4 0 0 1-.556 1.009 2.16 2.16 0 0 1-.806.627 2.6 2.6 0 0 1-1.084.209"/><rect width="351" height="35" x="575.5" y="321.5" stroke="#b9babd" rx="17.5"/></g></g><path fill="#9e9e9e" d="M0 .5h965c5.799 0 10.5 4.701 10.5 10.5h-1a9.5 9.5 0 0 0-9.5-9.5H0zM975 423H0zM0 423V1zM965 .5c5.799 0 10.5 4.701 10.5 10.5v412h-1V11a9.5 9.5 0 0 0-9.5-9.5z" mask="url(#k)"/><defs><filter id="c" width="470" height="374" x="516" y="56" color-interpolation-filters="sRGB" filterUnits="userSpaceOnUse"><feFlood flood-opacity="0" result="BackgroundImageFix"/><feColorMatrix in="SourceAlpha" result="hardAlpha" values="0 0 0 0 0 0 0 0 0 0 0 0 0 0 0 0 0 0 127 0"/><feOffset dy="14"/><feGaussianBlur stdDeviation="17.5"/><feColorMatrix values="0 0 0 0 0 0 0 0 0 0 0 0 0 0 0 0 0 0 0.1 0"/><feBlend in2="BackgroundImageFix" result="effect1_dropShadow_6206_34141"/><feBlend in="SourceGraphic" in2="effect1_dropShadow_6206_34141" result="shape"/></filter><filter id="d" width="400" height="64" x="551" y="189" color-interpolation-filters="sRGB" filterUnits="userSpaceOnUse"><feFlood flood-opacity="0" result="BackgroundImageFix"/><feBlend in="SourceGraphic" in2="BackgroundImageFix" result="shape"/><feColorMatrix in="SourceAlpha" result="hardAlpha" values="0 0 0 0 0 0 0 0 0 0 0 0 0 0 0 0 0 0 127 0"/><feOffset dy="-1"/><feComposite in2="hardAlpha" k2="-1" k3="1" operator="arithmetic"/><feColorMatrix values="0 0 0 0 0.909804 0 0 0 0 0.909804 0 0 0 0 0.913725 0 0 0 1 0"/><feBlend in2="shape" result="effect1_innerShadow_6206_34141"/><feColorMatrix in="SourceAlpha" result="hardAlpha" values="0 0 0 0 0 0 0 0 0 0 0 0 0 0 0 0 0 0 127 0"/><feOffset dy="1"/><feComposite in2="hardAlpha" k2="-1" k3="1" operator="arithmetic"/><feColorMatrix values="0 0 0 0 0.909804 0 0 0 0 0.909804 0 0 0 0 0.913725 0 0 0 1 0"/><feBlend in2="effect1_innerShadow_6206_34141" result="effect2_innerShadow_6206_34141"/></filter><filter id="e" width="376" height="64" x="575" y="189" color-interpolation-filters="sRGB" filterUnits="userSpaceOnUse"><feFlood flood-opacity="0" result="BackgroundImageFix"/><feBlend in="SourceGraphic" in2="BackgroundImageFix" result="shape"/><feColorMatrix in="SourceAlpha" result="hardAlpha" values="0 0 0 0 0 0 0 0 0 0 0 0 0 0 0 0 0 0 127 0"/><feOffset dy="1"/><feComposite in2="hardAlpha" k2="-1" k3="1" operator="arithmetic"/><feColorMatrix values="0 0 0 0 0.909804 0 0 0 0 0.909804 0 0 0 0 0.913725 0 0 0 1 0"/><feBlend in2="shape" result="effect1_innerShadow_6206_34141"/></filter><clipPath id="a"><path fill="#fff" d="M0 1h965c5.523 0 10 4.477 10 10v412H0z"/></clipPath><clipPath id="b"><path fill="#fff" d="M863 14h96v24h-96z"/></clipPath></defs></svg>