<svg xmlns="http://www.w3.org/2000/svg" fill="none" viewBox="0 0 646 283"><g filter="url(#a)"><rect width="525.6" height="163.2" x="59.8496" y="34.4312" fill="#26252a" rx="55.4595"/><rect width="525.6" height="163.2" x="59.8496" y="34.4312" fill="url(#b)" fill-opacity=".5" rx="55.4595"/><rect width="530.222" height="167.822" x="57.5388" y="32.1203" stroke="url(#c)" stroke-width="4.6216" rx="57.7703"/><g filter="url(#d)"><path fill="url(#e)" fill-rule="evenodd" d="M129.449 87.231c7.936 0 14.4 6.458 14.4 14.4v8.163c5.414.787 9.6 5.412 9.6 11.037v12.8c0 6.176-5.024 11.2-11.2 11.2h-25.6c-6.176 0-11.2-5.024-11.2-11.2v-12.8c0-5.631 4.186-10.25 9.6-11.037v-8.163c0-7.942 6.464-14.4 14.4-14.4m0 9.6c-2.643 0-4.8 2.15-4.8 4.8v8h9.6v-8c0-2.65-2.157-4.8-4.8-4.8" clip-rule="evenodd"/><path fill="url(#f)" fill-opacity=".2" fill-rule="evenodd" d="M129.449 87.231c7.936 0 14.4 6.458 14.4 14.4v8.163c5.414.787 9.6 5.412 9.6 11.037v12.8c0 6.176-5.024 11.2-11.2 11.2h-25.6c-6.176 0-11.2-5.024-11.2-11.2v-12.8c0-5.631 4.186-10.25 9.6-11.037v-8.163c0-7.942 6.464-14.4 14.4-14.4m0 9.6c-2.643 0-4.8 2.15-4.8 4.8v8h9.6v-8c0-2.65-2.157-4.8-4.8-4.8" clip-rule="evenodd" style="mix-blend-mode:screen"/><path stroke="url(#g)" stroke-opacity=".4" stroke-width=".6" d="M129.449 87.531c7.771 0 14.1 6.324 14.1 14.101v8.422l.257.037c5.271.766 9.343 5.268 9.343 10.74v12.801c0 6.01-4.89 10.899-10.9 10.899h-25.6c-6.01 0-10.9-4.889-10.9-10.899v-12.801c0-5.478 4.073-9.974 9.344-10.74l.257-.037v-8.422c0-7.777 6.329-14.1 14.099-14.1Zm0 9a5.106 5.106 0 0 0-5.099 5.101v8.3h10.199v-8.3c0-2.816-2.291-5.1-5.1-5.1Z"/></g><path fill="#3f3c47" d="M199.389 89.63c3.291.002 5.959 2.604 5.959 5.814v8.222c0 1.076 1.188 1.753 2.148 1.224l7.342-4.04c2.866-1.578 6.502-.591 8.12 2.204s.604 6.343-2.262 7.921l-6.962 3.831a1.388 1.388 0 0 0 0 2.447l6.962 3.834c2.866 1.578 3.879 5.124 2.262 7.92-1.618 2.796-5.254 3.783-8.12 2.205l-7.342-4.042c-.96-.528-2.148.149-2.148 1.224v8.222c0 3.211-2.668 5.814-5.959 5.815-3.291 0-5.961-2.604-5.961-5.815v-8.222c0-1.076-1.189-1.753-2.149-1.224l-7.339 4.042c-2.866 1.578-6.501.591-8.119-2.205s-.607-6.342 2.26-7.92l6.959-3.834a1.389 1.389 0 0 0 0-2.447l-6.959-3.831c-2.867-1.578-3.878-5.124-2.26-7.921 1.618-2.795 5.253-3.782 8.119-2.204l7.339 4.04c.96.529 2.149-.148 2.149-1.224v-8.222c.001-3.21 2.67-5.813 5.961-5.813m63.08-.001c3.291.001 5.959 2.604 5.959 5.814v8.222c0 1.076 1.188 1.752 2.148 1.224l7.342-4.04c2.866-1.578 6.502-.591 8.12 2.204 1.617 2.797.604 6.343-2.262 7.921l-6.961 3.831a1.389 1.389 0 0 0-.001 2.447l6.962 3.834c2.866 1.578 3.879 5.124 2.262 7.92-1.618 2.796-5.254 3.783-8.12 2.205l-7.342-4.042c-.96-.528-2.148.149-2.148 1.224v8.222c0 3.211-2.668 5.815-5.959 5.815s-5.961-2.604-5.961-5.815v-8.222c0-1.075-1.187-1.752-2.147-1.224l-7.341 4.042c-2.866 1.578-6.502.591-8.12-2.205s-.606-6.342 2.261-7.92l6.96-3.834a1.389 1.389 0 0 0-.001-2.447l-6.959-3.831c-2.867-1.578-3.878-5.125-2.261-7.921 1.618-2.795 5.254-3.782 8.12-2.204l7.341 4.04c.96.529 2.147-.148 2.147-1.224v-8.222c0-3.21 2.67-5.813 5.961-5.813m63.8-.001c3.291.001 5.959 2.604 5.959 5.814v8.222c0 1.076 1.188 1.753 2.148 1.224l7.342-4.04c2.866-1.578 6.502-.591 8.119 2.204 1.618 2.796.605 6.343-2.261 7.921l-6.962 3.831a1.388 1.388 0 0 0 0 2.447l6.962 3.834c2.866 1.578 3.879 5.124 2.261 7.92s-5.253 3.783-8.119 2.205l-7.342-4.042c-.96-.528-2.148.149-2.148 1.224v8.222c0 3.211-2.668 5.814-5.959 5.815-3.292 0-5.961-2.604-5.961-5.815v-8.222c0-1.076-1.189-1.753-2.149-1.224l-7.339 4.042c-2.866 1.578-6.502.591-8.12-2.205s-.606-6.342 2.261-7.92l6.959-3.834a1.389 1.389 0 0 0 0-2.447l-6.959-3.831c-2.867-1.578-3.879-5.124-2.261-7.921 1.618-2.795 5.254-3.782 8.12-2.204l7.339 4.04c.96.529 2.149-.148 2.149-1.224v-8.222c0-3.21 2.67-5.813 5.961-5.813m63.08-.001c3.291.001 5.959 2.604 5.959 5.814v8.222c0 1.076 1.189 1.753 2.149 1.224l7.341-4.04c2.866-1.578 6.501-.591 8.119 2.204 1.618 2.797.605 6.343-2.261 7.921l-6.961 3.831a1.388 1.388 0 0 0 0 2.447l6.961 3.834c2.866 1.578 3.879 5.124 2.261 7.92s-5.253 3.783-8.119 2.205l-7.341-4.042c-.96-.528-2.149.149-2.149 1.224v8.222c0 3.211-2.668 5.815-5.959 5.815-3.292 0-5.961-2.604-5.961-5.815v-8.222c0-1.075-1.188-1.752-2.148-1.224l-7.34 4.042c-2.866 1.578-6.502.591-8.12-2.205s-.606-6.342 2.26-7.92l6.961-3.834a1.389 1.389 0 0 0 0-2.447l-6.961-3.831c-2.866-1.578-3.877-5.125-2.26-7.921 1.618-2.795 5.254-3.782 8.12-2.204l7.34 4.04c.96.529 2.148-.148 2.148-1.224v-8.222c0-3.21 2.67-5.813 5.961-5.813m63.081-.001c3.291.001 5.959 2.604 5.959 5.814v8.222c0 1.076 1.188 1.753 2.148 1.224l7.342-4.04c2.866-1.578 6.502-.592 8.119 2.204 1.618 2.797.605 6.343-2.261 7.921l-6.962 3.831a1.388 1.388 0 0 0 0 2.447l6.962 3.834c2.866 1.578 3.879 5.124 2.261 7.92s-5.253 3.783-8.119 2.205l-7.342-4.042c-.96-.528-2.148.149-2.148 1.224v8.222c0 3.211-2.668 5.815-5.959 5.815-3.292 0-5.961-2.604-5.961-5.815v-8.222c0-1.075-1.188-1.752-2.148-1.224l-7.34 4.042c-2.866 1.578-6.502.591-8.12-2.205s-.606-6.342 2.26-7.92l6.96-3.834a1.389 1.389 0 0 0 0-2.447l-6.96-3.831c-2.866-1.578-3.878-5.124-2.26-7.921 1.618-2.795 5.254-3.782 8.12-2.204l7.34 4.04c.96.529 2.148-.148 2.148-1.224v-8.222c0-3.21 2.67-5.813 5.961-5.813m63.081-.001c3.291.001 5.959 2.604 5.959 5.814v8.222c0 1.076 1.188 1.753 2.148 1.224l7.342-4.04c2.866-1.578 6.502-.591 8.12 2.204s.604 6.343-2.262 7.921l-6.962 3.831a1.388 1.388 0 0 0 0 2.447l6.962 3.834c2.866 1.578 3.879 5.124 2.262 7.92-1.618 2.796-5.254 3.783-8.12 2.205l-7.342-4.042c-.96-.528-2.148.149-2.148 1.224v8.222c0 3.211-2.668 5.814-5.959 5.815-3.291 0-5.961-2.604-5.961-5.815v-8.222c0-1.076-1.189-1.753-2.149-1.224l-7.339 4.042c-2.866 1.578-6.502.591-8.12-2.205s-.606-6.342 2.261-7.92l6.959-3.834a1.389 1.389 0 0 0 0-2.447l-6.959-3.831c-2.867-1.578-3.878-5.124-2.261-7.921 1.618-2.795 5.254-3.782 8.12-2.204l7.339 4.04c.96.529 2.149-.148 2.149-1.224v-8.222c.001-3.21 2.67-5.813 5.961-5.813" opacity=".9"/></g><defs><linearGradient id="b" x1="76.1858" x2="599.079" y1="45.168" y2="223.063" gradientUnits="userSpaceOnUse"><stop stop-color="#27262b"/><stop offset="1" stop-color="#0e0e0f"/></linearGradient><linearGradient id="c" x1="449.788" x2="153.377" y1="197.631" y2="47.7402" gradientUnits="userSpaceOnUse"><stop stop-color="#1c1c1f"/><stop offset="1" stop-color="#2d2a33"/></linearGradient><linearGradient id="g" x1="151.044" x2="112.74" y1="124.834" y2="102.676" gradientUnits="userSpaceOnUse"><stop stop-color="#fff"/><stop offset="1" stop-color="#fff" stop-opacity="0"/></linearGradient><radialGradient id="e" cx="0" cy="0" r="1" gradientTransform="matrix(39.0894 46.2348 -38.4579 36.9791 117.471 92.006)" gradientUnits="userSpaceOnUse"><stop stop-color="#17f695"/><stop offset="1" stop-color="#037f49"/></radialGradient><radialGradient id="f" cx="0" cy="0" r="1" gradientTransform="matrix(18.1251 23.9999 -22.4437 19.2121 111.324 92.03)" gradientUnits="userSpaceOnUse"><stop stop-color="#fff"/><stop offset="1" stop-color="#0e6e47"/></radialGradient><filter id="a" width="645.301" height="282.9" x="-.0008" y=".0001" color-interpolation-filters="sRGB" filterUnits="userSpaceOnUse"><feFlood flood-opacity="0" result="BackgroundImageFix"/><feColorMatrix in="SourceAlpha" result="hardAlpha" values="0 0 0 0 0 0 0 0 0 0 0 0 0 0 0 0 0 0 127 0"/><feOffset dy="25.4189"/><feGaussianBlur stdDeviation="27.6142"/><feComposite in2="hardAlpha" operator="out"/><feColorMatrix values="0 0 0 0 0.0581944 0 0 0 0 0.0581944 0 0 0 0 0.0581944 0 0 0 1 0"/><feBlend in2="BackgroundImageFix" result="effect1_dropShadow_8066_10494"/><feBlend in="SourceGraphic" in2="effect1_dropShadow_8066_10494" result="shape"/></filter><filter id="d" width="94.8751" height="104.475" x="82.0117" y="69.3653" color-interpolation-filters="sRGB" filterUnits="userSpaceOnUse"><feFlood flood-opacity="0" result="BackgroundImageFix"/><feColorMatrix in="SourceAlpha" result="hardAlpha" values="0 0 0 0 0 0 0 0 0 0 0 0 0 0 0 0 0 0 127 0"/><feOffset dy="5.5714"/><feGaussianBlur stdDeviation="11.7188"/><feComposite in2="hardAlpha" operator="out"/><feColorMatrix values="0 0 0 0 0 0 0 0 0 0 0 0 0 0 0 0 0 0 0.25 0"/><feBlend in2="BackgroundImageFix" result="effect1_dropShadow_8066_10494"/><feColorMatrix in="SourceAlpha" result="hardAlpha" values="0 0 0 0 0 0 0 0 0 0 0 0 0 0 0 0 0 0 127 0"/><feMorphology in="SourceAlpha" radius="6.5104" result="effect2_dropShadow_8066_10494"/><feOffset dy="2.7857"/><feGaussianBlur stdDeviation="2.6042"/><feComposite in2="hardAlpha" operator="out"/><feColorMatrix values="0 0 0 0 0 0 0 0 0 0 0 0 0 0 0 0 0 0 0.25 0"/><feBlend in2="effect1_dropShadow_8066_10494" result="effect2_dropShadow_8066_10494"/><feColorMatrix in="SourceAlpha" result="hardAlpha" values="0 0 0 0 0 0 0 0 0 0 0 0 0 0 0 0 0 0 127 0"/><feOffset dy="2.4"/><feGaussianBlur stdDeviation="4.8"/><feComposite in2="hardAlpha" operator="out"/><feColorMatrix values="0 0 0 0 0.0509804 0 0 0 0 0.65098 0 0 0 0 0.403922 0 0 0 0.3 0"/><feBlend in2="effect2_dropShadow_8066_10494" result="effect3_dropShadow_8066_10494"/><feBlend in="SourceGraphic" in2="effect3_dropShadow_8066_10494" result="shape"/><feColorMatrix in="SourceAlpha" result="hardAlpha" values="0 0 0 0 0 0 0 0 0 0 0 0 0 0 0 0 0 0 127 0"/><feOffset dx="1.3021" dy="1.3021"/><feGaussianBlur stdDeviation=".8464"/><feComposite in2="hardAlpha" k2="-1" k3="1" operator="arithmetic"/><feColorMatrix values="0 0 0 0 1 0 0 0 0 1 0 0 0 0 1 0 0 0 0.22 0"/><feBlend in2="shape" result="effect4_innerShadow_8066_10494"/></filter></defs></svg>