<svg xmlns="http://www.w3.org/2000/svg" width="476" height="366" fill="none" viewBox="0 0 476 366"><g filter="url(#a)"><path fill="#242328" d="M305.929 44h-13.072V30.45a4.355 4.355 0 0 0-4.357-4.35h-101a4.355 4.355 0 0 0-4.357 4.35V44H157V30.45C157 13.659 170.681 0 187.5 0h101C305.319 0 319 13.659 319 30.45V44z"/><path fill="url(#b)" fill-opacity=".1" d="M305.929 44h-13.072V30.45a4.355 4.355 0 0 0-4.357-4.35h-101a4.355 4.355 0 0 0-4.357 4.35V44H157V30.45C157 13.659 170.681 0 187.5 0h101C305.319 0 319 13.659 319 30.45V44z"/></g><path fill="url(#c)" stroke="url(#d)" stroke-width="6" d="m420.848 45 .677.005C450.186 45.39 473 70.199 473 100.349v207.302C473 338.039 449.826 363 420.848 363H55.152C26.174 363 3 338.039 3 307.651V100.349C3 69.961 26.174 45 55.152 45z"/><g filter="url(#e)"><circle cx="426" cy="316" r="12" fill="#100f0f"/></g><g filter="url(#f)"><circle cx="50" cy="316" r="12" fill="#100f0f"/></g><g filter="url(#g)"><circle cx="426" cy="92" r="12" fill="#100f0f"/></g><g filter="url(#h)"><circle cx="50" cy="92" r="12" fill="#100f0f"/></g><g filter="url(#i)"><circle cx="238" cy="204" r="90" fill="#100f0f"/></g><g filter="url(#j)"><path fill="url(#k)" d="M272.909 190.909h-21.818v-21.818c0-7.228-5.863-13.091-13.091-13.091s-13.091 5.863-13.091 13.091v21.818h-21.818c-7.228 0-13.091 5.863-13.091 13.091s5.863 13.091 13.091 13.091h21.818v21.818c0 7.228 5.863 13.091 13.091 13.091s13.091-5.863 13.091-13.091v-21.818h21.818c7.228 0 13.091-5.863 13.091-13.091s-5.863-13.091-13.091-13.091"/><path fill="url(#l)" fill-opacity=".7" d="M272.909 190.909h-21.818v-21.818c0-7.228-5.863-13.091-13.091-13.091s-13.091 5.863-13.091 13.091v21.818h-21.818c-7.228 0-13.091 5.863-13.091 13.091s5.863 13.091 13.091 13.091h21.818v21.818c0 7.228 5.863 13.091 13.091 13.091s13.091-5.863 13.091-13.091v-21.818h21.818c7.228 0 13.091-5.863 13.091-13.091s-5.863-13.091-13.091-13.091"/><path fill="url(#m)" fill-opacity=".6" d="M272.909 190.909h-21.818v-21.818c0-7.228-5.863-13.091-13.091-13.091s-13.091 5.863-13.091 13.091v21.818h-21.818c-7.228 0-13.091 5.863-13.091 13.091s5.863 13.091 13.091 13.091h21.818v21.818c0 7.228 5.863 13.091 13.091 13.091s13.091-5.863 13.091-13.091v-21.818h21.818c7.228 0 13.091-5.863 13.091-13.091s-5.863-13.091-13.091-13.091"/></g><defs><filter id="a" width="162" height="44" x="157" y="0" color-interpolation-filters="sRGB" filterUnits="userSpaceOnUse"><feFlood flood-opacity="0" result="BackgroundImageFix"/><feBlend in="SourceGraphic" in2="BackgroundImageFix" result="shape"/><feColorMatrix in="SourceAlpha" result="hardAlpha" values="0 0 0 0 0 0 0 0 0 0 0 0 0 0 0 0 0 0 127 0"/><feOffset dx="1.5" dy="1.5"/><feComposite in2="hardAlpha" k2="-1" k3="1" operator="arithmetic"/><feColorMatrix values="0 0 0 0 1 0 0 0 0 1 0 0 0 0 1 0 0 0 0.1 0"/><feBlend in2="shape" result="effect1_innerShadow_41_1222"/></filter><filter id="e" width="25.1786" height="25.1786" x="414" y="304" color-interpolation-filters="sRGB" filterUnits="userSpaceOnUse"><feFlood flood-opacity="0" result="BackgroundImageFix"/><feColorMatrix in="SourceAlpha" result="hardAlpha" values="0 0 0 0 0 0 0 0 0 0 0 0 0 0 0 0 0 0 127 0"/><feOffset dx="1.1786" dy="1.1786"/><feComposite in2="hardAlpha" operator="out"/><feColorMatrix values="0 0 0 0 0.329167 0 0 0 0 0.329167 0 0 0 0 0.329167 0 0 0 0.25 0"/><feBlend in2="BackgroundImageFix" result="effect1_dropShadow_41_1222"/><feBlend in="SourceGraphic" in2="effect1_dropShadow_41_1222" result="shape"/><feColorMatrix in="SourceAlpha" result="hardAlpha" values="0 0 0 0 0 0 0 0 0 0 0 0 0 0 0 0 0 0 127 0"/><feOffset dy="1"/><feComposite in2="hardAlpha" k2="-1" k3="1" operator="arithmetic"/><feColorMatrix values="0 0 0 0 0 0 0 0 0 0 0 0 0 0 0 0 0 0 1 0"/><feBlend in2="shape" result="effect2_innerShadow_41_1222"/></filter><filter id="f" width="25.1786" height="25.1786" x="38" y="304" color-interpolation-filters="sRGB" filterUnits="userSpaceOnUse"><feFlood flood-opacity="0" result="BackgroundImageFix"/><feColorMatrix in="SourceAlpha" result="hardAlpha" values="0 0 0 0 0 0 0 0 0 0 0 0 0 0 0 0 0 0 127 0"/><feOffset dx="1.1786" dy="1.1786"/><feComposite in2="hardAlpha" operator="out"/><feColorMatrix values="0 0 0 0 0.329167 0 0 0 0 0.329167 0 0 0 0 0.329167 0 0 0 0.25 0"/><feBlend in2="BackgroundImageFix" result="effect1_dropShadow_41_1222"/><feBlend in="SourceGraphic" in2="effect1_dropShadow_41_1222" result="shape"/><feColorMatrix in="SourceAlpha" result="hardAlpha" values="0 0 0 0 0 0 0 0 0 0 0 0 0 0 0 0 0 0 127 0"/><feOffset dy="1"/><feComposite in2="hardAlpha" k2="-1" k3="1" operator="arithmetic"/><feColorMatrix values="0 0 0 0 0 0 0 0 0 0 0 0 0 0 0 0 0 0 1 0"/><feBlend in2="shape" result="effect2_innerShadow_41_1222"/></filter><filter id="g" width="25.0608" height="25.0608" x="414" y="80" color-interpolation-filters="sRGB" filterUnits="userSpaceOnUse"><feFlood flood-opacity="0" result="BackgroundImageFix"/><feColorMatrix in="SourceAlpha" result="hardAlpha" values="0 0 0 0 0 0 0 0 0 0 0 0 0 0 0 0 0 0 127 0"/><feOffset dx="1.0608" dy="1.0608"/><feComposite in2="hardAlpha" operator="out"/><feColorMatrix values="0 0 0 0 0.329167 0 0 0 0 0.329167 0 0 0 0 0.329167 0 0 0 0.25 0"/><feBlend in2="BackgroundImageFix" result="effect1_dropShadow_41_1222"/><feBlend in="SourceGraphic" in2="effect1_dropShadow_41_1222" result="shape"/><feColorMatrix in="SourceAlpha" result="hardAlpha" values="0 0 0 0 0 0 0 0 0 0 0 0 0 0 0 0 0 0 127 0"/><feOffset dy=".9"/><feComposite in2="hardAlpha" k2="-1" k3="1" operator="arithmetic"/><feColorMatrix values="0 0 0 0 0 0 0 0 0 0 0 0 0 0 0 0 0 0 1 0"/><feBlend in2="shape" result="effect2_innerShadow_41_1222"/></filter><filter id="h" width="25.1786" height="25.1786" x="38" y="80" color-interpolation-filters="sRGB" filterUnits="userSpaceOnUse"><feFlood flood-opacity="0" result="BackgroundImageFix"/><feColorMatrix in="SourceAlpha" result="hardAlpha" values="0 0 0 0 0 0 0 0 0 0 0 0 0 0 0 0 0 0 127 0"/><feOffset dx="1.1786" dy="1.1786"/><feComposite in2="hardAlpha" operator="out"/><feColorMatrix values="0 0 0 0 0.329167 0 0 0 0 0.329167 0 0 0 0 0.329167 0 0 0 0.25 0"/><feBlend in2="BackgroundImageFix" result="effect1_dropShadow_41_1222"/><feBlend in="SourceGraphic" in2="effect1_dropShadow_41_1222" result="shape"/><feColorMatrix in="SourceAlpha" result="hardAlpha" values="0 0 0 0 0 0 0 0 0 0 0 0 0 0 0 0 0 0 127 0"/><feOffset dy="1"/><feComposite in2="hardAlpha" k2="-1" k3="1" operator="arithmetic"/><feColorMatrix values="0 0 0 0 0 0 0 0 0 0 0 0 0 0 0 0 0 0 1 0"/><feBlend in2="shape" result="effect2_innerShadow_41_1222"/></filter><filter id="i" width="181.061" height="181.061" x="148" y="114" color-interpolation-filters="sRGB" filterUnits="userSpaceOnUse"><feFlood flood-opacity="0" result="BackgroundImageFix"/><feColorMatrix in="SourceAlpha" result="hardAlpha" values="0 0 0 0 0 0 0 0 0 0 0 0 0 0 0 0 0 0 127 0"/><feOffset dx="1.0608" dy="1.0608"/><feComposite in2="hardAlpha" operator="out"/><feColorMatrix values="0 0 0 0 0.329167 0 0 0 0 0.329167 0 0 0 0 0.329167 0 0 0 0.25 0"/><feBlend in2="BackgroundImageFix" result="effect1_dropShadow_41_1222"/><feBlend in="SourceGraphic" in2="effect1_dropShadow_41_1222" result="shape"/><feColorMatrix in="SourceAlpha" result="hardAlpha" values="0 0 0 0 0 0 0 0 0 0 0 0 0 0 0 0 0 0 127 0"/><feOffset dy=".9"/><feComposite in2="hardAlpha" k2="-1" k3="1" operator="arithmetic"/><feColorMatrix values="0 0 0 0 0 0 0 0 0 0 0 0 0 0 0 0 0 0 1 0"/><feBlend in2="shape" result="effect2_innerShadow_41_1222"/></filter><filter id="j" width="96" height="96" x="190" y="156" color-interpolation-filters="sRGB" filterUnits="userSpaceOnUse"><feFlood flood-opacity="0" result="BackgroundImageFix"/><feBlend in="SourceGraphic" in2="BackgroundImageFix" result="shape"/><feColorMatrix in="SourceAlpha" result="hardAlpha" values="0 0 0 0 0 0 0 0 0 0 0 0 0 0 0 0 0 0 127 0"/><feOffset dx="1.5" dy="1.5"/><feComposite in2="hardAlpha" k2="-1" k3="1" operator="arithmetic"/><feColorMatrix values="0 0 0 0 1 0 0 0 0 1 0 0 0 0 1 0 0 0 0.32 0"/><feBlend in2="shape" result="effect1_innerShadow_41_1222"/></filter><radialGradient id="b" cx="0" cy="0" r="1" gradientTransform="matrix(87 36.4138 -91.953 21.8215 212 -8.85)" gradientUnits="userSpaceOnUse"><stop stop-color="#fff"/><stop offset="1" stop-color="#fff" stop-opacity="0"/></radialGradient><radialGradient id="c" cx="0" cy="0" r="1" gradientTransform="matrix(402.559 248.134 -742.648 185.657 103.814 137.517)" gradientUnits="userSpaceOnUse"><stop stop-color="#29282d"/><stop offset="1" stop-color="#0d0d0e"/></radialGradient><radialGradient id="l" cx="0" cy="0" r="1" gradientTransform="matrix(76 82.5 -81.0074 58.6854 190 156)" gradientUnits="userSpaceOnUse"><stop stop-color="#fff"/><stop offset="1" stop-color="#fff" stop-opacity="0"/></radialGradient><radialGradient id="m" cx="0" cy="0" r="1" gradientTransform="matrix(72 71.5 -70.3736 55.9168 198 169)" gradientUnits="userSpaceOnUse"><stop stop-color="#fff"/><stop offset=".9955" stop-color="#fff" stop-opacity="0"/></radialGradient><linearGradient id="d" x1="424.98" x2="29.2357" y1="312.909" y2="93.2122" gradientUnits="userSpaceOnUse"><stop stop-color="#dbf153"/><stop offset="1" stop-color="#00cfb6"/></linearGradient><linearGradient id="k" x1="203.333" x2="261.906" y1="160.423" y2="267.651" gradientUnits="userSpaceOnUse"><stop stop-color="#8f8f8f"/><stop offset="1" stop-color="#828282"/></linearGradient></defs></svg>