<svg xmlns="http://www.w3.org/2000/svg" width="484" height="485" fill="none" viewBox="0 0 484 485"><g filter="url(#a)"><rect width="352" height="352" x="66" y="49" fill="url(#b)" rx="80"/><rect width="358" height="358" x="63" y="46" stroke="url(#c)" stroke-width="6" rx="83"/><g filter="url(#d)"><circle cx="242" cy="225" r="90" fill="#100f0f"/><circle cx="242" cy="225" r="90" fill="url(#e)" fill-opacity=".04"/></g><g filter="url(#f)"><path fill="url(#g)" d="M248.25 200c4.825 0 8.75 3.925 8.75 8.75V225h7.315c2.42 0 4.58 1.355 5.63 3.535a6.21 6.21 0 0 1-.74 6.605l-22.314 28.03a6.23 6.23 0 0 1-4.891 2.355 6.23 6.23 0 0 1-4.89-2.355l-22.315-28.03a6.21 6.21 0 0 1-.739-6.605 6.2 6.2 0 0 1 5.63-3.535H227v-16.25c0-4.825 3.925-8.75 8.75-8.75zm5-15c2.07 0 3.75 1.68 3.75 3.75s-1.68 3.75-3.75 3.75h-22.5c-2.07 0-3.75-1.68-3.75-3.75s1.68-3.75 3.75-3.75z"/><path fill="url(#h)" fill-opacity=".7" d="M248.25 200c4.825 0 8.75 3.925 8.75 8.75V225h7.315c2.42 0 4.58 1.355 5.63 3.535a6.21 6.21 0 0 1-.74 6.605l-22.314 28.03a6.23 6.23 0 0 1-4.891 2.355 6.23 6.23 0 0 1-4.89-2.355l-22.315-28.03a6.21 6.21 0 0 1-.739-6.605 6.2 6.2 0 0 1 5.63-3.535H227v-16.25c0-4.825 3.925-8.75 8.75-8.75zm5-15c2.07 0 3.75 1.68 3.75 3.75s-1.68 3.75-3.75 3.75h-22.5c-2.07 0-3.75-1.68-3.75-3.75s1.68-3.75 3.75-3.75z"/></g></g><defs><linearGradient id="c" x1="383.847" x2="27.1356" y1="338.601" y2="225.228" gradientUnits="userSpaceOnUse"><stop stop-color="#dbf153"/><stop offset="1" stop-color="#00cfb6"/></linearGradient><linearGradient id="e" x1="242" x2="242" y1="135" y2="315" gradientUnits="userSpaceOnUse"><stop stop-color="#fff"/><stop offset="1" stop-color="#fff" stop-opacity="0"/></linearGradient><linearGradient id="g" x1="221.365" x2="277.812" y1="188.71" y2="262.04" gradientUnits="userSpaceOnUse"><stop stop-color="#8f8f8f"/><stop offset="1" stop-color="#828282"/></linearGradient><filter id="a" width="484" height="484" x="0" y=".63" color-interpolation-filters="sRGB" filterUnits="userSpaceOnUse"><feFlood flood-opacity="0" result="BackgroundImageFix"/><feColorMatrix in="SourceAlpha" result="hardAlpha" values="0 0 0 0 0 0 0 0 0 0 0 0 0 0 0 0 0 0 127 0"/><feOffset dy="17.63"/><feGaussianBlur stdDeviation="30"/><feColorMatrix values="0 0 0 0 0 0 0 0 0 0 0 0 0 0 0 0 0 0 0.05 0"/><feBlend in2="BackgroundImageFix" result="effect1_dropShadow_10282_96417"/><feBlend in="SourceGraphic" in2="effect1_dropShadow_10282_96417" result="shape"/></filter><filter id="d" width="181.179" height="181.179" x="152" y="135" color-interpolation-filters="sRGB" filterUnits="userSpaceOnUse"><feFlood flood-opacity="0" result="BackgroundImageFix"/><feColorMatrix in="SourceAlpha" result="hardAlpha" values="0 0 0 0 0 0 0 0 0 0 0 0 0 0 0 0 0 0 127 0"/><feOffset dx="1.1786" dy="1.1786"/><feComposite in2="hardAlpha" operator="out"/><feColorMatrix values="0 0 0 0 0.329167 0 0 0 0 0.329167 0 0 0 0 0.329167 0 0 0 0.21 0"/><feBlend in2="BackgroundImageFix" result="effect1_dropShadow_10282_96417"/><feBlend in="SourceGraphic" in2="effect1_dropShadow_10282_96417" result="shape"/><feColorMatrix in="SourceAlpha" result="hardAlpha" values="0 0 0 0 0 0 0 0 0 0 0 0 0 0 0 0 0 0 127 0"/><feOffset dy="1"/><feComposite in2="hardAlpha" k2="-1" k3="1" operator="arithmetic"/><feColorMatrix values="0 0 0 0 0 0 0 0 0 0 0 0 0 0 0 0 0 0 0.4 0"/><feBlend in2="shape" result="effect2_innerShadow_10282_96417"/></filter><filter id="f" width="57.1426" height="80.5254" x="213.429" y="185" color-interpolation-filters="sRGB" filterUnits="userSpaceOnUse"><feFlood flood-opacity="0" result="BackgroundImageFix"/><feBlend in="SourceGraphic" in2="BackgroundImageFix" result="shape"/><feColorMatrix in="SourceAlpha" result="hardAlpha" values="0 0 0 0 0 0 0 0 0 0 0 0 0 0 0 0 0 0 127 0"/><feOffset dx="1.5" dy="1.5"/><feComposite in2="hardAlpha" k2="-1" k3="1" operator="arithmetic"/><feColorMatrix values="0 0 0 0 1 0 0 0 0 1 0 0 0 0 1 0 0 0 0.32 0"/><feBlend in2="shape" result="effect1_innerShadow_10282_96417"/></filter><radialGradient id="b" cx="0" cy="0" r="1" gradientTransform="matrix(247 285.349 -456.843 161.808 130.5 101.071)" gradientUnits="userSpaceOnUse"><stop stop-color="#29282d"/><stop offset="1" stop-color="#0d0d0e"/></radialGradient><radialGradient id="h" cx="0" cy="0" r="1" gradientTransform="matrix(29.7619 49.2799 -32.2345 30.8773 224.515 192.233)" gradientUnits="userSpaceOnUse"><stop stop-color="#fff"/><stop offset=".9955" stop-color="#fff" stop-opacity="0"/></radialGradient></defs></svg>