<svg xmlns="http://www.w3.org/2000/svg" width="480" height="481" fill="none" viewBox="0 0 480 481"><foreignObject width="520" height="520" x="-20" y="-37"><div xmlns="http://www.w3.org/1999/xhtml" style="backdrop-filter:blur(40px);clip-path:url(#a);height:100%;width:100%"/></foreignObject><g data-figma-bg-blur-radius="80" filter="url(#b)"><rect width="352" height="352" x="64" y="47" fill="url(#c)" rx="80" shape-rendering="crispEdges"/><rect width="356" height="356" x="62" y="45" stroke="url(#d)" stroke-width="4" rx="82" shape-rendering="crispEdges"/><g filter="url(#e)"><circle cx="240" cy="223" r="90" fill="url(#f)"/></g><g filter="url(#g)" opacity=".9"><path fill="url(#h)" d="M246.25 198c4.825 0 8.75 3.925 8.75 8.75V223h7.315c2.42 0 4.58 1.355 5.63 3.535a6.21 6.21 0 0 1-.74 6.605l-22.314 28.03a6.23 6.23 0 0 1-4.891 2.355 6.23 6.23 0 0 1-4.89-2.355l-22.315-28.03a6.21 6.21 0 0 1-.739-6.605 6.2 6.2 0 0 1 5.63-3.535H225v-16.25c0-4.825 3.925-8.75 8.75-8.75zm5-15c2.07 0 3.75 1.68 3.75 3.75s-1.68 3.75-3.75 3.75h-22.5c-2.07 0-3.75-1.68-3.75-3.75s1.68-3.75 3.75-3.75z"/><path fill="url(#i)" fill-opacity=".2" d="M246.25 198c4.825 0 8.75 3.925 8.75 8.75V223h7.315c2.42 0 4.58 1.355 5.63 3.535a6.21 6.21 0 0 1-.74 6.605l-22.314 28.03a6.23 6.23 0 0 1-4.891 2.355 6.23 6.23 0 0 1-4.89-2.355l-22.315-28.03a6.21 6.21 0 0 1-.739-6.605 6.2 6.2 0 0 1 5.63-3.535H225v-16.25c0-4.825 3.925-8.75 8.75-8.75zm5-15c2.07 0 3.75 1.68 3.75 3.75s-1.68 3.75-3.75 3.75h-22.5c-2.07 0-3.75-1.68-3.75-3.75s1.68-3.75 3.75-3.75z" style="mix-blend-mode:screen"/></g></g><defs><radialGradient id="c" cx="0" cy="0" r="1" gradientTransform="matrix(166.4 255.862 -278.844 207.088 158.6 84.818)" gradientUnits="userSpaceOnUse"><stop stop-color="#fff" stop-opacity=".5"/><stop offset="1" stop-color="#f7f6f3" stop-opacity=".9"/></radialGradient><radialGradient id="h" cx="0" cy="0" r="1" gradientTransform="matrix(47.0899 64.2878 -45.6201 52.4317 225.185 190.024)" gradientUnits="userSpaceOnUse"><stop stop-color="#444"/><stop offset="1"/></radialGradient><radialGradient id="i" cx="0" cy="0" r="1" gradientTransform="matrix(21.5773 33.5522 -26.7185 26.8588 218.423 189.709)" gradientUnits="userSpaceOnUse"><stop stop-color="#fff"/><stop offset="1"/></radialGradient><filter id="b" width="520" height="520" x="-20" y="-37" color-interpolation-filters="sRGB" filterUnits="userSpaceOnUse"><feFlood flood-opacity="0" result="BackgroundImageFix"/><feColorMatrix in="SourceAlpha" result="hardAlpha" values="0 0 0 0 0 0 0 0 0 0 0 0 0 0 0 0 0 0 127 0"/><feOffset dy="17.631"/><feGaussianBlur stdDeviation="30"/><feComposite in2="hardAlpha" operator="out"/><feColorMatrix values="0 0 0 0 0.217398 0 0 0 0 0.208887 0 0 0 0 0.144451 0 0 0 0.1 0"/><feBlend in2="BackgroundImageFix" result="effect1_dropShadow_10282_96441"/><feBlend in="SourceGraphic" in2="effect1_dropShadow_10282_96441" result="shape"/></filter><filter id="e" width="180" height="180" x="150" y="133" color-interpolation-filters="sRGB" filterUnits="userSpaceOnUse"><feFlood flood-opacity="0" result="BackgroundImageFix"/><feBlend in="SourceGraphic" in2="BackgroundImageFix" result="shape"/><feColorMatrix in="SourceAlpha" result="hardAlpha" values="0 0 0 0 0 0 0 0 0 0 0 0 0 0 0 0 0 0 127 0"/><feOffset/><feGaussianBlur stdDeviation="16"/><feComposite in2="hardAlpha" k2="-1" k3="1" operator="arithmetic"/><feColorMatrix values="0 0 0 0 0.784314 0 0 0 0 0.782745 0 0 0 0 0.778039 0 0 0 0.7 0"/><feBlend in2="shape" result="effect1_innerShadow_10282_96441"/></filter><filter id="g" width="57.1426" height="80.5254" x="211.429" y="183" color-interpolation-filters="sRGB" filterUnits="userSpaceOnUse"><feFlood flood-opacity="0" result="BackgroundImageFix"/><feBlend in="SourceGraphic" in2="BackgroundImageFix" result="shape"/><feColorMatrix in="SourceAlpha" result="hardAlpha" values="0 0 0 0 0 0 0 0 0 0 0 0 0 0 0 0 0 0 127 0"/><feOffset dx="1" dy="1"/><feComposite in2="hardAlpha" k2="-1" k3="1" operator="arithmetic"/><feColorMatrix values="0 0 0 0 0 0 0 0 0 0 0 0 0 0 0 0 0 0 0.22 0"/><feBlend in2="shape" result="effect1_innerShadow_10282_96441"/></filter><linearGradient id="d" x1="240" x2="240" y1="47" y2="399" gradientUnits="userSpaceOnUse"><stop stop-color="#fff"/><stop offset="1" stop-color="#f5f5f5"/></linearGradient><linearGradient id="f" x1="240" x2="240" y1="133" y2="313" gradientUnits="userSpaceOnUse"><stop stop-color="#f5f4f1"/><stop offset="1" stop-color="#f4f4f4"/></linearGradient><clipPath id="a" transform="translate(20 37)"><rect width="352" height="352" x="64" y="47" rx="80"/></clipPath></defs></svg>