<svg xmlns="http://www.w3.org/2000/svg" width="360" height="346" fill="none" viewBox="0 0 360 346"><g filter="url(#a)"><rect width="352" height="338" x="4" y="4" fill="url(#b)" rx="50"/><rect width="356" height="342" x="2" y="2" stroke="url(#c)" stroke-width="4" rx="52"/></g><g filter="url(#d)"><rect width="12" height="29" x="24" y="61" fill="#f1f1ee" rx="6"/></g><g filter="url(#e)"><rect width="12" height="29" x="24" y="256" fill="#f1f1ee" rx="6"/></g><g filter="url(#f)"><circle cx="180" cy="173" r="96" fill="url(#g)"/></g><g stroke="#dfdede" stroke-width="1.8" filter="url(#h)"><path d="M180.9 77v192m67.619-163.246L112.754 241.518M276 173.9H84m163.246 67.619L111.481 105.755M228.779 90.31l-96 166.276m140.184-107.564L87.505 198.715m175.183 23.064-166.277-96m107.565 140.18L154.283 80.502m51.433.008-49.693 185.458m107.566-140.189-166.277 96m175.184-23.062L87.038 149.024M227.22 256.598l-96-166.276" opacity=".5"/></g><g filter="url(#i)"><circle cx="180" cy="172.998" r="69.6" fill="#f0f0ef"/></g><g filter="url(#j)" opacity=".9"><path fill="url(#k)" d="M180 134.602c-21.173 0-38.4 17.227-38.4 38.4s17.227 38.4 38.4 38.4 38.4-17.228 38.4-38.4c0-21.173-17.227-38.4-38.4-38.4m3.6 44.937v10.263c0 1.987-1.613 3.6-3.6 3.6a3.6 3.6 0 0 1-3.6-3.6v-10.263c-4.186-1.488-7.2-5.443-7.2-10.137 0-5.967 4.834-10.8 10.8-10.8s10.8 4.833 10.8 10.8c0 4.694-3.014 8.649-7.2 10.137"/><path fill="url(#l)" fill-opacity=".2" d="M180 134.602c-21.173 0-38.4 17.227-38.4 38.4s17.227 38.4 38.4 38.4 38.4-17.228 38.4-38.4c0-21.173-17.227-38.4-38.4-38.4m3.6 44.937v10.263c0 1.987-1.613 3.6-3.6 3.6a3.6 3.6 0 0 1-3.6-3.6v-10.263c-4.186-1.488-7.2-5.443-7.2-10.137 0-5.967 4.834-10.8 10.8-10.8s10.8 4.833 10.8 10.8c0 4.694-3.014 8.649-7.2 10.137" style="mix-blend-mode:screen"/></g><defs><filter id="a" width="520" height="506" x="-80" y="-80" color-interpolation-filters="sRGB" filterUnits="userSpaceOnUse"><feFlood flood-opacity="0" result="BackgroundImageFix"/><feGaussianBlur in="BackgroundImageFix" stdDeviation="40"/><feComposite in2="SourceAlpha" operator="in" result="effect1_backgroundBlur_6840_11486"/><feBlend in="SourceGraphic" in2="effect1_backgroundBlur_6840_11486" result="shape"/></filter><filter id="d" width="13.2" height="30.2" x="24" y="61" color-interpolation-filters="sRGB" filterUnits="userSpaceOnUse"><feFlood flood-opacity="0" result="BackgroundImageFix"/><feColorMatrix in="SourceAlpha" result="hardAlpha" values="0 0 0 0 0 0 0 0 0 0 0 0 0 0 0 0 0 0 127 0"/><feOffset dx="1.2" dy="1.2"/><feComposite in2="hardAlpha" operator="out"/><feColorMatrix values="0 0 0 0 1 0 0 0 0 1 0 0 0 0 1 0 0 0 1 0"/><feBlend in2="BackgroundImageFix" result="effect1_dropShadow_6840_11486"/><feBlend in="SourceGraphic" in2="effect1_dropShadow_6840_11486" result="shape"/><feColorMatrix in="SourceAlpha" result="hardAlpha" values="0 0 0 0 0 0 0 0 0 0 0 0 0 0 0 0 0 0 127 0"/><feOffset/><feGaussianBlur stdDeviation="8"/><feComposite in2="hardAlpha" k2="-1" k3="1" operator="arithmetic"/><feColorMatrix values="0 0 0 0 0.784314 0 0 0 0 0.782745 0 0 0 0 0.778039 0 0 0 0.4 0"/><feBlend in2="shape" result="effect2_innerShadow_6840_11486"/></filter><filter id="e" width="13.2" height="30.2" x="24" y="256" color-interpolation-filters="sRGB" filterUnits="userSpaceOnUse"><feFlood flood-opacity="0" result="BackgroundImageFix"/><feColorMatrix in="SourceAlpha" result="hardAlpha" values="0 0 0 0 0 0 0 0 0 0 0 0 0 0 0 0 0 0 127 0"/><feOffset dx="1.2" dy="1.2"/><feComposite in2="hardAlpha" operator="out"/><feColorMatrix values="0 0 0 0 1 0 0 0 0 1 0 0 0 0 1 0 0 0 1 0"/><feBlend in2="BackgroundImageFix" result="effect1_dropShadow_6840_11486"/><feBlend in="SourceGraphic" in2="effect1_dropShadow_6840_11486" result="shape"/><feColorMatrix in="SourceAlpha" result="hardAlpha" values="0 0 0 0 0 0 0 0 0 0 0 0 0 0 0 0 0 0 127 0"/><feOffset/><feGaussianBlur stdDeviation="8"/><feComposite in2="hardAlpha" k2="-1" k3="1" operator="arithmetic"/><feColorMatrix values="0 0 0 0 0.784314 0 0 0 0 0.782745 0 0 0 0 0.778039 0 0 0 0.4 0"/><feBlend in2="shape" result="effect2_innerShadow_6840_11486"/></filter><filter id="f" width="193.2" height="193.2" x="84" y="77" color-interpolation-filters="sRGB" filterUnits="userSpaceOnUse"><feFlood flood-opacity="0" result="BackgroundImageFix"/><feColorMatrix in="SourceAlpha" result="hardAlpha" values="0 0 0 0 0 0 0 0 0 0 0 0 0 0 0 0 0 0 127 0"/><feOffset dx="1.2" dy="1.2"/><feComposite in2="hardAlpha" operator="out"/><feColorMatrix values="0 0 0 0 1 0 0 0 0 1 0 0 0 0 1 0 0 0 1 0"/><feBlend in2="BackgroundImageFix" result="effect1_dropShadow_6840_11486"/><feBlend in="SourceGraphic" in2="effect1_dropShadow_6840_11486" result="shape"/><feColorMatrix in="SourceAlpha" result="hardAlpha" values="0 0 0 0 0 0 0 0 0 0 0 0 0 0 0 0 0 0 127 0"/><feOffset/><feGaussianBlur stdDeviation="16"/><feComposite in2="hardAlpha" k2="-1" k3="1" operator="arithmetic"/><feColorMatrix values="0 0 0 0 0.784314 0 0 0 0 0.782745 0 0 0 0 0.778039 0 0 0 0.7 0"/><feBlend in2="shape" result="effect2_innerShadow_6840_11486"/></filter><filter id="h" width="192" height="193.2" x="84" y="77" color-interpolation-filters="sRGB" filterUnits="userSpaceOnUse"><feFlood flood-opacity="0" result="BackgroundImageFix"/><feColorMatrix in="SourceAlpha" result="hardAlpha" values="0 0 0 0 0 0 0 0 0 0 0 0 0 0 0 0 0 0 127 0"/><feOffset dy="1.2"/><feComposite in2="hardAlpha" operator="out"/><feColorMatrix values="0 0 0 0 1 0 0 0 0 1 0 0 0 0 1 0 0 0 1 0"/><feBlend in2="BackgroundImageFix" result="effect1_dropShadow_6840_11486"/><feBlend in="SourceGraphic" in2="effect1_dropShadow_6840_11486" result="shape"/></filter><filter id="i" width="139.2" height="139.199" x="110.4" y="103.398" color-interpolation-filters="sRGB" filterUnits="userSpaceOnUse"><feFlood flood-opacity="0" result="BackgroundImageFix"/><feBlend in="SourceGraphic" in2="BackgroundImageFix" result="shape"/><feColorMatrix in="SourceAlpha" result="hardAlpha" values="0 0 0 0 0 0 0 0 0 0 0 0 0 0 0 0 0 0 127 0"/><feOffset/><feGaussianBlur stdDeviation="4"/><feComposite in2="hardAlpha" k2="-1" k3="1" operator="arithmetic"/><feColorMatrix values="0 0 0 0 0.784314 0 0 0 0 0.782745 0 0 0 0 0.778039 0 0 0 0.6 0"/><feBlend in2="shape" result="effect1_innerShadow_6840_11486"/></filter><filter id="j" width="76.7998" height="76.8008" x="141.6" y="134.602" color-interpolation-filters="sRGB" filterUnits="userSpaceOnUse"><feFlood flood-opacity="0" result="BackgroundImageFix"/><feBlend in="SourceGraphic" in2="BackgroundImageFix" result="shape"/><feColorMatrix in="SourceAlpha" result="hardAlpha" values="0 0 0 0 0 0 0 0 0 0 0 0 0 0 0 0 0 0 127 0"/><feOffset dx="1" dy="1"/><feComposite in2="hardAlpha" k2="-1" k3="1" operator="arithmetic"/><feColorMatrix values="0 0 0 0 0 0 0 0 0 0 0 0 0 0 0 0 0 0 0.22 0"/><feBlend in2="shape" result="effect1_innerShadow_6840_11486"/></filter><radialGradient id="b" cx="0" cy="0" r="1" gradientTransform="rotate(55.89 11.303 113.09)scale(296.733 342.385)" gradientUnits="userSpaceOnUse"><stop stop-color="#fff" stop-opacity=".5"/><stop offset="1" stop-color="#f7f6f3" stop-opacity=".9"/></radialGradient><radialGradient id="k" cx="0" cy="0" r="1" gradientTransform="rotate(44.092 -94.418 268.311)scale(88.1183 78.5782)" gradientUnits="userSpaceOnUse"><stop stop-color="#444"/><stop offset="1"/></radialGradient><radialGradient id="l" cx="0" cy="0" r="1" gradientTransform="rotate(47.816 -83.534 240.813)scale(43.1856 43.8105)" gradientUnits="userSpaceOnUse"><stop stop-color="#fff"/><stop offset="1"/></radialGradient><linearGradient id="c" x1="180" x2="180" y1="4" y2="342" gradientUnits="userSpaceOnUse"><stop stop-color="#fff"/><stop offset="1" stop-color="#f5f5f5"/></linearGradient><linearGradient id="g" x1="180" x2="180" y1="77" y2="269" gradientUnits="userSpaceOnUse"><stop stop-color="#f5f4f1"/><stop offset="1" stop-color="#fff"/></linearGradient></defs></svg>