<svg xmlns="http://www.w3.org/2000/svg" width="364" height="364" fill="none" viewBox="0 0 364 364"><rect width="358" height="358" x="3" y="3" fill="url(#a)" stroke="url(#b)" stroke-width="6" rx="53"/><g filter="url(#c)"><rect width="12" height="29" x="26" y="70" fill="#100f0f" rx="6"/></g><g filter="url(#d)"><rect width="12" height="29" x="26" y="265" fill="#100f0f" rx="6"/></g><g filter="url(#e)"><circle cx="182" cy="182" r="96" fill="#100f0f"/><circle cx="182" cy="182" r="96" fill="url(#f)" fill-opacity=".04"/></g><path stroke="#414141" stroke-width="1.8" d="M182.9 86v192m67.619-163.246L114.754 250.518M278 182.9H86m163.246 67.619L113.481 114.755M230.779 99.31l-96 166.276m140.184-107.564L89.505 207.715m175.183 23.064-166.277-96m107.565 140.18L156.283 89.502m51.433.008-49.693 185.458m107.566-140.189-166.277 96m175.184-23.062L89.038 158.024M229.22 265.598l-96-166.276" opacity=".5"/><circle cx="182" cy="181.998" r="69.85" fill="#1d1d20" stroke="#000" stroke-width=".5"/><g filter="url(#g)"><path fill="url(#h)" d="M182 143.602c-21.173 0-38.4 17.227-38.4 38.4s17.227 38.4 38.4 38.4 38.4-17.228 38.4-38.4c0-21.173-17.227-38.4-38.4-38.4m3.6 44.937v10.263c0 1.987-1.613 3.6-3.6 3.6a3.6 3.6 0 0 1-3.6-3.6v-10.263c-4.186-1.488-7.2-5.443-7.2-10.137 0-5.967 4.834-10.8 10.8-10.8s10.8 4.833 10.8 10.8c0 4.694-3.014 8.649-7.2 10.137"/><path fill="url(#i)" fill-opacity=".7" d="M182 143.602c-21.173 0-38.4 17.227-38.4 38.4s17.227 38.4 38.4 38.4 38.4-17.228 38.4-38.4c0-21.173-17.227-38.4-38.4-38.4m3.6 44.937v10.263c0 1.987-1.613 3.6-3.6 3.6a3.6 3.6 0 0 1-3.6-3.6v-10.263c-4.186-1.488-7.2-5.443-7.2-10.137 0-5.967 4.834-10.8 10.8-10.8s10.8 4.833 10.8 10.8c0 4.694-3.014 8.649-7.2 10.137"/></g><defs><filter id="c" width="13.1786" height="30.1786" x="26" y="70" color-interpolation-filters="sRGB" filterUnits="userSpaceOnUse"><feFlood flood-opacity="0" result="BackgroundImageFix"/><feColorMatrix in="SourceAlpha" result="hardAlpha" values="0 0 0 0 0 0 0 0 0 0 0 0 0 0 0 0 0 0 127 0"/><feOffset dx="1.1786" dy="1.1786"/><feComposite in2="hardAlpha" operator="out"/><feColorMatrix values="0 0 0 0 0.329167 0 0 0 0 0.329167 0 0 0 0 0.329167 0 0 0 0.25 0"/><feBlend in2="BackgroundImageFix" result="effect1_dropShadow_6840_12444"/><feBlend in="SourceGraphic" in2="effect1_dropShadow_6840_12444" result="shape"/><feColorMatrix in="SourceAlpha" result="hardAlpha" values="0 0 0 0 0 0 0 0 0 0 0 0 0 0 0 0 0 0 127 0"/><feOffset dy="1"/><feComposite in2="hardAlpha" k2="-1" k3="1" operator="arithmetic"/><feColorMatrix values="0 0 0 0 0 0 0 0 0 0 0 0 0 0 0 0 0 0 1 0"/><feBlend in2="shape" result="effect2_innerShadow_6840_12444"/></filter><filter id="d" width="13.1786" height="30.1786" x="26" y="265" color-interpolation-filters="sRGB" filterUnits="userSpaceOnUse"><feFlood flood-opacity="0" result="BackgroundImageFix"/><feColorMatrix in="SourceAlpha" result="hardAlpha" values="0 0 0 0 0 0 0 0 0 0 0 0 0 0 0 0 0 0 127 0"/><feOffset dx="1.1786" dy="1.1786"/><feComposite in2="hardAlpha" operator="out"/><feColorMatrix values="0 0 0 0 0.329167 0 0 0 0 0.329167 0 0 0 0 0.329167 0 0 0 0.25 0"/><feBlend in2="BackgroundImageFix" result="effect1_dropShadow_6840_12444"/><feBlend in="SourceGraphic" in2="effect1_dropShadow_6840_12444" result="shape"/><feColorMatrix in="SourceAlpha" result="hardAlpha" values="0 0 0 0 0 0 0 0 0 0 0 0 0 0 0 0 0 0 127 0"/><feOffset dy="1"/><feComposite in2="hardAlpha" k2="-1" k3="1" operator="arithmetic"/><feColorMatrix values="0 0 0 0 0 0 0 0 0 0 0 0 0 0 0 0 0 0 1 0"/><feBlend in2="shape" result="effect2_innerShadow_6840_12444"/></filter><filter id="e" width="193.179" height="193.179" x="86" y="86" color-interpolation-filters="sRGB" filterUnits="userSpaceOnUse"><feFlood flood-opacity="0" result="BackgroundImageFix"/><feColorMatrix in="SourceAlpha" result="hardAlpha" values="0 0 0 0 0 0 0 0 0 0 0 0 0 0 0 0 0 0 127 0"/><feOffset dx="1.1786" dy="1.1786"/><feComposite in2="hardAlpha" operator="out"/><feColorMatrix values="0 0 0 0 0.329167 0 0 0 0 0.329167 0 0 0 0 0.329167 0 0 0 0.21 0"/><feBlend in2="BackgroundImageFix" result="effect1_dropShadow_6840_12444"/><feBlend in="SourceGraphic" in2="effect1_dropShadow_6840_12444" result="shape"/><feColorMatrix in="SourceAlpha" result="hardAlpha" values="0 0 0 0 0 0 0 0 0 0 0 0 0 0 0 0 0 0 127 0"/><feOffset dy="1"/><feComposite in2="hardAlpha" k2="-1" k3="1" operator="arithmetic"/><feColorMatrix values="0 0 0 0 0 0 0 0 0 0 0 0 0 0 0 0 0 0 0.4 0"/><feBlend in2="shape" result="effect2_innerShadow_6840_12444"/></filter><filter id="g" width="76.7998" height="76.8008" x="143.6" y="143.602" color-interpolation-filters="sRGB" filterUnits="userSpaceOnUse"><feFlood flood-opacity="0" result="BackgroundImageFix"/><feBlend in="SourceGraphic" in2="BackgroundImageFix" result="shape"/><feColorMatrix in="SourceAlpha" result="hardAlpha" values="0 0 0 0 0 0 0 0 0 0 0 0 0 0 0 0 0 0 127 0"/><feOffset dx="1.5" dy="1.5"/><feComposite in2="hardAlpha" k2="-1" k3="1" operator="arithmetic"/><feColorMatrix values="0 0 0 0 1 0 0 0 0 1 0 0 0 0 1 0 0 0 0.32 0"/><feBlend in2="shape" result="effect1_innerShadow_6840_12444"/></filter><linearGradient id="b" x1="323.847" x2="-32.8644" y1="295.601" y2="182.228" gradientUnits="userSpaceOnUse"><stop stop-color="#dbf153"/><stop offset="1" stop-color="#00cfb6"/></linearGradient><linearGradient id="f" x1="182" x2="182" y1="86" y2="278" gradientUnits="userSpaceOnUse"><stop stop-color="#fff"/><stop offset="1" stop-color="#fff" stop-opacity="0"/></linearGradient><linearGradient id="h" x1="154.267" x2="201.125" y1="147.14" y2="232.922" gradientUnits="userSpaceOnUse"><stop stop-color="#8f8f8f"/><stop offset="1" stop-color="#828282"/></linearGradient><radialGradient id="a" cx="0" cy="0" r="1" gradientTransform="rotate(49.12 -28.286 106.17)scale(377.403 451.312)" gradientUnits="userSpaceOnUse"><stop stop-color="#29282d"/><stop offset="1" stop-color="#0d0d0e"/></radialGradient><radialGradient id="i" cx="0" cy="0" r="1" gradientTransform="matrix(40 47 -39.65998 33.75317 158.5 150.5)" gradientUnits="userSpaceOnUse"><stop stop-color="#fff"/><stop offset=".9955" stop-color="#fff" stop-opacity="0"/></radialGradient></defs></svg>