<svg viewBox="0 0 20 20" fill="none" xmlns="http://www.w3.org/2000/svg">
<g clip-path="url(#clip0_10_433)">
<path d="M0 8C0 5.19974 0 3.79961 0.544967 2.73005C1.02433 1.78924 1.78924 1.02433 2.73005 0.544967C3.79961 0 5.19974 0 8 0H12C14.8003 0 16.2004 0 17.27 0.544967C18.2108 1.02433 18.9757 1.78924 19.455 2.73005C20 3.79961 20 5.19974 20 8V12C20 14.8003 20 16.2004 19.455 17.27C18.9757 18.2108 18.2108 18.9757 17.27 19.455C16.2004 20 14.8003 20 12 20H8C5.19974 20 3.79961 20 2.73005 19.455C1.78924 18.9757 1.02433 18.2108 0.544967 17.27C0 16.2004 0 14.8003 0 12V8Z" fill="#00CFB6"/>
<path fill-rule="evenodd" clip-rule="evenodd" d="M3.00003 10.6797C3.00003 12.2338 3.49451 13.6416 4.33241 14.8094L7.68111 9.36176L8.9061 11.4264L8.59985 9.88869L10 7.47261L12.3189 11.4707L11.969 9.93299L12.3189 9.36176L15.6676 14.8094C16.5059 13.6416 17 12.2338 17 10.6797C17 6.76648 13.8661 3.65002 10 3.65002C9.08004 3.64742 8.16862 3.82747 7.31818 4.17983C6.46773 4.53218 5.69503 5.04989 5.04451 5.70317C4.39398 6.35645 3.87847 7.13243 3.5276 7.98648C3.17673 8.84053 2.99744 9.75579 3.00003 10.6797Z" fill="white"/>
</g>
<defs>
<clipPath id="clip0_10_433">
<rect width="20" height="20" fill="white"/>
</clipPath>
</defs>
</svg>
